<?xml version="1.0" encoding="utf-8" standalone="no"?>
<!DOCTYPE svg PUBLIC "-//W3C//DTD SVG 1.1//EN"
  "http://www.w3.org/Graphics/SVG/1.1/DTD/svg11.dtd">
<!-- Created with matplotlib (http://matplotlib.org/) -->
<svg height="342pt" version="1.1" viewBox="0 0 569 342" width="569pt" xmlns="http://www.w3.org/2000/svg" xmlns:xlink="http://www.w3.org/1999/xlink">
 <defs>
  <style type="text/css">
*{stroke-linecap:butt;stroke-linejoin:round;}
  </style>
 </defs>
 <g id="figure_1">
  <g id="patch_1">
   <path d="
M0 342.9
L569.7 342.9
L569.7 0
L0 0
z
" style="fill:#ffffff;"/>
  </g>
  <g id="axes_1">
   <g id="patch_2">
    <path d="
M71.2125 308.61
L424.426 308.61
L424.426 34.29
L71.2125 34.29
z
" style="fill:#ffffff;"/>
   </g>
   <g id="PathCollection_1">
    <defs>
     <path d="
M324.94 -128.045
L324.776 -131.517
L325.714 -134.99
L326.063 -135.586
L328.626 -138.462
L330.534 -139.843
L335.005 -141.22
L339.476 -140.765
L343.895 -138.462
L343.947 -138.42
L346.384 -134.99
L347.486 -131.517
L347.293 -128.045
L345.792 -124.573
L343.947 -122.33
L342.144 -121.1
L339.476 -119.838
L335.005 -119.419
L330.534 -120.688
L329.906 -121.1
L326.289 -124.573
L326.063 -124.983
L324.94 -128.045" id="C0_0_f12ac65bc3"/>
    </defs>
    <g clip-path="url(#p19a6ccf3d9)">
     <use style="fill:#0c0c0c;" x="0.0" xlink:href="#C0_0_f12ac65bc3" y="342.9"/>
    </g>
   </g>
   <g id="PathCollection_2">
    <defs>
     <path d="
M320.48 -124.573
L319.558 -128.045
L319.439 -131.517
L320.117 -134.99
L321.592 -138.373
L321.642 -138.462
L324.662 -141.935
L326.063 -143.108
L330.416 -145.407
L330.534 -145.458
L335.005 -146.302
L339.476 -146.023
L341.447 -145.407
L343.947 -144.471
L347.62 -141.935
L348.418 -141.189
L350.495 -138.462
L352.15 -134.99
L352.889 -131.519
L352.89 -131.517
L352.889 -131.506
L352.76 -128.045
L351.753 -124.573
L349.805 -121.1
L348.418 -119.447
L346.259 -117.628
L343.947 -116.142
L339.476 -114.578
L335.005 -114.272
L330.534 -115.196
L326.063 -117.439
L325.82 -117.628
L322.419 -121.1
L321.592 -122.372
L320.48 -124.573
M324.94 -128.045
L326.063 -124.983
L326.289 -124.573
L329.906 -121.1
L330.534 -120.688
L335.005 -119.419
L339.476 -119.838
L342.144 -121.1
L343.947 -122.33
L345.792 -124.573
L347.293 -128.045
L347.486 -131.517
L346.384 -134.99
L343.947 -138.42
L343.895 -138.462
L339.476 -140.765
L335.005 -141.22
L330.534 -139.843
L328.626 -138.462
L326.063 -135.586
L325.714 -134.99
L324.776 -131.517
L324.94 -128.045" id="C1_0_3e3705adaa"/>
    </defs>
    <g clip-path="url(#p19a6ccf3d9)">
     <use style="fill:#262626;" x="0.0" xlink:href="#C1_0_3e3705adaa" y="342.9"/>
    </g>
   </g>
   <g id="PathCollection_3">
    <defs>
     <path d="
M315.758 -124.573
L315.03 -128.045
L314.936 -131.517
L315.471 -134.99
L316.668 -138.462
L317.121 -139.311
L318.766 -141.935
L321.592 -145.113
L321.941 -145.407
L326.063 -148.176
L327.758 -148.879
L330.534 -149.889
L335.005 -150.573
L339.476 -150.347
L343.947 -149.188
L344.613 -148.879
L348.418 -146.834
L350.23 -145.407
L352.889 -142.735
L353.523 -141.935
L355.54 -138.462
L356.786 -134.99
L357.343 -131.517
L357.246 -128.045
L356.487 -124.573
L355.02 -121.1
L352.889 -117.83
L352.726 -117.628
L348.973 -114.155
L348.418 -113.743
L343.947 -111.431
L341.235 -110.683
L339.476 -110.244
L335.005 -110.02
L330.618 -110.683
L330.534 -110.697
L326.063 -112.438
L323.357 -114.155
L321.592 -115.532
L319.589 -117.628
L317.172 -121.1
L317.121 -121.209
L315.758 -124.573
M320.48 -124.573
L321.592 -122.372
L322.419 -121.1
L325.82 -117.628
L326.063 -117.439
L330.534 -115.196
L335.005 -114.272
L339.476 -114.578
L343.947 -116.142
L346.259 -117.628
L348.418 -119.447
L349.805 -121.1
L351.753 -124.573
L352.76 -128.045
L352.889 -131.506
L352.89 -131.517
L352.889 -131.519
L352.15 -134.99
L350.495 -138.462
L348.418 -141.189
L347.62 -141.935
L343.947 -144.471
L341.447 -145.407
L339.476 -146.023
L335.005 -146.302
L330.534 -145.458
L330.416 -145.407
L326.063 -143.108
L324.662 -141.935
L321.642 -138.462
L321.592 -138.373
L320.117 -134.99
L319.439 -131.517
L319.558 -128.045
L320.48 -124.573" id="C2_0_08ca644482"/>
    </defs>
    <g clip-path="url(#p19a6ccf3d9)">
     <use style="fill:#404040;" x="0.0" xlink:href="#C2_0_08ca644482" y="342.9"/>
    </g>
   </g>
   <g id="PathCollection_4">
    <defs>
     <path d="
M312.573 -121.1
L311.397 -124.573
L310.788 -128.045
L310.71 -131.517
L311.157 -134.99
L312.157 -138.462
L312.65 -139.565
L313.804 -141.935
L316.21 -145.407
L317.121 -146.432
L319.788 -148.879
L321.592 -150.243
L325.475 -152.352
L326.063 -152.637
L330.534 -154.025
L335.005 -154.596
L339.476 -154.407
L343.947 -153.44
L346.665 -152.352
L348.418 -151.579
L352.51 -148.879
L352.889 -148.58
L356.017 -145.407
L357.361 -143.614
L358.452 -141.935
L360.077 -138.462
L361.082 -134.99
L361.53 -131.517
L361.452 -128.045
L360.841 -124.573
L359.659 -121.1
L357.829 -117.628
L357.361 -116.958
L355.09 -114.155
L352.889 -112.046
L351.049 -110.683
L348.418 -109.027
L344.073 -107.211
L343.947 -107.162
L339.476 -106.193
L335.005 -106.004
L330.534 -106.576
L328.431 -107.211
L326.063 -107.974
L321.592 -110.347
L321.125 -110.683
L317.121 -114.133
L317.1 -114.155
L314.441 -117.628
L312.65 -120.945
L312.573 -121.1
M315.758 -124.573
L317.121 -121.209
L317.172 -121.1
L319.589 -117.628
L321.592 -115.532
L323.357 -114.155
L326.063 -112.438
L330.534 -110.697
L330.618 -110.683
L335.005 -110.02
L339.476 -110.244
L341.235 -110.683
L343.947 -111.431
L348.418 -113.743
L348.973 -114.155
L352.726 -117.628
L352.889 -117.83
L355.02 -121.1
L356.487 -124.573
L357.246 -128.045
L357.343 -131.517
L356.786 -134.99
L355.54 -138.462
L353.523 -141.935
L352.889 -142.735
L350.23 -145.407
L348.418 -146.834
L344.613 -148.879
L343.947 -149.188
L339.476 -150.347
L335.005 -150.573
L330.534 -149.889
L327.758 -148.879
L326.063 -148.176
L321.941 -145.407
L321.592 -145.113
L318.766 -141.935
L317.121 -139.311
L316.668 -138.462
L315.471 -134.99
L314.936 -131.517
L315.03 -128.045
L315.758 -124.573" id="C3_0_3c393436b8"/>
    </defs>
    <g clip-path="url(#p19a6ccf3d9)">
     <use style="fill:#595959;" x="0.0" xlink:href="#C3_0_3c393436b8" y="342.9"/>
    </g>
   </g>
   <g id="PathCollection_5">
    <defs>
     <path d="
M308.092 -121.1
L307.075 -124.573
L306.549 -128.045
L306.482 -131.517
L306.868 -134.99
L307.732 -138.462
L308.179 -139.617
L309.096 -141.935
L311.05 -145.407
L312.65 -147.553
L313.773 -148.879
L317.121 -152.034
L317.543 -152.352
L321.592 -154.991
L323.407 -155.824
L326.063 -156.961
L330.534 -158.136
L335.005 -158.621
L339.476 -158.46
L343.947 -157.64
L348.418 -156.08
L348.929 -155.824
L352.889 -153.658
L354.672 -152.352
L357.361 -150.04
L358.483 -148.879
L361.19 -145.407
L361.832 -144.331
L363.16 -141.935
L364.523 -138.462
L365.366 -134.99
L365.742 -131.517
L365.677 -128.045
L365.164 -124.573
L364.173 -121.1
L362.637 -117.628
L361.832 -116.275
L360.463 -114.155
L357.498 -110.683
L357.361 -110.547
L353.269 -107.211
L352.889 -106.943
L348.418 -104.523
L346.211 -103.738
L343.947 -102.966
L339.476 -102.136
L335.005 -101.974
L330.534 -102.464
L326.063 -103.654
L325.861 -103.738
L321.592 -105.609
L319.036 -107.211
L317.121 -108.577
L314.779 -110.683
L312.65 -113.044
L311.772 -114.155
L309.614 -117.628
L308.179 -120.896
L308.092 -121.1
M312.573 -121.1
L312.65 -120.945
L314.441 -117.628
L317.1 -114.155
L317.121 -114.133
L321.125 -110.683
L321.592 -110.347
L326.063 -107.974
L328.431 -107.211
L330.534 -106.576
L335.005 -106.004
L339.476 -106.193
L343.947 -107.162
L344.073 -107.211
L348.418 -109.027
L351.049 -110.683
L352.889 -112.046
L355.09 -114.155
L357.361 -116.958
L357.829 -117.628
L359.659 -121.1
L360.841 -124.573
L361.452 -128.045
L361.53 -131.517
L361.082 -134.99
L360.077 -138.462
L358.452 -141.935
L357.361 -143.614
L356.017 -145.407
L352.889 -148.58
L352.51 -148.879
L348.418 -151.579
L346.665 -152.352
L343.947 -153.44
L339.476 -154.407
L335.005 -154.596
L330.534 -154.025
L326.063 -152.637
L325.475 -152.352
L321.592 -150.243
L319.788 -148.879
L317.121 -146.432
L316.21 -145.407
L313.804 -141.935
L312.65 -139.565
L312.157 -138.462
L311.157 -134.99
L310.71 -131.517
L310.788 -128.045
L311.397 -124.573
L312.573 -121.1" id="C4_0_303e26c550"/>
    </defs>
    <g clip-path="url(#p19a6ccf3d9)">
     <use style="fill:#737373;" x="0.0" xlink:href="#C4_0_303e26c550" y="342.9"/>
    </g>
   </g>
   <g id="PathCollection_6">
    <defs>
     <path d="
M303.423 -121.1
L302.533 -124.573
L302.073 -128.045
L302.014 -131.517
L302.352 -134.99
L303.108 -138.462
L303.708 -140.214
L304.278 -141.935
L305.899 -145.407
L308.134 -148.879
L308.179 -148.937
L311.043 -152.352
L312.65 -153.909
L314.989 -155.824
L317.121 -157.352
L320.662 -159.297
L321.592 -159.775
L326.063 -161.45
L330.534 -162.442
L334.09 -162.769
L335.005 -162.859
L337.73 -162.769
L339.476 -162.716
L343.947 -162.024
L348.418 -160.707
L351.555 -159.297
L352.889 -158.666
L357.288 -155.824
L357.361 -155.772
L361.196 -152.352
L361.832 -151.666
L364.131 -148.879
L366.303 -145.421
L366.311 -145.407
L367.996 -141.935
L369.158 -138.462
L369.877 -134.99
L370.198 -131.517
L370.142 -128.045
L369.705 -124.573
L368.859 -121.1
L367.55 -117.628
L366.303 -115.237
L365.726 -114.155
L363.338 -110.683
L361.832 -108.941
L360.141 -107.211
L357.361 -104.828
L355.79 -103.738
L352.889 -101.927
L349.223 -100.266
L348.418 -99.9145
L343.947 -98.5673
L339.476 -97.8591
L335.005 -97.7208
L330.534 -98.139
L326.063 -99.1543
L323.075 -100.266
L321.592 -100.83
L317.121 -103.258
L316.428 -103.738
L312.65 -106.692
L312.093 -107.211
L308.92 -110.683
L308.179 -111.694
L306.499 -114.155
L304.708 -117.628
L303.708 -120.346
L303.423 -121.1
M308.092 -121.1
L308.179 -120.896
L309.614 -117.628
L311.772 -114.155
L312.65 -113.044
L314.779 -110.683
L317.121 -108.577
L319.036 -107.211
L321.592 -105.609
L325.861 -103.738
L326.063 -103.654
L330.534 -102.464
L335.005 -101.974
L339.476 -102.136
L343.947 -102.966
L346.211 -103.738
L348.418 -104.523
L352.889 -106.943
L353.269 -107.211
L357.361 -110.547
L357.498 -110.683
L360.463 -114.155
L361.832 -116.275
L362.637 -117.628
L364.173 -121.1
L365.164 -124.573
L365.677 -128.045
L365.742 -131.517
L365.366 -134.99
L364.523 -138.462
L363.16 -141.935
L361.832 -144.331
L361.19 -145.407
L358.483 -148.879
L357.361 -150.04
L354.672 -152.352
L352.889 -153.658
L348.929 -155.824
L348.418 -156.08
L343.947 -157.64
L339.476 -158.46
L335.005 -158.621
L330.534 -158.136
L326.063 -156.961
L323.407 -155.824
L321.592 -154.991
L317.543 -152.352
L317.121 -152.034
L313.773 -148.879
L312.65 -147.553
L311.05 -145.407
L309.096 -141.935
L308.179 -139.617
L307.732 -138.462
L306.868 -134.99
L306.482 -131.517
L306.549 -128.045
L307.075 -124.573
L308.092 -121.1" id="C5_0_30b585fd1a"/>
    </defs>
    <g clip-path="url(#p19a6ccf3d9)">
     <use style="fill:#8c8c8c;" x="0.0" xlink:href="#C5_0_30b585fd1a" y="342.9"/>
    </g>
   </g>
   <g id="PathCollection_7">
    <defs>
     <path d="
M298.209 -121.1
L297.443 -124.573
L297.046 -128.045
L296.995 -131.517
L297.286 -134.99
L297.938 -138.462
L298.992 -141.935
L299.237 -142.53
L300.353 -145.407
L302.188 -148.879
L303.708 -151.112
L304.58 -152.352
L307.602 -155.824
L308.179 -156.394
L311.517 -159.297
L312.65 -160.164
L316.849 -162.769
L317.121 -162.927
L321.592 -164.999
L325.612 -166.241
L326.063 -166.385
L330.534 -167.3
L335.005 -167.677
L339.476 -167.552
L343.947 -166.914
L346.504 -166.241
L348.418 -165.761
L352.889 -164.063
L355.351 -162.769
L357.361 -161.663
L360.721 -159.297
L361.832 -158.421
L364.65 -155.824
L366.303 -154
L367.683 -152.352
L370.033 -148.879
L370.774 -147.488
L371.897 -145.407
L373.314 -141.935
L374.292 -138.462
L374.896 -134.99
L375.166 -131.517
L375.119 -128.045
L374.752 -124.573
L374.04 -121.1
L372.939 -117.628
L371.373 -114.155
L370.774 -113.107
L369.399 -110.683
L366.833 -107.211
L366.303 -106.601
L363.587 -103.738
L361.832 -102.176
L359.306 -100.266
L357.361 -98.9364
L353.323 -96.7933
L352.889 -96.5715
L348.418 -94.8172
L343.947 -93.7039
L341.061 -93.3209
L339.476 -93.0912
L335.005 -92.9614
L330.903 -93.3209
L330.534 -93.35
L326.063 -94.189
L321.592 -95.6046
L318.978 -96.7933
L317.121 -97.6562
L312.932 -100.266
L312.65 -100.457
L308.674 -103.738
L308.179 -104.215
L305.397 -107.211
L303.708 -109.488
L302.855 -110.683
L300.845 -114.155
L299.376 -117.628
L299.237 -118.069
L298.209 -121.1
M303.423 -121.1
L303.708 -120.346
L304.708 -117.628
L306.499 -114.155
L308.179 -111.694
L308.92 -110.683
L312.093 -107.211
L312.65 -106.692
L316.428 -103.738
L317.121 -103.258
L321.592 -100.83
L323.075 -100.266
L326.063 -99.1543
L330.534 -98.139
L335.005 -97.7208
L339.476 -97.8591
L343.947 -98.5673
L348.418 -99.9145
L349.223 -100.266
L352.889 -101.927
L355.79 -103.738
L357.361 -104.828
L360.141 -107.211
L361.832 -108.941
L363.338 -110.683
L365.726 -114.155
L366.303 -115.237
L367.55 -117.628
L368.859 -121.1
L369.705 -124.573
L370.142 -128.045
L370.198 -131.517
L369.877 -134.99
L369.158 -138.462
L367.996 -141.935
L366.311 -145.407
L366.303 -145.421
L364.131 -148.879
L361.832 -151.666
L361.196 -152.352
L357.361 -155.772
L357.288 -155.824
L352.889 -158.666
L351.555 -159.297
L348.418 -160.707
L343.947 -162.024
L339.476 -162.716
L337.73 -162.769
L335.005 -162.859
L334.09 -162.769
L330.534 -162.442
L326.063 -161.45
L321.592 -159.775
L320.662 -159.297
L317.121 -157.352
L314.989 -155.824
L312.65 -153.909
L311.043 -152.352
L308.179 -148.937
L308.134 -148.879
L305.899 -145.407
L304.278 -141.935
L303.708 -140.214
L303.108 -138.462
L302.352 -134.99
L302.014 -131.517
L302.073 -128.045
L302.533 -124.573
L303.423 -121.1" id="C6_0_587bb2bb77"/>
    </defs>
    <g clip-path="url(#p19a6ccf3d9)">
     <use style="fill:#a6a6a6;" x="0.0" xlink:href="#C6_0_587bb2bb77" y="342.9"/>
    </g>
   </g>
   <g id="PathCollection_8">
    <defs>
     <path d="
M294.195 -114.155
L292.845 -117.628
L291.894 -121.1
L291.281 -124.573
L290.963 -128.045
L290.923 -131.517
L291.156 -134.99
L291.677 -138.462
L292.521 -141.935
L293.743 -145.407
L294.766 -147.596
L295.318 -148.879
L297.212 -152.352
L299.237 -155.205
L299.678 -155.824
L302.624 -159.297
L303.708 -160.381
L306.33 -162.769
L308.179 -164.254
L311.108 -166.241
L312.65 -167.224
L317.121 -169.476
L317.739 -169.714
L321.592 -171.24
L326.063 -172.433
L330.534 -173.14
L331.233 -173.186
L335.005 -173.478
L339.476 -173.363
L340.86 -173.186
L343.947 -172.842
L348.418 -171.904
L352.889 -170.426
L354.488 -169.714
L357.361 -168.451
L361.131 -166.241
L361.832 -165.811
L365.891 -162.769
L366.303 -162.424
L369.619 -159.297
L370.774 -157.998
L372.616 -155.824
L374.965 -152.352
L375.245 -151.854
L376.981 -148.879
L378.511 -145.407
L379.62 -141.935
L379.716 -141.524
L380.538 -138.462
L381.119 -134.99
L381.378 -131.517
L381.333 -128.045
L380.98 -124.573
L380.296 -121.1
L379.716 -119.138
L379.327 -117.628
L378.1 -114.155
L376.424 -110.683
L375.245 -108.755
L374.33 -107.211
L371.769 -103.738
L370.774 -102.604
L368.607 -100.266
L366.303 -98.1573
L364.611 -96.7933
L361.832 -94.7659
L359.4 -93.3209
L357.361 -92.1541
L352.889 -90.1979
L351.8 -89.8485
L348.418 -88.7036
L343.947 -87.7178
L339.476 -87.1996
L335.005 -87.0984
L330.534 -87.4044
L326.063 -88.1473
L321.592 -89.4008
L320.437 -89.8485
L317.121 -91.0859
L312.836 -93.3209
L312.65 -93.42
L308.179 -96.3737
L307.642 -96.7933
L303.708 -100.248
L303.689 -100.266
L300.474 -103.738
L299.237 -105.396
L297.896 -107.211
L295.829 -110.683
L294.766 -113.002
L294.195 -114.155
M298.209 -121.1
L299.237 -118.069
L299.376 -117.628
L300.845 -114.155
L302.855 -110.683
L303.708 -109.488
L305.397 -107.211
L308.179 -104.215
L308.674 -103.738
L312.65 -100.457
L312.932 -100.266
L317.121 -97.6562
L318.978 -96.7933
L321.592 -95.6046
L326.063 -94.189
L330.534 -93.35
L330.903 -93.3209
L335.005 -92.9614
L339.476 -93.0912
L341.061 -93.3209
L343.947 -93.7039
L348.418 -94.8172
L352.889 -96.5715
L353.323 -96.7933
L357.361 -98.9364
L359.306 -100.266
L361.832 -102.176
L363.587 -103.738
L366.303 -106.601
L366.833 -107.211
L369.399 -110.683
L370.774 -113.107
L371.373 -114.155
L372.939 -117.628
L374.04 -121.1
L374.752 -124.573
L375.119 -128.045
L375.166 -131.517
L374.896 -134.99
L374.292 -138.462
L373.314 -141.935
L371.897 -145.407
L370.774 -147.488
L370.033 -148.879
L367.683 -152.352
L366.303 -154
L364.65 -155.824
L361.832 -158.421
L360.721 -159.297
L357.361 -161.663
L355.351 -162.769
L352.889 -164.063
L348.418 -165.761
L346.504 -166.241
L343.947 -166.914
L339.476 -167.552
L335.005 -167.677
L330.534 -167.3
L326.063 -166.385
L325.612 -166.241
L321.592 -164.999
L317.121 -162.927
L316.849 -162.769
L312.65 -160.164
L311.517 -159.297
L308.179 -156.394
L307.602 -155.824
L304.58 -152.352
L303.708 -151.112
L302.188 -148.879
L300.353 -145.407
L299.237 -142.53
L298.992 -141.935
L297.938 -138.462
L297.286 -134.99
L296.995 -131.517
L297.046 -128.045
L297.443 -124.573
L298.209 -121.1" id="C7_0_ebf93afbcf"/>
    </defs>
    <g clip-path="url(#p19a6ccf3d9)">
     <use style="fill:#c0c0c0;" x="0.0" xlink:href="#C7_0_ebf93afbcf" y="342.9"/>
    </g>
   </g>
   <g id="PathCollection_9">
    <defs>
     <path d="
M284.705 -114.155
L283.602 -117.628
L282.827 -121.1
L282.326 -124.573
L282.067 -128.045
L282.034 -131.517
L282.224 -134.99
L282.65 -138.462
L283.338 -141.935
L284.336 -145.407
L285.712 -148.879
L285.824 -149.113
L287.162 -152.352
L289.065 -155.824
L290.295 -157.645
L291.343 -159.297
L294.068 -162.769
L294.766 -163.542
L297.255 -166.241
L299.237 -168.077
L301.166 -169.714
L303.708 -171.672
L306.007 -173.186
L308.179 -174.564
L312.34 -176.659
L312.65 -176.818
L317.121 -178.724
L321.592 -180.04
L322.025 -180.131
L326.063 -181.111
L330.534 -181.759
L335.005 -182.026
L339.476 -181.938
L343.947 -181.486
L348.418 -180.625
L350.155 -180.131
L352.889 -179.445
L357.361 -177.857
L359.893 -176.659
L361.832 -175.775
L366.205 -173.186
L366.303 -173.127
L370.774 -169.924
L371.032 -169.714
L374.926 -166.241
L375.245 -165.918
L378.216 -162.769
L379.716 -160.819
L380.91 -159.297
L383.171 -155.824
L384.187 -153.859
L385.051 -152.352
L386.668 -148.879
L387.867 -145.407
L388.658 -142.274
L388.763 -141.935
L389.561 -138.462
L390.054 -134.99
L390.274 -131.517
L390.235 -128.045
L389.936 -124.573
L389.355 -121.1
L388.658 -118.366
L388.507 -117.628
L387.546 -114.155
L386.232 -110.683
L384.466 -107.211
L384.187 -106.742
L382.56 -103.738
L380.092 -100.266
L379.716 -99.8
L377.317 -96.7933
L375.245 -94.6551
L373.884 -93.3209
L370.774 -90.6493
L369.725 -89.8485
L366.303 -87.4178
L364.531 -86.3761
L361.832 -84.8103
L357.538 -82.9037
L357.361 -82.8212
L352.889 -81.1245
L348.418 -79.9722
L345.174 -79.4313
L343.947 -79.1901
L339.476 -78.7032
L335.005 -78.6081
L330.534 -78.8956
L327.06 -79.4313
L326.063 -79.5595
L321.592 -80.4894
L317.121 -81.8947
L314.738 -82.9037
L312.65 -83.7359
L308.179 -86.0937
L307.725 -86.3761
L303.708 -88.9473
L302.512 -89.8485
L299.237 -92.5437
L298.377 -93.3209
L295.009 -96.7933
L294.766 -97.0797
L292.077 -100.266
L290.295 -102.961
L289.752 -103.738
L287.676 -107.211
L286.122 -110.683
L285.824 -111.51
L284.705 -114.155
M294.195 -114.155
L294.766 -113.002
L295.829 -110.683
L297.896 -107.211
L299.237 -105.396
L300.474 -103.738
L303.689 -100.266
L303.708 -100.248
L307.642 -96.7933
L308.179 -96.3737
L312.65 -93.42
L312.836 -93.3209
L317.121 -91.0859
L320.437 -89.8485
L321.592 -89.4008
L326.063 -88.1473
L330.534 -87.4044
L335.005 -87.0984
L339.476 -87.1996
L343.947 -87.7178
L348.418 -88.7036
L351.8 -89.8485
L352.889 -90.1979
L357.361 -92.1541
L359.4 -93.3209
L361.832 -94.7659
L364.611 -96.7933
L366.303 -98.1573
L368.607 -100.266
L370.774 -102.604
L371.769 -103.738
L374.33 -107.211
L375.245 -108.755
L376.424 -110.683
L378.1 -114.155
L379.327 -117.628
L379.716 -119.138
L380.296 -121.1
L380.98 -124.573
L381.333 -128.045
L381.378 -131.517
L381.119 -134.99
L380.538 -138.462
L379.716 -141.524
L379.62 -141.935
L378.511 -145.407
L376.981 -148.879
L375.245 -151.854
L374.965 -152.352
L372.616 -155.824
L370.774 -157.998
L369.619 -159.297
L366.303 -162.424
L365.891 -162.769
L361.832 -165.811
L361.131 -166.241
L357.361 -168.451
L354.488 -169.714
L352.889 -170.426
L348.418 -171.904
L343.947 -172.842
L340.86 -173.186
L339.476 -173.363
L335.005 -173.478
L331.233 -173.186
L330.534 -173.14
L326.063 -172.433
L321.592 -171.24
L317.739 -169.714
L317.121 -169.476
L312.65 -167.224
L311.108 -166.241
L308.179 -164.254
L306.33 -162.769
L303.708 -160.381
L302.624 -159.297
L299.678 -155.824
L299.237 -155.205
L297.212 -152.352
L295.318 -148.879
L294.766 -147.596
L293.743 -145.407
L292.521 -141.935
L291.677 -138.462
L291.156 -134.99
L290.923 -131.517
L290.963 -128.045
L291.281 -124.573
L291.894 -121.1
L292.845 -117.628
L294.195 -114.155" id="C8_0_eaf17c5317"/>
    </defs>
    <g clip-path="url(#p19a6ccf3d9)">
     <use style="fill:#d9d9d9;" x="0.0" xlink:href="#C8_0_eaf17c5317" y="342.9"/>
    </g>
   </g>
   <g id="PathCollection_10">
    <defs>
     <path d="
M71.2125 -34.29
L71.2125 -37.7624
L71.2125 -41.2348
L71.2125 -44.7072
L71.2125 -48.1796
L71.2125 -51.652
L71.2125 -55.1244
L71.2125 -58.5968
L71.2125 -62.0692
L71.2125 -65.5416
L71.2125 -69.0141
L71.2125 -72.4865
L71.2125 -75.9589
L71.2125 -79.4313
L71.2125 -82.9037
L71.2125 -86.3761
L71.2125 -89.8485
L71.2125 -93.3209
L71.2125 -96.7933
L71.2125 -100.266
L71.2125 -103.738
L71.2125 -107.211
L71.2125 -110.683
L71.2125 -114.155
L71.2125 -117.628
L71.2125 -121.1
L71.2125 -124.573
L71.2125 -128.045
L71.2125 -131.517
L71.2125 -134.99
L71.2125 -138.462
L71.2125 -141.935
L71.2125 -145.407
L71.2125 -148.879
L71.2125 -152.352
L71.2125 -155.824
L71.2125 -159.297
L71.2125 -162.769
L71.2125 -166.241
L71.2125 -169.714
L71.2125 -173.186
L71.2125 -176.659
L71.2125 -180.131
L71.2125 -183.603
L71.2125 -187.076
L71.2125 -190.548
L71.2125 -194.021
L71.2125 -197.493
L71.2125 -200.965
L71.2125 -204.438
L71.2125 -207.91
L71.2125 -211.383
L71.2125 -214.855
L71.2125 -218.327
L71.2125 -221.8
L71.2125 -225.272
L71.2125 -228.745
L71.2125 -232.217
L71.2125 -235.689
L71.2125 -239.162
L71.2125 -242.634
L71.2125 -246.107
L71.2125 -249.579
L71.2125 -253.052
L71.2125 -256.524
L71.2125 -259.996
L71.2125 -263.469
L71.2125 -266.941
L71.2125 -270.414
L71.2125 -273.886
L71.2125 -277.358
L71.2125 -280.831
L71.2125 -284.303
L71.2125 -287.776
L71.2125 -291.248
L71.2125 -294.72
L71.2125 -298.193
L71.2125 -301.665
L71.2125 -305.138
L71.2125 -308.61
L75.6836 -308.61
L80.1546 -308.61
L84.6257 -308.61
L89.0968 -308.61
L93.5678 -308.61
L98.0389 -308.61
L102.51 -308.61
L106.981 -308.61
L111.452 -308.61
L115.923 -308.61
L120.394 -308.61
L124.865 -308.61
L129.336 -308.61
L133.807 -308.61
L138.278 -308.61
L142.75 -308.61
L147.221 -308.61
L151.692 -308.61
L156.163 -308.61
L160.634 -308.61
L165.105 -308.61
L169.576 -308.61
L174.047 -308.61
L178.518 -308.61
L182.989 -308.61
L187.46 -308.61
L191.931 -308.61
L196.402 -308.61
L200.873 -308.61
L205.344 -308.61
L209.815 -308.61
L214.287 -308.61
L218.758 -308.61
L223.229 -308.61
L227.7 -308.61
L232.171 -308.61
L236.642 -308.61
L241.113 -308.61
L245.584 -308.61
L250.055 -308.61
L254.526 -308.61
L258.997 -308.61
L263.468 -308.61
L267.939 -308.61
L272.41 -308.61
L276.881 -308.61
L281.352 -308.61
L285.824 -308.61
L290.295 -308.61
L294.766 -308.61
L299.237 -308.61
L303.708 -308.61
L308.179 -308.61
L312.65 -308.61
L317.121 -308.61
L321.592 -308.61
L326.063 -308.61
L330.534 -308.61
L335.005 -308.61
L339.476 -308.61
L343.947 -308.61
L348.418 -308.61
L352.889 -308.61
L357.361 -308.61
L361.832 -308.61
L366.303 -308.61
L370.774 -308.61
L375.245 -308.61
L379.716 -308.61
L384.187 -308.61
L388.658 -308.61
L393.129 -308.61
L397.6 -308.61
L402.071 -308.61
L406.542 -308.61
L411.013 -308.61
L415.484 -308.61
L419.955 -308.61
L424.426 -308.61
L424.426 -305.138
L424.426 -301.665
L424.426 -298.193
L424.426 -294.72
L424.426 -291.248
L424.426 -287.776
L424.426 -284.303
L424.426 -280.831
L424.426 -277.358
L424.426 -273.886
L424.426 -270.414
L424.426 -266.941
L424.426 -263.469
L424.426 -259.996
L424.426 -256.524
L424.426 -253.052
L424.426 -249.579
L424.426 -246.107
L424.426 -242.634
L424.426 -239.162
L424.426 -235.689
L424.426 -232.217
L424.426 -228.745
L424.426 -225.272
L424.426 -221.8
L424.426 -218.327
L424.426 -214.855
L424.426 -211.383
L424.426 -207.91
L424.426 -204.438
L424.426 -200.965
L424.426 -197.493
L424.426 -194.021
L424.426 -190.548
L424.426 -187.076
L424.426 -183.603
L424.426 -180.131
L424.426 -176.659
L424.426 -173.186
L424.426 -169.714
L424.426 -166.241
L424.426 -162.769
L424.426 -159.297
L424.426 -155.824
L424.426 -152.352
L424.426 -148.879
L424.426 -145.407
L424.426 -141.935
L424.426 -138.462
L424.426 -134.99
L424.426 -131.517
L424.426 -128.045
L424.426 -124.573
L424.426 -121.1
L424.426 -117.628
L424.426 -114.155
L424.426 -110.683
L424.426 -107.211
L424.426 -103.738
L424.426 -100.266
L424.426 -96.7933
L424.426 -93.3209
L424.426 -89.8485
L424.426 -86.3761
L424.426 -82.9037
L424.426 -79.4313
L424.426 -75.9589
L424.426 -72.4865
L424.426 -69.0141
L424.426 -65.5416
L424.426 -62.0692
L424.426 -58.5968
L424.426 -55.1244
L424.426 -51.652
L424.426 -48.1796
L424.426 -44.7072
L424.426 -41.2348
L424.426 -37.7624
L424.426 -34.29
L419.955 -34.29
L415.484 -34.29
L411.013 -34.29
L406.542 -34.29
L402.071 -34.29
L397.6 -34.29
L393.129 -34.29
L388.658 -34.29
L384.187 -34.29
L379.716 -34.29
L375.245 -34.29
L370.774 -34.29
L366.303 -34.29
L361.832 -34.29
L357.361 -34.29
L352.889 -34.29
L348.418 -34.29
L343.947 -34.29
L339.476 -34.29
L335.005 -34.29
L330.534 -34.29
L326.063 -34.29
L321.592 -34.29
L317.121 -34.29
L312.65 -34.29
L308.179 -34.29
L303.708 -34.29
L299.237 -34.29
L294.766 -34.29
L290.295 -34.29
L285.824 -34.29
L281.352 -34.29
L276.881 -34.29
L272.41 -34.29
L267.939 -34.29
L263.468 -34.29
L258.997 -34.29
L254.526 -34.29
L250.055 -34.29
L245.584 -34.29
L241.113 -34.29
L236.642 -34.29
L232.171 -34.29
L227.7 -34.29
L223.229 -34.29
L218.758 -34.29
L214.287 -34.29
L209.815 -34.29
L205.344 -34.29
L200.873 -34.29
L196.402 -34.29
L191.931 -34.29
L187.46 -34.29
L182.989 -34.29
L178.518 -34.29
L174.047 -34.29
L169.576 -34.29
L165.105 -34.29
L160.634 -34.29
L156.163 -34.29
L151.692 -34.29
L147.221 -34.29
L142.75 -34.29
L138.278 -34.29
L133.807 -34.29
L129.336 -34.29
L124.865 -34.29
L120.394 -34.29
L115.923 -34.29
L111.452 -34.29
L106.981 -34.29
L102.51 -34.29
L98.0389 -34.29
L93.5678 -34.29
L89.0968 -34.29
L84.6257 -34.29
L80.1546 -34.29
L75.6836 -34.29
L71.2125 -34.29
M284.705 -114.155
L285.824 -111.51
L286.122 -110.683
L287.676 -107.211
L289.752 -103.738
L290.295 -102.961
L292.077 -100.266
L294.766 -97.0797
L295.009 -96.7933
L298.377 -93.3209
L299.237 -92.5437
L302.512 -89.8485
L303.708 -88.9473
L307.725 -86.3761
L308.179 -86.0937
L312.65 -83.7359
L314.738 -82.9037
L317.121 -81.8947
L321.592 -80.4894
L326.063 -79.5595
L327.06 -79.4313
L330.534 -78.8956
L335.005 -78.6081
L339.476 -78.7032
L343.947 -79.1901
L345.174 -79.4313
L348.418 -79.9722
L352.889 -81.1245
L357.361 -82.8212
L357.538 -82.9037
L361.832 -84.8103
L364.531 -86.3761
L366.303 -87.4178
L369.725 -89.8485
L370.774 -90.6493
L373.884 -93.3209
L375.245 -94.6551
L377.317 -96.7933
L379.716 -99.8
L380.092 -100.266
L382.56 -103.738
L384.187 -106.742
L384.466 -107.211
L386.232 -110.683
L387.546 -114.155
L388.507 -117.628
L388.658 -118.366
L389.355 -121.1
L389.936 -124.573
L390.235 -128.045
L390.274 -131.517
L390.054 -134.99
L389.561 -138.462
L388.763 -141.935
L388.658 -142.274
L387.867 -145.407
L386.668 -148.879
L385.051 -152.352
L384.187 -153.859
L383.171 -155.824
L380.91 -159.297
L379.716 -160.819
L378.216 -162.769
L375.245 -165.918
L374.926 -166.241
L371.032 -169.714
L370.774 -169.924
L366.303 -173.127
L366.205 -173.186
L361.832 -175.775
L359.893 -176.659
L357.361 -177.857
L352.889 -179.445
L350.155 -180.131
L348.418 -180.625
L343.947 -181.486
L339.476 -181.938
L335.005 -182.026
L330.534 -181.759
L326.063 -181.111
L322.025 -180.131
L321.592 -180.04
L317.121 -178.724
L312.65 -176.818
L312.34 -176.659
L308.179 -174.564
L306.007 -173.186
L303.708 -171.672
L301.166 -169.714
L299.237 -168.077
L297.255 -166.241
L294.766 -163.542
L294.068 -162.769
L291.343 -159.297
L290.295 -157.645
L289.065 -155.824
L287.162 -152.352
L285.824 -149.113
L285.712 -148.879
L284.336 -145.407
L283.338 -141.935
L282.65 -138.462
L282.224 -134.99
L282.034 -131.517
L282.067 -128.045
L282.326 -124.573
L282.827 -121.1
L283.602 -117.628
L284.705 -114.155" id="C9_0_09dc7cf8a4"/>
    </defs>
    <g clip-path="url(#p19a6ccf3d9)">
     <use style="fill:#f3f3f3;" x="0.0" xlink:href="#C9_0_09dc7cf8a4" y="342.9"/>
    </g>
   </g>
   <g id="matplotlib.axis_1">
    <g id="xtick_1">
     <g id="line2d_1">
      <defs>
       <path d="
M0 0
L0 -4" id="m93b0483c22" style="stroke:#000000;stroke-width:0.5;"/>
      </defs>
      <g>
       <use style="stroke:#000000;stroke-width:0.5;" x="71.2125" xlink:href="#m93b0483c22" y="308.61"/>
      </g>
     </g>
     <g id="line2d_2">
      <defs>
       <path d="
M0 0
L0 4" id="m741efc42ff" style="stroke:#000000;stroke-width:0.5;"/>
      </defs>
      <g>
       <use style="stroke:#000000;stroke-width:0.5;" x="71.2125" xlink:href="#m741efc42ff" y="34.29"/>
      </g>
     </g>
     <g id="text_1">
      <!-- 0 -->
      <defs>
       <path d="
M31.7812 66.4062
Q24.1719 66.4062 20.3281 58.9062
Q16.5 51.4219 16.5 36.375
Q16.5 21.3906 20.3281 13.8906
Q24.1719 6.39062 31.7812 6.39062
Q39.4531 6.39062 43.2812 13.8906
Q47.125 21.3906 47.125 36.375
Q47.125 51.4219 43.2812 58.9062
Q39.4531 66.4062 31.7812 66.4062
M31.7812 74.2188
Q44.0469 74.2188 50.5156 64.5156
Q56.9844 54.8281 56.9844 36.375
Q56.9844 17.9688 50.5156 8.26562
Q44.0469 -1.42188 31.7812 -1.42188
Q19.5312 -1.42188 13.0625 8.26562
Q6.59375 17.9688 6.59375 36.375
Q6.59375 54.8281 13.0625 64.5156
Q19.5312 74.2188 31.7812 74.2188" id="BitstreamVeraSans-Roman-30"/>
      </defs>
      <g transform="translate(68.1890625 321.728125)scale(0.12 -0.12)">
       <use xlink:href="#BitstreamVeraSans-Roman-30"/>
      </g>
     </g>
    </g>
    <g id="xtick_2">
     <g id="line2d_3">
      <g>
       <use style="stroke:#000000;stroke-width:0.5;" x="115.36425" xlink:href="#m93b0483c22" y="308.61"/>
      </g>
     </g>
     <g id="line2d_4">
      <g>
       <use style="stroke:#000000;stroke-width:0.5;" x="115.36425" xlink:href="#m741efc42ff" y="34.29"/>
      </g>
     </g>
     <g id="text_2">
      <!-- 1 -->
      <defs>
       <path d="
M12.4062 8.29688
L28.5156 8.29688
L28.5156 63.9219
L10.9844 60.4062
L10.9844 69.3906
L28.4219 72.9062
L38.2812 72.9062
L38.2812 8.29688
L54.3906 8.29688
L54.3906 0
L12.4062 0
z
" id="BitstreamVeraSans-Roman-31"/>
      </defs>
      <g transform="translate(112.759875 321.728125)scale(0.12 -0.12)">
       <use xlink:href="#BitstreamVeraSans-Roman-31"/>
      </g>
     </g>
    </g>
    <g id="xtick_3">
     <g id="line2d_5">
      <g>
       <use style="stroke:#000000;stroke-width:0.5;" x="159.516" xlink:href="#m93b0483c22" y="308.61"/>
      </g>
     </g>
     <g id="line2d_6">
      <g>
       <use style="stroke:#000000;stroke-width:0.5;" x="159.516" xlink:href="#m741efc42ff" y="34.29"/>
      </g>
     </g>
     <g id="text_3">
      <!-- 2 -->
      <defs>
       <path d="
M19.1875 8.29688
L53.6094 8.29688
L53.6094 0
L7.32812 0
L7.32812 8.29688
Q12.9375 14.1094 22.625 23.8906
Q32.3281 33.6875 34.8125 36.5312
Q39.5469 41.8438 41.4219 45.5312
Q43.3125 49.2188 43.3125 52.7812
Q43.3125 58.5938 39.2344 62.25
Q35.1562 65.9219 28.6094 65.9219
Q23.9688 65.9219 18.8125 64.3125
Q13.6719 62.7031 7.8125 59.4219
L7.8125 69.3906
Q13.7656 71.7812 18.9375 73
Q24.125 74.2188 28.4219 74.2188
Q39.75 74.2188 46.4844 68.5469
Q53.2188 62.8906 53.2188 53.4219
Q53.2188 48.9219 51.5312 44.8906
Q49.8594 40.875 45.4062 35.4062
Q44.1875 33.9844 37.6406 27.2188
Q31.1094 20.4531 19.1875 8.29688" id="BitstreamVeraSans-Roman-32"/>
      </defs>
      <g transform="translate(156.739125 321.728125)scale(0.12 -0.12)">
       <use xlink:href="#BitstreamVeraSans-Roman-32"/>
      </g>
     </g>
    </g>
    <g id="xtick_4">
     <g id="line2d_7">
      <g>
       <use style="stroke:#000000;stroke-width:0.5;" x="203.66775" xlink:href="#m93b0483c22" y="308.61"/>
      </g>
     </g>
     <g id="line2d_8">
      <g>
       <use style="stroke:#000000;stroke-width:0.5;" x="203.66775" xlink:href="#m741efc42ff" y="34.29"/>
      </g>
     </g>
     <g id="text_4">
      <!-- 3 -->
      <defs>
       <path d="
M40.5781 39.3125
Q47.6562 37.7969 51.625 33
Q55.6094 28.2188 55.6094 21.1875
Q55.6094 10.4062 48.1875 4.48438
Q40.7656 -1.42188 27.0938 -1.42188
Q22.5156 -1.42188 17.6562 -0.515625
Q12.7969 0.390625 7.625 2.20312
L7.625 11.7188
Q11.7188 9.32812 16.5938 8.10938
Q21.4844 6.89062 26.8125 6.89062
Q36.0781 6.89062 40.9375 10.5469
Q45.7969 14.2031 45.7969 21.1875
Q45.7969 27.6406 41.2812 31.2656
Q36.7656 34.9062 28.7188 34.9062
L20.2188 34.9062
L20.2188 43.0156
L29.1094 43.0156
Q36.375 43.0156 40.2344 45.9219
Q44.0938 48.8281 44.0938 54.2969
Q44.0938 59.9062 40.1094 62.9062
Q36.1406 65.9219 28.7188 65.9219
Q24.6562 65.9219 20.0156 65.0312
Q15.375 64.1562 9.8125 62.3125
L9.8125 71.0938
Q15.4375 72.6562 20.3438 73.4375
Q25.25 74.2188 29.5938 74.2188
Q40.8281 74.2188 47.3594 69.1094
Q53.9062 64.0156 53.9062 55.3281
Q53.9062 49.2656 50.4375 45.0938
Q46.9688 40.9219 40.5781 39.3125" id="BitstreamVeraSans-Roman-33"/>
      </defs>
      <g transform="translate(200.7886875 321.728125)scale(0.12 -0.12)">
       <use xlink:href="#BitstreamVeraSans-Roman-33"/>
      </g>
     </g>
    </g>
    <g id="xtick_5">
     <g id="line2d_9">
      <g>
       <use style="stroke:#000000;stroke-width:0.5;" x="247.8195" xlink:href="#m93b0483c22" y="308.61"/>
      </g>
     </g>
     <g id="line2d_10">
      <g>
       <use style="stroke:#000000;stroke-width:0.5;" x="247.8195" xlink:href="#m741efc42ff" y="34.29"/>
      </g>
     </g>
     <g id="text_5">
      <!-- 4 -->
      <defs>
       <path d="
M37.7969 64.3125
L12.8906 25.3906
L37.7969 25.3906
z

M35.2031 72.9062
L47.6094 72.9062
L47.6094 25.3906
L58.0156 25.3906
L58.0156 17.1875
L47.6094 17.1875
L47.6094 0
L37.7969 0
L37.7969 17.1875
L4.89062 17.1875
L4.89062 26.7031
z
" id="BitstreamVeraSans-Roman-34"/>
      </defs>
      <g transform="translate(244.632 321.728125)scale(0.12 -0.12)">
       <use xlink:href="#BitstreamVeraSans-Roman-34"/>
      </g>
     </g>
    </g>
    <g id="xtick_6">
     <g id="line2d_11">
      <g>
       <use style="stroke:#000000;stroke-width:0.5;" x="291.97125" xlink:href="#m93b0483c22" y="308.61"/>
      </g>
     </g>
     <g id="line2d_12">
      <g>
       <use style="stroke:#000000;stroke-width:0.5;" x="291.97125" xlink:href="#m741efc42ff" y="34.29"/>
      </g>
     </g>
     <g id="text_6">
      <!-- 5 -->
      <defs>
       <path d="
M10.7969 72.9062
L49.5156 72.9062
L49.5156 64.5938
L19.8281 64.5938
L19.8281 46.7344
Q21.9688 47.4688 24.1094 47.8281
Q26.2656 48.1875 28.4219 48.1875
Q40.625 48.1875 47.75 41.5
Q54.8906 34.8125 54.8906 23.3906
Q54.8906 11.625 47.5625 5.09375
Q40.2344 -1.42188 26.9062 -1.42188
Q22.3125 -1.42188 17.5469 -0.640625
Q12.7969 0.140625 7.71875 1.70312
L7.71875 11.625
Q12.1094 9.23438 16.7969 8.0625
Q21.4844 6.89062 26.7031 6.89062
Q35.1562 6.89062 40.0781 11.3281
Q45.0156 15.7656 45.0156 23.3906
Q45.0156 31 40.0781 35.4375
Q35.1562 39.8906 26.7031 39.8906
Q22.75 39.8906 18.8125 39.0156
Q14.8906 38.1406 10.7969 36.2812
z
" id="BitstreamVeraSans-Roman-35"/>
      </defs>
      <g transform="translate(289.1409375 321.728125)scale(0.12 -0.12)">
       <use xlink:href="#BitstreamVeraSans-Roman-35"/>
      </g>
     </g>
    </g>
    <g id="xtick_7">
     <g id="line2d_13">
      <g>
       <use style="stroke:#000000;stroke-width:0.5;" x="336.123" xlink:href="#m93b0483c22" y="308.61"/>
      </g>
     </g>
     <g id="line2d_14">
      <g>
       <use style="stroke:#000000;stroke-width:0.5;" x="336.123" xlink:href="#m741efc42ff" y="34.29"/>
      </g>
     </g>
     <g id="text_7">
      <!-- 6 -->
      <defs>
       <path d="
M33.0156 40.375
Q26.375 40.375 22.4844 35.8281
Q18.6094 31.2969 18.6094 23.3906
Q18.6094 15.5312 22.4844 10.9531
Q26.375 6.39062 33.0156 6.39062
Q39.6562 6.39062 43.5312 10.9531
Q47.4062 15.5312 47.4062 23.3906
Q47.4062 31.2969 43.5312 35.8281
Q39.6562 40.375 33.0156 40.375
M52.5938 71.2969
L52.5938 62.3125
Q48.875 64.0625 45.0938 64.9844
Q41.3125 65.9219 37.5938 65.9219
Q27.8281 65.9219 22.6719 59.3281
Q17.5312 52.7344 16.7969 39.4062
Q19.6719 43.6562 24.0156 45.9219
Q28.375 48.1875 33.5938 48.1875
Q44.5781 48.1875 50.9531 41.5156
Q57.3281 34.8594 57.3281 23.3906
Q57.3281 12.1562 50.6875 5.35938
Q44.0469 -1.42188 33.0156 -1.42188
Q20.3594 -1.42188 13.6719 8.26562
Q6.98438 17.9688 6.98438 36.375
Q6.98438 53.6562 15.1875 63.9375
Q23.3906 74.2188 37.2031 74.2188
Q40.9219 74.2188 44.7031 73.4844
Q48.4844 72.75 52.5938 71.2969" id="BitstreamVeraSans-Roman-36"/>
      </defs>
      <g transform="translate(333.102375 321.728125)scale(0.12 -0.12)">
       <use xlink:href="#BitstreamVeraSans-Roman-36"/>
      </g>
     </g>
    </g>
    <g id="xtick_8">
     <g id="line2d_15">
      <g>
       <use style="stroke:#000000;stroke-width:0.5;" x="380.27475" xlink:href="#m93b0483c22" y="308.61"/>
      </g>
     </g>
     <g id="line2d_16">
      <g>
       <use style="stroke:#000000;stroke-width:0.5;" x="380.27475" xlink:href="#m741efc42ff" y="34.29"/>
      </g>
     </g>
     <g id="text_8">
      <!-- 7 -->
      <defs>
       <path d="
M8.20312 72.9062
L55.0781 72.9062
L55.0781 68.7031
L28.6094 0
L18.3125 0
L43.2188 64.5938
L8.20312 64.5938
z
" id="BitstreamVeraSans-Roman-37"/>
      </defs>
      <g transform="translate(377.46225 321.728125)scale(0.12 -0.12)">
       <use xlink:href="#BitstreamVeraSans-Roman-37"/>
      </g>
     </g>
    </g>
    <g id="xtick_9">
     <g id="line2d_17">
      <g>
       <use style="stroke:#000000;stroke-width:0.5;" x="424.4265" xlink:href="#m93b0483c22" y="308.61"/>
      </g>
     </g>
     <g id="line2d_18">
      <g>
       <use style="stroke:#000000;stroke-width:0.5;" x="424.4265" xlink:href="#m741efc42ff" y="34.29"/>
      </g>
     </g>
     <g id="text_9">
      <!-- 8 -->
      <defs>
       <path d="
M31.7812 34.625
Q24.75 34.625 20.7188 30.8594
Q16.7031 27.0938 16.7031 20.5156
Q16.7031 13.9219 20.7188 10.1562
Q24.75 6.39062 31.7812 6.39062
Q38.8125 6.39062 42.8594 10.1719
Q46.9219 13.9688 46.9219 20.5156
Q46.9219 27.0938 42.8906 30.8594
Q38.875 34.625 31.7812 34.625
M21.9219 38.8125
Q15.5781 40.375 12.0312 44.7188
Q8.5 49.0781 8.5 55.3281
Q8.5 64.0625 14.7188 69.1406
Q20.9531 74.2188 31.7812 74.2188
Q42.6719 74.2188 48.875 69.1406
Q55.0781 64.0625 55.0781 55.3281
Q55.0781 49.0781 51.5312 44.7188
Q48 40.375 41.7031 38.8125
Q48.8281 37.1562 52.7969 32.3125
Q56.7812 27.4844 56.7812 20.5156
Q56.7812 9.90625 50.3125 4.23438
Q43.8438 -1.42188 31.7812 -1.42188
Q19.7344 -1.42188 13.25 4.23438
Q6.78125 9.90625 6.78125 20.5156
Q6.78125 27.4844 10.7812 32.3125
Q14.7969 37.1562 21.9219 38.8125
M18.3125 54.3906
Q18.3125 48.7344 21.8438 45.5625
Q25.3906 42.3906 31.7812 42.3906
Q38.1406 42.3906 41.7188 45.5625
Q45.3125 48.7344 45.3125 54.3906
Q45.3125 60.0625 41.7188 63.2344
Q38.1406 66.4062 31.7812 66.4062
Q25.3906 66.4062 21.8438 63.2344
Q18.3125 60.0625 18.3125 54.3906" id="BitstreamVeraSans-Roman-38"/>
      </defs>
      <g transform="translate(421.4265 321.728125)scale(0.12 -0.12)">
       <use xlink:href="#BitstreamVeraSans-Roman-38"/>
      </g>
     </g>
    </g>
    <g id="text_10">
     <!-- $x$ -->
     <defs>
      <path d="
M7.8125 2.875
Q9.57812 1.51562 12.7969 1.51562
Q15.9219 1.51562 18.3125 4.51562
Q20.7031 7.51562 21.5781 11.0781
L26.125 28.8125
Q27.2031 33.6406 27.2031 35.4062
Q27.2031 37.8906 25.8125 39.75
Q24.4219 41.6094 21.9219 41.6094
Q18.75 41.6094 15.9688 39.625
Q13.1875 37.6406 11.2812 34.5938
Q9.375 31.5469 8.59375 28.4219
Q8.40625 27.7812 7.8125 27.7812
L6.59375 27.7812
Q5.8125 27.7812 5.8125 28.7188
L5.8125 29
Q6.78125 32.7188 9.125 36.25
Q11.4688 39.7969 14.8594 41.9844
Q18.2656 44.1875 22.125 44.1875
Q25.7812 44.1875 28.7344 42.2344
Q31.6875 40.2812 32.9062 36.9219
Q34.625 39.9844 37.2812 42.0781
Q39.9375 44.1875 43.1094 44.1875
Q45.2656 44.1875 47.5 43.4219
Q49.75 42.6719 51.1719 41.1094
Q52.5938 39.5469 52.5938 37.2031
Q52.5938 34.6719 50.9531 32.8281
Q49.3125 31 46.7812 31
Q45.1719 31 44.0938 32.0312
Q43.0156 33.0625 43.0156 34.625
Q43.0156 36.7188 44.4531 38.2969
Q45.9062 39.8906 47.9062 40.1875
Q46.0938 41.6094 42.9219 41.6094
Q39.7031 41.6094 37.3281 38.625
Q34.9688 35.6406 33.9844 31.9844
L29.5938 14.3125
Q28.5156 10.2969 28.5156 7.71875
Q28.5156 5.17188 29.9531 3.34375
Q31.3906 1.51562 33.7969 1.51562
Q38.4844 1.51562 42.1562 5.64062
Q45.8438 9.76562 47.0156 14.7031
Q47.2188 15.2812 47.7969 15.2812
L49.0312 15.2812
Q49.4219 15.2812 49.6562 15.0156
Q49.9062 14.75 49.9062 14.4062
Q49.9062 14.3125 49.8125 14.1094
Q48.3906 8.15625 43.8438 3.51562
Q39.3125 -1.125 33.5938 -1.125
Q29.9375 -1.125 26.9844 0.84375
Q24.0312 2.82812 22.7969 6.20312
Q21.2344 3.26562 18.4688 1.0625
Q15.7188 -1.125 12.5938 -1.125
Q10.4531 -1.125 8.17188 -0.359375
Q5.90625 0.390625 4.48438 1.95312
Q3.07812 3.51562 3.07812 5.90625
Q3.07812 8.25 4.70312 10.1719
Q6.34375 12.1094 8.79688 12.1094
Q10.4531 12.1094 11.5781 11.1094
Q12.7031 10.1094 12.7031 8.5
Q12.7031 6.39062 11.2969 4.82812
Q9.90625 3.26562 7.8125 2.875" id="Cmmi10-78"/>
     </defs>
     <g transform="translate(244.3395 338.341875)scale(0.12 -0.12)">
      <use transform="translate(0.0 0.8125)" xlink:href="#Cmmi10-78"/>
     </g>
    </g>
   </g>
   <g id="matplotlib.axis_2">
    <g id="ytick_1">
     <g id="line2d_19">
      <defs>
       <path d="
M0 0
L4 0" id="m728421d6d4" style="stroke:#000000;stroke-width:0.5;"/>
      </defs>
      <g>
       <use style="stroke:#000000;stroke-width:0.5;" x="71.2125" xlink:href="#m728421d6d4" y="308.61"/>
      </g>
     </g>
     <g id="line2d_20">
      <defs>
       <path d="
M0 0
L-4 0" id="mcb0005524f" style="stroke:#000000;stroke-width:0.5;"/>
      </defs>
      <g>
       <use style="stroke:#000000;stroke-width:0.5;" x="424.4265" xlink:href="#mcb0005524f" y="308.61"/>
      </g>
     </g>
     <g id="text_11">
      <!-- 0 -->
      <g transform="translate(61.165625 311.92125)scale(0.12 -0.12)">
       <use xlink:href="#BitstreamVeraSans-Roman-30"/>
      </g>
     </g>
    </g>
    <g id="ytick_2">
     <g id="line2d_21">
      <g>
       <use style="stroke:#000000;stroke-width:0.5;" x="71.2125" xlink:href="#m728421d6d4" y="266.406923077"/>
      </g>
     </g>
     <g id="line2d_22">
      <g>
       <use style="stroke:#000000;stroke-width:0.5;" x="424.4265" xlink:href="#mcb0005524f" y="266.406923077"/>
      </g>
     </g>
     <g id="text_12">
      <!-- 1 -->
      <g transform="translate(62.00375 269.718173077)scale(0.12 -0.12)">
       <use xlink:href="#BitstreamVeraSans-Roman-31"/>
      </g>
     </g>
    </g>
    <g id="ytick_3">
     <g id="line2d_23">
      <g>
       <use style="stroke:#000000;stroke-width:0.5;" x="71.2125" xlink:href="#m728421d6d4" y="224.203846154"/>
      </g>
     </g>
     <g id="line2d_24">
      <g>
       <use style="stroke:#000000;stroke-width:0.5;" x="424.4265" xlink:href="#mcb0005524f" y="224.203846154"/>
      </g>
     </g>
     <g id="text_13">
      <!-- 2 -->
      <g transform="translate(61.65875 227.515096154)scale(0.12 -0.12)">
       <use xlink:href="#BitstreamVeraSans-Roman-32"/>
      </g>
     </g>
    </g>
    <g id="ytick_4">
     <g id="line2d_25">
      <g>
       <use style="stroke:#000000;stroke-width:0.5;" x="71.2125" xlink:href="#m728421d6d4" y="182.000769231"/>
      </g>
     </g>
     <g id="line2d_26">
      <g>
       <use style="stroke:#000000;stroke-width:0.5;" x="424.4265" xlink:href="#mcb0005524f" y="182.000769231"/>
      </g>
     </g>
     <g id="text_14">
      <!-- 3 -->
      <g transform="translate(61.454375 185.312019231)scale(0.12 -0.12)">
       <use xlink:href="#BitstreamVeraSans-Roman-33"/>
      </g>
     </g>
    </g>
    <g id="ytick_5">
     <g id="line2d_27">
      <g>
       <use style="stroke:#000000;stroke-width:0.5;" x="71.2125" xlink:href="#m728421d6d4" y="139.797692308"/>
      </g>
     </g>
     <g id="line2d_28">
      <g>
       <use style="stroke:#000000;stroke-width:0.5;" x="424.4265" xlink:href="#mcb0005524f" y="139.797692308"/>
      </g>
     </g>
     <g id="text_15">
      <!-- 4 -->
      <g transform="translate(60.8375 143.108942308)scale(0.12 -0.12)">
       <use xlink:href="#BitstreamVeraSans-Roman-34"/>
      </g>
     </g>
    </g>
    <g id="ytick_6">
     <g id="line2d_29">
      <g>
       <use style="stroke:#000000;stroke-width:0.5;" x="71.2125" xlink:href="#m728421d6d4" y="97.5946153846"/>
      </g>
     </g>
     <g id="line2d_30">
      <g>
       <use style="stroke:#000000;stroke-width:0.5;" x="424.4265" xlink:href="#mcb0005524f" y="97.5946153846"/>
      </g>
     </g>
     <g id="text_16">
      <!-- 5 -->
      <g transform="translate(61.551875 100.905865385)scale(0.12 -0.12)">
       <use xlink:href="#BitstreamVeraSans-Roman-35"/>
      </g>
     </g>
    </g>
    <g id="ytick_7">
     <g id="line2d_31">
      <g>
       <use style="stroke:#000000;stroke-width:0.5;" x="71.2125" xlink:href="#m728421d6d4" y="55.3915384615"/>
      </g>
     </g>
     <g id="line2d_32">
      <g>
       <use style="stroke:#000000;stroke-width:0.5;" x="424.4265" xlink:href="#mcb0005524f" y="55.3915384615"/>
      </g>
     </g>
     <g id="text_17">
      <!-- 6 -->
      <g transform="translate(61.17125 58.7027884615)scale(0.12 -0.12)">
       <use xlink:href="#BitstreamVeraSans-Roman-36"/>
      </g>
     </g>
    </g>
    <g id="text_18">
     <!-- $y$ -->
     <defs>
      <path d="
M8.40625 -14.3125
Q10.5 -17.9219 15.7188 -17.9219
Q20.4531 -17.9219 23.9219 -14.5938
Q27.3906 -11.2812 29.5156 -6.5625
Q31.6406 -1.85938 32.8125 3.07812
Q28.375 -1.125 23.1875 -1.125
Q19.2344 -1.125 16.4531 0.234375
Q13.6719 1.60938 12.125 4.3125
Q10.5938 7.03125 10.5938 10.8906
Q10.5938 14.1562 11.4688 17.5938
Q12.3594 21.0469 13.9375 25.2656
Q15.5312 29.5 16.7031 32.625
Q18.0156 36.2812 18.0156 38.625
Q18.0156 41.6094 15.8281 41.6094
Q11.8594 41.6094 9.29688 37.5312
Q6.73438 33.4531 5.51562 28.4219
Q5.32812 27.7812 4.6875 27.7812
L3.51562 27.7812
Q2.6875 27.7812 2.6875 28.7188
L2.6875 29
Q4.29688 34.9688 7.60938 39.5781
Q10.9375 44.1875 16.0156 44.1875
Q19.5781 44.1875 22.0469 41.8438
Q24.5156 39.5 24.5156 35.8906
Q24.5156 34.0312 23.6875 31.9844
Q23.25 30.7656 21.6875 26.6562
Q20.125 22.5625 19.2812 19.875
Q18.4531 17.1875 17.9219 14.5938
Q17.3906 12.0156 17.3906 9.42188
Q17.3906 6.10938 18.7969 3.8125
Q20.2188 1.51562 23.2969 1.51562
Q29.5 1.51562 34.4219 9.07812
L42 39.8906
Q42.3281 41.2188 43.5469 42.1562
Q44.7812 43.1094 46.1875 43.1094
Q47.4062 43.1094 48.3125 42.3281
Q49.2188 41.5469 49.2188 40.2812
Q49.2188 39.7031 49.125 39.5
L39.2031 -0.296875
Q37.8906 -5.42188 34.375 -10.1094
Q30.8594 -14.7969 25.9062 -17.6562
Q20.9531 -20.5156 15.5781 -20.5156
Q12.9844 -20.5156 10.4375 -19.5
Q7.90625 -18.5 6.34375 -16.5
Q4.78125 -14.5 4.78125 -11.8125
Q4.78125 -9.07812 6.39062 -7.07812
Q8.01562 -5.07812 10.6875 -5.07812
Q12.3125 -5.07812 13.4062 -6.07812
Q14.5 -7.07812 14.5 -8.6875
Q14.5 -10.9844 12.7812 -12.6875
Q11.0781 -14.4062 8.79688 -14.4062
Q8.6875 -14.3594 8.59375 -14.3281
Q8.5 -14.3125 8.40625 -14.3125" id="Cmmi10-79"/>
     </defs>
     <g transform="translate(53.3175 174.45)rotate(-90.0)scale(0.12 -0.12)">
      <use transform="translate(0.0 0.8125)" xlink:href="#Cmmi10-79"/>
     </g>
    </g>
   </g>
   <g id="patch_3">
    <path d="
M71.2125 34.29
L424.426 34.29" style="fill:none;stroke:#000000;"/>
   </g>
   <g id="patch_4">
    <path d="
M424.426 308.61
L424.426 34.29" style="fill:none;stroke:#000000;"/>
   </g>
   <g id="patch_5">
    <path d="
M71.2125 308.61
L424.426 308.61" style="fill:none;stroke:#000000;"/>
   </g>
   <g id="patch_6">
    <path d="
M71.2125 308.61
L71.2125 34.29" style="fill:none;stroke:#000000;"/>
   </g>
  </g>
  <g id="axes_2">
   <g id="patch_7">
    <path clip-path="url(#p6b86b89dcd)" d="
M446.502 308.61
L446.502 281.178
L446.502 61.722
L446.502 34.29
L460.218 34.29
L460.218 61.722
L460.218 281.178
L460.218 308.61
z
" style="fill:#ffffff;stroke:#ffffff;stroke-width:0.01;"/>
   </g>
   <g id="QuadMesh_1">
    <defs>
     <path d="
M446.502 -34.29
L460.218 -34.29
L460.218 -61.722
L446.502 -61.722
L446.502 -34.29" id="Ca_0_f7ce09b7b8"/>
     <path d="
M446.502 -61.722
L460.218 -61.722
L460.218 -89.154
L446.502 -89.154
L446.502 -61.722" id="Ca_1_cb8e36622c"/>
     <path d="
M446.502 -89.154
L460.218 -89.154
L460.218 -116.586
L446.502 -116.586
L446.502 -89.154" id="Ca_2_856b9ceff2"/>
     <path d="
M446.502 -116.586
L460.218 -116.586
L460.218 -144.018
L446.502 -144.018
L446.502 -116.586" id="Ca_3_fcb3a6f1a7"/>
     <path d="
M446.502 -144.018
L460.218 -144.018
L460.218 -171.45
L446.502 -171.45
L446.502 -144.018" id="Ca_4_2b62caaa37"/>
     <path d="
M446.502 -171.45
L460.218 -171.45
L460.218 -198.882
L446.502 -198.882
L446.502 -171.45" id="Ca_5_ad130f4954"/>
     <path d="
M446.502 -198.882
L460.218 -198.882
L460.218 -226.314
L446.502 -226.314
L446.502 -198.882" id="Ca_6_7fa97fb4da"/>
     <path d="
M446.502 -226.314
L460.218 -226.314
L460.218 -253.746
L446.502 -253.746
L446.502 -226.314" id="Ca_7_b5aeb846a2"/>
     <path d="
M446.502 -253.746
L460.218 -253.746
L460.218 -281.178
L446.502 -281.178
L446.502 -253.746" id="Ca_8_8f65c38d5c"/>
     <path d="
M446.502 -281.178
L460.218 -281.178
L460.218 -308.61
L446.502 -308.61
L446.502 -281.178" id="Ca_9_083c58ab12"/>
    </defs>
    <g clip-path="url(#p6b86b89dcd)">
     <use style="fill:#0c0c0c;" x="0.0" xlink:href="#Ca_0_f7ce09b7b8" y="342.9"/>
    </g>
    <g clip-path="url(#p6b86b89dcd)">
     <use style="fill:#262626;" x="0.0" xlink:href="#Ca_1_cb8e36622c" y="342.9"/>
    </g>
    <g clip-path="url(#p6b86b89dcd)">
     <use style="fill:#404040;" x="0.0" xlink:href="#Ca_2_856b9ceff2" y="342.9"/>
    </g>
    <g clip-path="url(#p6b86b89dcd)">
     <use style="fill:#595959;" x="0.0" xlink:href="#Ca_3_fcb3a6f1a7" y="342.9"/>
    </g>
    <g clip-path="url(#p6b86b89dcd)">
     <use style="fill:#737373;" x="0.0" xlink:href="#Ca_4_2b62caaa37" y="342.9"/>
    </g>
    <g clip-path="url(#p6b86b89dcd)">
     <use style="fill:#8c8c8c;" x="0.0" xlink:href="#Ca_5_ad130f4954" y="342.9"/>
    </g>
    <g clip-path="url(#p6b86b89dcd)">
     <use style="fill:#a6a6a6;" x="0.0" xlink:href="#Ca_6_7fa97fb4da" y="342.9"/>
    </g>
    <g clip-path="url(#p6b86b89dcd)">
     <use style="fill:#c0c0c0;" x="0.0" xlink:href="#Ca_7_b5aeb846a2" y="342.9"/>
    </g>
    <g clip-path="url(#p6b86b89dcd)">
     <use style="fill:#d9d9d9;" x="0.0" xlink:href="#Ca_8_8f65c38d5c" y="342.9"/>
    </g>
    <g clip-path="url(#p6b86b89dcd)">
     <use style="fill:#f3f3f3;" x="0.0" xlink:href="#Ca_9_083c58ab12" y="342.9"/>
    </g>
   </g>
   <g id="line2d_33">
    <path d="
M446.502 308.61
L446.502 281.178
L446.502 61.722
L446.502 34.29
L460.218 34.29
L460.218 61.722
L460.218 281.178
L460.218 308.61
L446.502 308.61" style="fill:none;stroke:#000000;stroke-linecap:square;"/>
   </g>
   <g id="matplotlib.axis_3"/>
   <g id="matplotlib.axis_4">
    <g id="ytick_8">
     <g id="line2d_34">
      <g>
       <use style="stroke:#000000;stroke-width:0.5;" x="460.218375" xlink:href="#mcb0005524f" y="308.61"/>
      </g>
     </g>
     <g id="text_19">
      <!-- 2.0 -->
      <defs>
       <path d="
M10.5938 35.5
L73.1875 35.5
L73.1875 27.2031
L10.5938 27.2031
z
" id="BitstreamVeraSans-Roman-2212"/>
       <path d="
M10.6875 12.4062
L21 12.4062
L21 0
L10.6875 0
z
" id="BitstreamVeraSans-Roman-2e"/>
      </defs>
      <g transform="translate(464.218375 311.92125)scale(0.12 -0.12)">
       <use xlink:href="#BitstreamVeraSans-Roman-2212"/>
       <use x="83.7890625" xlink:href="#BitstreamVeraSans-Roman-32"/>
       <use x="147.412109375" xlink:href="#BitstreamVeraSans-Roman-2e"/>
       <use x="179.19921875" xlink:href="#BitstreamVeraSans-Roman-30"/>
      </g>
     </g>
    </g>
    <g id="ytick_9">
     <g id="line2d_35">
      <g>
       <use style="stroke:#000000;stroke-width:0.5;" x="460.218375" xlink:href="#mcb0005524f" y="253.746"/>
      </g>
     </g>
     <g id="text_20">
      <!-- 1.6 -->
      <g transform="translate(464.218375 257.05725)scale(0.12 -0.12)">
       <use xlink:href="#BitstreamVeraSans-Roman-2212"/>
       <use x="83.7890625" xlink:href="#BitstreamVeraSans-Roman-31"/>
       <use x="147.412109375" xlink:href="#BitstreamVeraSans-Roman-2e"/>
       <use x="179.19921875" xlink:href="#BitstreamVeraSans-Roman-36"/>
      </g>
     </g>
    </g>
    <g id="ytick_10">
     <g id="line2d_36">
      <g>
       <use style="stroke:#000000;stroke-width:0.5;" x="460.218375" xlink:href="#mcb0005524f" y="198.882"/>
      </g>
     </g>
     <g id="text_21">
      <!-- 1.2 -->
      <g transform="translate(464.218375 202.19325)scale(0.12 -0.12)">
       <use xlink:href="#BitstreamVeraSans-Roman-2212"/>
       <use x="83.7890625" xlink:href="#BitstreamVeraSans-Roman-31"/>
       <use x="147.412109375" xlink:href="#BitstreamVeraSans-Roman-2e"/>
       <use x="179.19921875" xlink:href="#BitstreamVeraSans-Roman-32"/>
      </g>
     </g>
    </g>
    <g id="ytick_11">
     <g id="line2d_37">
      <g>
       <use style="stroke:#000000;stroke-width:0.5;" x="460.218375" xlink:href="#mcb0005524f" y="144.018"/>
      </g>
     </g>
     <g id="text_22">
      <!-- 0.8 -->
      <g transform="translate(464.218375 147.32925)scale(0.12 -0.12)">
       <use xlink:href="#BitstreamVeraSans-Roman-2212"/>
       <use x="83.7890625" xlink:href="#BitstreamVeraSans-Roman-30"/>
       <use x="147.412109375" xlink:href="#BitstreamVeraSans-Roman-2e"/>
       <use x="179.19921875" xlink:href="#BitstreamVeraSans-Roman-38"/>
      </g>
     </g>
    </g>
    <g id="ytick_12">
     <g id="line2d_38">
      <g>
       <use style="stroke:#000000;stroke-width:0.5;" x="460.218375" xlink:href="#mcb0005524f" y="89.154"/>
      </g>
     </g>
     <g id="text_23">
      <!-- 0.4 -->
      <g transform="translate(464.218375 92.46525)scale(0.12 -0.12)">
       <use xlink:href="#BitstreamVeraSans-Roman-2212"/>
       <use x="83.7890625" xlink:href="#BitstreamVeraSans-Roman-30"/>
       <use x="147.412109375" xlink:href="#BitstreamVeraSans-Roman-2e"/>
       <use x="179.19921875" xlink:href="#BitstreamVeraSans-Roman-34"/>
      </g>
     </g>
    </g>
    <g id="ytick_13">
     <g id="line2d_39">
      <g>
       <use style="stroke:#000000;stroke-width:0.5;" x="460.218375" xlink:href="#mcb0005524f" y="34.29"/>
      </g>
     </g>
     <g id="text_24">
      <!-- 0.0 -->
      <g transform="translate(464.218375 37.60125)scale(0.12 -0.12)">
       <use xlink:href="#BitstreamVeraSans-Roman-30"/>
       <use x="63.623046875" xlink:href="#BitstreamVeraSans-Roman-2e"/>
       <use x="95.41015625" xlink:href="#BitstreamVeraSans-Roman-30"/>
      </g>
     </g>
    </g>
   </g>
  </g>
 </g>
 <defs>
  <clipPath id="p6b86b89dcd">
   <rect height="274.32" width="13.716" x="446.502375" y="34.29"/>
  </clipPath>
  <clipPath id="p19a6ccf3d9">
   <rect height="274.32" width="353.214" x="71.2125" y="34.29"/>
  </clipPath>
 </defs>
</svg>
