<?xml version="1.0" encoding="utf-8" standalone="no"?>
<!DOCTYPE svg PUBLIC "-//W3C//DTD SVG 1.1//EN"
  "http://www.w3.org/Graphics/SVG/1.1/DTD/svg11.dtd">
<!-- Created with matplotlib (http://matplotlib.org/) -->
<svg height="432pt" version="1.1" viewBox="0 0 576 432" width="576pt" xmlns="http://www.w3.org/2000/svg" xmlns:xlink="http://www.w3.org/1999/xlink">
 <defs>
  <style type="text/css">
*{stroke-linecap:butt;stroke-linejoin:round;}
  </style>
 </defs>
 <g id="figure_1">
  <g id="patch_1">
   <path d="
M0 432
L576 432
L576 0
L0 0
z
" style="fill:#ffffff;"/>
  </g>
  <g id="axes_1">
   <g id="patch_2">
    <path d="
M72 388.8
L429.12 388.8
L429.12 43.2
L72 43.2
z
" style="fill:#ffffff;"/>
   </g>
   <g id="PathCollection_1">
    <defs>
     <path d="
M328.534 -161.316
L328.368 -165.691
L329.316 -170.066
L329.669 -170.817
L332.26 -174.441
L334.189 -176.181
L338.71 -177.915
L343.23 -177.341
L347.698 -174.441
L347.751 -174.388
L350.214 -170.066
L351.329 -165.691
L351.134 -161.316
L349.616 -156.942
L347.751 -154.117
L345.928 -152.567
L343.23 -150.977
L338.71 -150.449
L334.189 -152.048
L333.555 -152.567
L329.897 -156.942
L329.669 -157.459
L328.534 -161.316" id="C0_0_0e27a33efb"/>
    </defs>
    <g clip-path="url(#pbb64507b19)">
     <use style="fill:#0c0c0c;" x="0.0" xlink:href="#C0_0_0e27a33efb" y="432.0"/>
    </g>
   </g>
   <g id="PathCollection_2">
    <defs>
     <path d="
M324.024 -156.942
L323.092 -161.316
L322.972 -165.691
L323.657 -170.066
L325.148 -174.328
L325.199 -174.441
L328.252 -178.815
L329.669 -180.294
L334.07 -183.19
L334.189 -183.254
L338.71 -184.317
L343.23 -183.966
L345.223 -183.19
L347.751 -182.011
L351.464 -178.815
L352.271 -177.876
L354.371 -174.441
L356.045 -170.066
L356.792 -165.694
L356.792 -165.691
L356.792 -165.677
L356.661 -161.316
L355.643 -156.942
L353.673 -152.567
L352.271 -150.485
L350.088 -148.192
L347.751 -146.321
L343.23 -144.35
L338.71 -143.965
L334.189 -145.129
L329.669 -147.954
L329.424 -148.192
L325.985 -152.567
L325.148 -154.169
L324.024 -156.942
M328.534 -161.316
L329.669 -157.459
L329.897 -156.942
L333.555 -152.567
L334.189 -152.048
L338.71 -150.449
L343.23 -150.977
L345.928 -152.567
L347.751 -154.117
L349.616 -156.942
L351.134 -161.316
L351.329 -165.691
L350.214 -170.066
L347.751 -174.388
L347.698 -174.441
L343.23 -177.341
L338.71 -177.915
L334.189 -176.181
L332.26 -174.441
L329.669 -170.817
L329.316 -170.066
L328.368 -165.691
L328.534 -161.316" id="C1_0_9fc122725c"/>
    </defs>
    <g clip-path="url(#pbb64507b19)">
     <use style="fill:#262626;" x="0.0" xlink:href="#C1_0_9fc122725c" y="432.0"/>
    </g>
   </g>
   <g id="PathCollection_3">
    <defs>
     <path d="
M319.25 -156.942
L318.514 -161.316
L318.419 -165.691
L318.96 -170.066
L320.17 -174.441
L320.628 -175.51
L322.291 -178.815
L325.148 -182.82
L325.501 -183.19
L329.669 -186.679
L331.383 -187.565
L334.189 -188.836
L338.71 -189.698
L343.23 -189.413
L347.751 -187.954
L348.424 -187.565
L352.271 -184.988
L354.103 -183.19
L356.792 -179.824
L357.432 -178.815
L359.471 -174.441
L360.732 -170.066
L361.295 -165.691
L361.196 -161.316
L360.43 -156.942
L358.946 -152.567
L356.792 -148.447
L356.627 -148.192
L352.832 -143.818
L352.271 -143.298
L347.751 -140.386
L345.008 -139.443
L343.23 -138.89
L338.71 -138.608
L334.274 -139.443
L334.189 -139.46
L329.669 -141.655
L326.933 -143.818
L325.148 -145.552
L323.123 -148.192
L320.679 -152.567
L320.628 -152.704
L319.25 -156.942
M324.024 -156.942
L325.148 -154.169
L325.985 -152.567
L329.424 -148.192
L329.669 -147.954
L334.189 -145.129
L338.71 -143.965
L343.23 -144.35
L347.751 -146.321
L350.088 -148.192
L352.271 -150.485
L353.673 -152.567
L355.643 -156.942
L356.661 -161.316
L356.792 -165.677
L356.792 -165.691
L356.792 -165.694
L356.045 -170.066
L354.371 -174.441
L352.271 -177.876
L351.464 -178.815
L347.751 -182.011
L345.223 -183.19
L343.23 -183.966
L338.71 -184.317
L334.189 -183.254
L334.07 -183.19
L329.669 -180.294
L328.252 -178.815
L325.199 -174.441
L325.148 -174.328
L323.657 -170.066
L322.972 -165.691
L323.092 -161.316
L324.024 -156.942" id="C2_0_3f4effeb96"/>
    </defs>
    <g clip-path="url(#pbb64507b19)">
     <use style="fill:#404040;" x="0.0" xlink:href="#C2_0_3f4effeb96" y="432.0"/>
    </g>
   </g>
   <g id="PathCollection_4">
    <defs>
     <path d="
M316.03 -152.567
L314.84 -156.942
L314.225 -161.316
L314.146 -165.691
L314.598 -170.066
L315.609 -174.441
L316.107 -175.829
L317.274 -178.815
L319.706 -183.19
L320.628 -184.482
L323.324 -187.565
L325.148 -189.282
L329.074 -191.939
L329.669 -192.299
L334.189 -194.047
L338.71 -194.767
L343.23 -194.529
L347.751 -193.31
L350.499 -191.939
L352.271 -190.965
L356.408 -187.565
L356.792 -187.187
L359.954 -183.19
L361.312 -180.931
L362.416 -178.815
L364.059 -174.441
L365.075 -170.066
L365.528 -165.691
L365.449 -161.316
L364.831 -156.942
L363.636 -152.567
L361.786 -148.192
L361.312 -147.348
L359.017 -143.818
L356.792 -141.161
L354.931 -139.443
L352.271 -137.357
L347.878 -135.068
L347.751 -135.007
L343.23 -133.787
L338.71 -133.549
L334.189 -134.269
L332.063 -135.068
L329.669 -136.031
L325.148 -139.019
L324.677 -139.443
L320.628 -143.789
L320.606 -143.818
L317.918 -148.192
L316.107 -152.371
L316.03 -152.567
M319.25 -156.942
L320.628 -152.704
L320.679 -152.567
L323.123 -148.192
L325.148 -145.552
L326.933 -143.818
L329.669 -141.655
L334.189 -139.46
L334.274 -139.443
L338.71 -138.608
L343.23 -138.89
L345.008 -139.443
L347.751 -140.386
L352.271 -143.298
L352.832 -143.818
L356.627 -148.192
L356.792 -148.447
L358.946 -152.567
L360.43 -156.942
L361.196 -161.316
L361.295 -165.691
L360.732 -170.066
L359.471 -174.441
L357.432 -178.815
L356.792 -179.824
L354.103 -183.19
L352.271 -184.988
L348.424 -187.565
L347.751 -187.954
L343.23 -189.413
L338.71 -189.698
L334.189 -188.836
L331.383 -187.565
L329.669 -186.679
L325.501 -183.19
L325.148 -182.82
L322.291 -178.815
L320.628 -175.51
L320.17 -174.441
L318.96 -170.066
L318.419 -165.691
L318.514 -161.316
L319.25 -156.942" id="C3_0_4491910e14"/>
    </defs>
    <g clip-path="url(#pbb64507b19)">
     <use style="fill:#595959;" x="0.0" xlink:href="#C3_0_4491910e14" y="432.0"/>
    </g>
   </g>
   <g id="PathCollection_5">
    <defs>
     <path d="
M311.499 -152.567
L310.471 -156.942
L309.939 -161.316
L309.871 -165.691
L310.261 -170.066
L311.135 -174.441
L311.587 -175.896
L312.514 -178.815
L314.489 -183.19
L316.107 -185.894
L317.242 -187.565
L320.628 -191.539
L321.054 -191.939
L325.148 -195.264
L326.983 -196.314
L329.669 -197.746
L334.189 -199.227
L338.71 -199.837
L343.23 -199.635
L347.751 -198.602
L352.271 -196.637
L352.788 -196.314
L356.792 -193.585
L358.594 -191.939
L361.312 -189.026
L362.447 -187.565
L365.184 -183.19
L365.833 -181.834
L367.176 -178.815
L368.555 -174.441
L369.406 -170.066
L369.787 -165.691
L369.72 -161.316
L369.202 -156.942
L368.2 -152.567
L366.647 -148.192
L365.833 -146.489
L364.45 -143.818
L361.452 -139.443
L361.312 -139.272
L357.176 -135.068
L356.792 -134.732
L352.271 -131.683
L350.04 -130.694
L347.751 -129.721
L343.23 -128.675
L338.71 -128.471
L334.189 -129.089
L329.669 -130.588
L329.464 -130.694
L325.148 -133.051
L322.564 -135.068
L320.628 -136.79
L318.26 -139.443
L316.107 -142.417
L315.22 -143.818
L313.037 -148.192
L311.587 -152.31
L311.499 -152.567
M316.03 -152.567
L316.107 -152.371
L317.918 -148.192
L320.606 -143.818
L320.628 -143.789
L324.677 -139.443
L325.148 -139.019
L329.669 -136.031
L332.063 -135.068
L334.189 -134.269
L338.71 -133.549
L343.23 -133.787
L347.751 -135.007
L347.878 -135.068
L352.271 -137.357
L354.931 -139.443
L356.792 -141.161
L359.017 -143.818
L361.312 -147.348
L361.786 -148.192
L363.636 -152.567
L364.831 -156.942
L365.449 -161.316
L365.528 -165.691
L365.075 -170.066
L364.059 -174.441
L362.416 -178.815
L361.312 -180.931
L359.954 -183.19
L356.792 -187.187
L356.408 -187.565
L352.271 -190.965
L350.499 -191.939
L347.751 -193.31
L343.23 -194.529
L338.71 -194.767
L334.189 -194.047
L329.669 -192.299
L329.074 -191.939
L325.148 -189.282
L323.324 -187.565
L320.628 -184.482
L319.706 -183.19
L317.274 -178.815
L316.107 -175.829
L315.609 -174.441
L314.598 -170.066
L314.146 -165.691
L314.225 -161.316
L314.84 -156.942
L316.03 -152.567" id="C4_0_44f706fef0"/>
    </defs>
    <g clip-path="url(#pbb64507b19)">
     <use style="fill:#737373;" x="0.0" xlink:href="#C4_0_44f706fef0" y="432.0"/>
    </g>
   </g>
   <g id="PathCollection_6">
    <defs>
     <path d="
M306.779 -152.567
L305.879 -156.942
L305.414 -161.316
L305.354 -165.691
L305.695 -170.066
L306.46 -174.441
L307.066 -176.648
L307.643 -178.815
L309.282 -183.19
L311.542 -187.565
L311.587 -187.638
L314.483 -191.939
L316.107 -193.901
L318.472 -196.314
L320.628 -198.239
L324.208 -200.689
L325.148 -201.292
L329.669 -203.402
L334.189 -204.652
L337.784 -205.063
L338.71 -205.176
L341.465 -205.063
L343.23 -204.996
L347.751 -204.124
L352.271 -202.465
L355.443 -200.689
L356.792 -199.895
L361.239 -196.314
L361.312 -196.248
L365.191 -191.939
L365.833 -191.075
L368.158 -187.565
L370.353 -183.208
L370.362 -183.19
L372.065 -178.815
L373.241 -174.441
L373.967 -170.066
L374.292 -165.691
L374.235 -161.316
L373.793 -156.942
L372.938 -152.567
L371.614 -148.192
L370.353 -145.18
L369.77 -143.818
L367.356 -139.443
L365.833 -137.249
L364.124 -135.068
L361.312 -132.067
L359.725 -130.694
L356.792 -128.413
L353.085 -126.319
L352.271 -125.877
L347.751 -124.179
L343.23 -123.287
L338.71 -123.113
L334.189 -123.64
L329.669 -124.919
L326.648 -126.319
L325.148 -127.03
L320.628 -130.089
L319.927 -130.694
L316.107 -134.415
L315.545 -135.068
L312.336 -139.443
L311.587 -140.717
L309.888 -143.818
L308.077 -148.192
L307.066 -151.617
L306.779 -152.567
M311.499 -152.567
L311.587 -152.31
L313.037 -148.192
L315.22 -143.818
L316.107 -142.417
L318.26 -139.443
L320.628 -136.79
L322.564 -135.068
L325.148 -133.051
L329.464 -130.694
L329.669 -130.588
L334.189 -129.089
L338.71 -128.471
L343.23 -128.675
L347.751 -129.721
L350.04 -130.694
L352.271 -131.683
L356.792 -134.732
L357.176 -135.068
L361.312 -139.272
L361.452 -139.443
L364.45 -143.818
L365.833 -146.489
L366.647 -148.192
L368.2 -152.567
L369.202 -156.942
L369.72 -161.316
L369.787 -165.691
L369.406 -170.066
L368.555 -174.441
L367.176 -178.815
L365.833 -181.834
L365.184 -183.19
L362.447 -187.565
L361.312 -189.026
L358.594 -191.939
L356.792 -193.585
L352.788 -196.314
L352.271 -196.637
L347.751 -198.602
L343.23 -199.635
L338.71 -199.837
L334.189 -199.227
L329.669 -197.746
L326.983 -196.314
L325.148 -195.264
L321.054 -191.939
L320.628 -191.539
L317.242 -187.565
L316.107 -185.894
L314.489 -183.19
L312.514 -178.815
L311.587 -175.896
L311.135 -174.441
L310.261 -170.066
L309.871 -165.691
L309.939 -161.316
L310.471 -156.942
L311.499 -152.567" id="C5_0_f55f75db7d"/>
    </defs>
    <g clip-path="url(#pbb64507b19)">
     <use style="fill:#8c8c8c;" x="0.0" xlink:href="#C5_0_f55f75db7d" y="432.0"/>
    </g>
   </g>
   <g id="PathCollection_7">
    <defs>
     <path d="
M301.507 -152.567
L300.732 -156.942
L300.331 -161.316
L300.28 -165.691
L300.574 -170.066
L301.233 -174.441
L302.298 -178.815
L302.546 -179.565
L303.675 -183.19
L305.529 -187.565
L307.066 -190.377
L307.948 -191.939
L311.004 -196.314
L311.587 -197.032
L314.961 -200.689
L316.107 -201.782
L320.353 -205.063
L320.628 -205.263
L325.148 -207.872
L329.213 -209.438
L329.669 -209.619
L334.189 -210.771
L338.71 -211.246
L343.23 -211.089
L347.751 -210.285
L350.336 -209.438
L352.271 -208.833
L356.792 -206.693
L359.281 -205.063
L361.312 -203.67
L364.71 -200.689
L365.833 -199.586
L368.683 -196.314
L370.353 -194.016
L371.749 -191.939
L374.125 -187.565
L374.874 -185.812
L376.01 -183.19
L377.442 -178.815
L378.431 -174.441
L379.042 -170.066
L379.315 -165.691
L379.267 -161.316
L378.896 -156.942
L378.177 -152.567
L377.063 -148.192
L375.48 -143.818
L374.874 -142.497
L373.484 -139.443
L370.89 -135.068
L370.353 -134.301
L367.607 -130.694
L365.833 -128.725
L363.279 -126.319
L361.312 -124.644
L357.23 -121.944
L356.792 -121.665
L352.271 -119.455
L347.751 -118.052
L344.833 -117.57
L343.23 -117.28
L338.71 -117.117
L334.562 -117.57
L334.189 -117.606
L329.669 -118.663
L325.148 -120.447
L322.506 -121.944
L320.628 -123.031
L316.392 -126.319
L316.107 -126.56
L312.088 -130.694
L311.587 -131.294
L308.774 -135.068
L307.066 -137.938
L306.204 -139.443
L304.172 -143.818
L302.686 -148.192
L302.546 -148.748
L301.507 -152.567
M306.779 -152.567
L307.066 -151.617
L308.077 -148.192
L309.888 -143.818
L311.587 -140.717
L312.336 -139.443
L315.545 -135.068
L316.107 -134.415
L319.927 -130.694
L320.628 -130.089
L325.148 -127.03
L326.648 -126.319
L329.669 -124.919
L334.189 -123.64
L338.71 -123.113
L343.23 -123.287
L347.751 -124.179
L352.271 -125.877
L353.085 -126.319
L356.792 -128.413
L359.725 -130.694
L361.312 -132.067
L364.124 -135.068
L365.833 -137.249
L367.356 -139.443
L369.77 -143.818
L370.353 -145.18
L371.614 -148.192
L372.938 -152.567
L373.793 -156.942
L374.235 -161.316
L374.292 -165.691
L373.967 -170.066
L373.241 -174.441
L372.065 -178.815
L370.362 -183.19
L370.353 -183.208
L368.158 -187.565
L365.833 -191.075
L365.191 -191.939
L361.312 -196.248
L361.239 -196.314
L356.792 -199.895
L355.443 -200.689
L352.271 -202.465
L347.751 -204.124
L343.23 -204.996
L341.465 -205.063
L338.71 -205.176
L337.784 -205.063
L334.189 -204.652
L329.669 -203.402
L325.148 -201.292
L324.208 -200.689
L320.628 -198.239
L318.472 -196.314
L316.107 -193.901
L314.483 -191.939
L311.587 -187.638
L311.542 -187.565
L309.282 -183.19
L307.643 -178.815
L307.066 -176.648
L306.46 -174.441
L305.695 -170.066
L305.354 -165.691
L305.414 -161.316
L305.879 -156.942
L306.779 -152.567" id="C6_0_3cde8e6797"/>
    </defs>
    <g clip-path="url(#pbb64507b19)">
     <use style="fill:#a6a6a6;" x="0.0" xlink:href="#C6_0_3cde8e6797" y="432.0"/>
    </g>
   </g>
   <g id="PathCollection_8">
    <defs>
     <path d="
M297.449 -143.818
L296.083 -148.192
L295.122 -152.567
L294.502 -156.942
L294.181 -161.316
L294.14 -165.691
L294.375 -170.066
L294.903 -174.441
L295.756 -178.815
L296.991 -183.19
L298.025 -185.947
L298.584 -187.565
L300.499 -191.939
L302.546 -195.533
L302.992 -196.314
L305.97 -200.689
L307.066 -202.055
L309.717 -205.063
L311.587 -206.934
L314.549 -209.438
L316.107 -210.675
L320.628 -213.513
L321.253 -213.813
L325.148 -215.736
L329.669 -217.238
L334.189 -218.129
L334.896 -218.187
L338.71 -218.555
L343.23 -218.41
L344.63 -218.187
L347.751 -217.753
L352.271 -216.572
L356.792 -214.71
L358.408 -213.813
L361.312 -212.222
L365.124 -209.438
L365.833 -208.895
L369.937 -205.063
L370.353 -204.629
L373.706 -200.689
L374.874 -199.053
L376.737 -196.314
L379.112 -191.939
L379.394 -191.312
L381.149 -187.565
L382.697 -183.19
L383.819 -178.815
L383.915 -178.298
L384.746 -174.441
L385.333 -170.066
L385.596 -165.691
L385.55 -161.316
L385.193 -156.942
L384.502 -152.567
L383.915 -150.096
L383.521 -148.192
L382.282 -143.818
L380.586 -139.443
L379.394 -137.015
L378.47 -135.068
L375.88 -130.694
L374.874 -129.265
L372.683 -126.319
L370.353 -123.663
L368.643 -121.944
L365.833 -119.39
L363.375 -117.57
L361.312 -116.1
L356.792 -113.635
L355.691 -113.195
L352.271 -111.753
L347.751 -110.511
L343.23 -109.858
L338.71 -109.73
L334.189 -110.116
L329.669 -111.052
L325.148 -112.631
L323.981 -113.195
L320.628 -114.754
L316.295 -117.57
L316.107 -117.695
L311.587 -121.416
L311.044 -121.944
L307.066 -126.296
L307.047 -126.319
L303.797 -130.694
L302.546 -132.782
L301.191 -135.068
L299.101 -139.443
L298.025 -142.365
L297.449 -143.818
M301.507 -152.567
L302.546 -148.748
L302.686 -148.192
L304.172 -143.818
L306.204 -139.443
L307.066 -137.938
L308.774 -135.068
L311.587 -131.294
L312.088 -130.694
L316.107 -126.56
L316.392 -126.319
L320.628 -123.031
L322.506 -121.944
L325.148 -120.447
L329.669 -118.663
L334.189 -117.606
L334.562 -117.57
L338.71 -117.117
L343.23 -117.28
L344.833 -117.57
L347.751 -118.052
L352.271 -119.455
L356.792 -121.665
L357.23 -121.944
L361.312 -124.644
L363.279 -126.319
L365.833 -128.725
L367.607 -130.694
L370.353 -134.301
L370.89 -135.068
L373.484 -139.443
L374.874 -142.497
L375.48 -143.818
L377.063 -148.192
L378.177 -152.567
L378.896 -156.942
L379.267 -161.316
L379.315 -165.691
L379.042 -170.066
L378.431 -174.441
L377.442 -178.815
L376.01 -183.19
L374.874 -185.812
L374.125 -187.565
L371.749 -191.939
L370.353 -194.016
L368.683 -196.314
L365.833 -199.586
L364.71 -200.689
L361.312 -203.67
L359.281 -205.063
L356.792 -206.693
L352.271 -208.833
L350.336 -209.438
L347.751 -210.285
L343.23 -211.089
L338.71 -211.246
L334.189 -210.771
L329.669 -209.619
L329.213 -209.438
L325.148 -207.872
L320.628 -205.263
L320.353 -205.063
L316.107 -201.782
L314.961 -200.689
L311.587 -197.032
L311.004 -196.314
L307.948 -191.939
L307.066 -190.377
L305.529 -187.565
L303.675 -183.19
L302.546 -179.565
L302.298 -178.815
L301.233 -174.441
L300.574 -170.066
L300.28 -165.691
L300.331 -161.316
L300.732 -156.942
L301.507 -152.567" id="C7_0_86c31152a7"/>
    </defs>
    <g clip-path="url(#pbb64507b19)">
     <use style="fill:#c0c0c0;" x="0.0" xlink:href="#C7_0_86c31152a7" y="432.0"/>
    </g>
   </g>
   <g id="PathCollection_9">
    <defs>
     <path d="
M287.853 -143.818
L286.739 -148.192
L285.954 -152.567
L285.448 -156.942
L285.186 -161.316
L285.153 -165.691
L285.345 -170.066
L285.775 -174.441
L286.472 -178.815
L287.48 -183.19
L288.871 -187.565
L288.984 -187.859
L290.337 -191.939
L292.262 -196.314
L293.505 -198.608
L294.565 -200.689
L297.32 -205.063
L298.025 -206.038
L300.542 -209.438
L302.546 -211.751
L304.496 -213.813
L307.066 -216.28
L309.391 -218.187
L311.587 -219.923
L315.794 -222.562
L316.107 -222.763
L320.628 -225.164
L325.148 -226.822
L325.586 -226.937
L329.669 -228.171
L334.189 -228.988
L338.71 -229.325
L343.23 -229.213
L347.751 -228.643
L352.271 -227.559
L354.027 -226.937
L356.792 -226.073
L361.312 -224.071
L363.873 -222.562
L365.833 -221.449
L370.255 -218.187
L370.353 -218.113
L374.874 -214.077
L375.135 -213.813
L379.072 -209.438
L379.394 -209.031
L382.399 -205.063
L383.915 -202.606
L385.122 -200.689
L387.408 -196.314
L388.435 -193.838
L389.309 -191.939
L390.944 -187.565
L392.157 -183.19
L392.956 -179.242
L393.062 -178.815
L393.869 -174.441
L394.367 -170.066
L394.59 -165.691
L394.551 -161.316
L394.248 -156.942
L393.661 -152.567
L392.956 -149.123
L392.803 -148.192
L391.831 -143.818
L390.503 -139.443
L388.718 -135.068
L388.435 -134.479
L386.79 -130.694
L384.296 -126.319
L383.915 -125.732
L381.49 -121.944
L379.394 -119.251
L378.019 -117.57
L374.874 -114.204
L373.814 -113.195
L370.353 -110.133
L368.562 -108.82
L365.833 -106.848
L361.492 -104.446
L361.312 -104.342
L356.792 -102.204
L352.271 -100.752
L348.991 -100.071
L347.751 -99.767
L343.23 -99.1536
L338.71 -99.0338
L334.189 -99.3961
L330.677 -100.071
L329.669 -100.232
L325.148 -101.404
L320.628 -103.174
L318.219 -104.446
L316.107 -105.494
L311.587 -108.464
L311.128 -108.82
L307.066 -112.06
L305.857 -113.195
L302.546 -116.59
L301.677 -117.57
L298.271 -121.944
L298.025 -122.305
L295.307 -126.319
L293.505 -129.715
L292.956 -130.694
L290.857 -135.068
L289.286 -139.443
L288.984 -140.485
L287.853 -143.818
M297.449 -143.818
L298.025 -142.365
L299.101 -139.443
L301.191 -135.068
L302.546 -132.782
L303.797 -130.694
L307.047 -126.319
L307.066 -126.296
L311.044 -121.944
L311.587 -121.416
L316.107 -117.695
L316.295 -117.57
L320.628 -114.754
L323.981 -113.195
L325.148 -112.631
L329.669 -111.052
L334.189 -110.116
L338.71 -109.73
L343.23 -109.858
L347.751 -110.511
L352.271 -111.753
L355.691 -113.195
L356.792 -113.635
L361.312 -116.1
L363.375 -117.57
L365.833 -119.39
L368.643 -121.944
L370.353 -123.663
L372.683 -126.319
L374.874 -129.265
L375.88 -130.694
L378.47 -135.068
L379.394 -137.015
L380.586 -139.443
L382.282 -143.818
L383.521 -148.192
L383.915 -150.096
L384.502 -152.567
L385.193 -156.942
L385.55 -161.316
L385.596 -165.691
L385.333 -170.066
L384.746 -174.441
L383.915 -178.298
L383.819 -178.815
L382.697 -183.19
L381.149 -187.565
L379.394 -191.312
L379.112 -191.939
L376.737 -196.314
L374.874 -199.053
L373.706 -200.689
L370.353 -204.629
L369.937 -205.063
L365.833 -208.895
L365.124 -209.438
L361.312 -212.222
L358.408 -213.813
L356.792 -214.71
L352.271 -216.572
L347.751 -217.753
L344.63 -218.187
L343.23 -218.41
L338.71 -218.555
L334.896 -218.187
L334.189 -218.129
L329.669 -217.238
L325.148 -215.736
L321.253 -213.813
L320.628 -213.513
L316.107 -210.675
L314.549 -209.438
L311.587 -206.934
L309.717 -205.063
L307.066 -202.055
L305.97 -200.689
L302.992 -196.314
L302.546 -195.533
L300.499 -191.939
L298.584 -187.565
L298.025 -185.947
L296.991 -183.19
L295.756 -178.815
L294.903 -174.441
L294.375 -170.066
L294.14 -165.691
L294.181 -161.316
L294.502 -156.942
L295.122 -152.567
L296.083 -148.192
L297.449 -143.818" id="C8_0_96bea4d263"/>
    </defs>
    <g clip-path="url(#pbb64507b19)">
     <use style="fill:#d9d9d9;" x="0.0" xlink:href="#C8_0_96bea4d263" y="432.0"/>
    </g>
   </g>
   <g id="PathCollection_10">
    <defs>
     <path d="
M72 -43.2
L72 -47.5747
L72 -51.9494
L72 -56.3241
L72 -60.6987
L72 -65.0734
L72 -69.4481
L72 -73.8228
L72 -78.1975
L72 -82.5722
L72 -86.9468
L72 -91.3215
L72 -95.6962
L72 -100.071
L72 -104.446
L72 -108.82
L72 -113.195
L72 -117.57
L72 -121.944
L72 -126.319
L72 -130.694
L72 -135.068
L72 -139.443
L72 -143.818
L72 -148.192
L72 -152.567
L72 -156.942
L72 -161.316
L72 -165.691
L72 -170.066
L72 -174.441
L72 -178.815
L72 -183.19
L72 -187.565
L72 -191.939
L72 -196.314
L72 -200.689
L72 -205.063
L72 -209.438
L72 -213.813
L72 -218.187
L72 -222.562
L72 -226.937
L72 -231.311
L72 -235.686
L72 -240.061
L72 -244.435
L72 -248.81
L72 -253.185
L72 -257.559
L72 -261.934
L72 -266.309
L72 -270.684
L72 -275.058
L72 -279.433
L72 -283.808
L72 -288.182
L72 -292.557
L72 -296.932
L72 -301.306
L72 -305.681
L72 -310.056
L72 -314.43
L72 -318.805
L72 -323.18
L72 -327.554
L72 -331.929
L72 -336.304
L72 -340.678
L72 -345.053
L72 -349.428
L72 -353.803
L72 -358.177
L72 -362.552
L72 -366.927
L72 -371.301
L72 -375.676
L72 -380.051
L72 -384.425
L72 -388.8
L76.5205 -388.8
L81.041 -388.8
L85.5615 -388.8
L90.082 -388.8
L94.6025 -388.8
L99.123 -388.8
L103.644 -388.8
L108.164 -388.8
L112.685 -388.8
L117.205 -388.8
L121.726 -388.8
L126.246 -388.8
L130.767 -388.8
L135.287 -388.8
L139.808 -388.8
L144.328 -388.8
L148.849 -388.8
L153.369 -388.8
L157.89 -388.8
L162.41 -388.8
L166.931 -388.8
L171.451 -388.8
L175.972 -388.8
L180.492 -388.8
L185.013 -388.8
L189.533 -388.8
L194.054 -388.8
L198.574 -388.8
L203.095 -388.8
L207.615 -388.8
L212.136 -388.8
L216.656 -388.8
L221.177 -388.8
L225.697 -388.8
L230.218 -388.8
L234.738 -388.8
L239.259 -388.8
L243.779 -388.8
L248.3 -388.8
L252.82 -388.8
L257.341 -388.8
L261.861 -388.8
L266.382 -388.8
L270.902 -388.8
L275.423 -388.8
L279.943 -388.8
L284.464 -388.8
L288.984 -388.8
L293.505 -388.8
L298.025 -388.8
L302.546 -388.8
L307.066 -388.8
L311.587 -388.8
L316.107 -388.8
L320.628 -388.8
L325.148 -388.8
L329.669 -388.8
L334.189 -388.8
L338.71 -388.8
L343.23 -388.8
L347.751 -388.8
L352.271 -388.8
L356.792 -388.8
L361.312 -388.8
L365.833 -388.8
L370.353 -388.8
L374.874 -388.8
L379.394 -388.8
L383.915 -388.8
L388.435 -388.8
L392.956 -388.8
L397.476 -388.8
L401.997 -388.8
L406.517 -388.8
L411.038 -388.8
L415.558 -388.8
L420.079 -388.8
L424.599 -388.8
L429.12 -388.8
L429.12 -384.425
L429.12 -380.051
L429.12 -375.676
L429.12 -371.301
L429.12 -366.927
L429.12 -362.552
L429.12 -358.177
L429.12 -353.803
L429.12 -349.428
L429.12 -345.053
L429.12 -340.678
L429.12 -336.304
L429.12 -331.929
L429.12 -327.554
L429.12 -323.18
L429.12 -318.805
L429.12 -314.43
L429.12 -310.056
L429.12 -305.681
L429.12 -301.306
L429.12 -296.932
L429.12 -292.557
L429.12 -288.182
L429.12 -283.808
L429.12 -279.433
L429.12 -275.058
L429.12 -270.684
L429.12 -266.309
L429.12 -261.934
L429.12 -257.559
L429.12 -253.185
L429.12 -248.81
L429.12 -244.435
L429.12 -240.061
L429.12 -235.686
L429.12 -231.311
L429.12 -226.937
L429.12 -222.562
L429.12 -218.187
L429.12 -213.813
L429.12 -209.438
L429.12 -205.063
L429.12 -200.689
L429.12 -196.314
L429.12 -191.939
L429.12 -187.565
L429.12 -183.19
L429.12 -178.815
L429.12 -174.441
L429.12 -170.066
L429.12 -165.691
L429.12 -161.316
L429.12 -156.942
L429.12 -152.567
L429.12 -148.192
L429.12 -143.818
L429.12 -139.443
L429.12 -135.068
L429.12 -130.694
L429.12 -126.319
L429.12 -121.944
L429.12 -117.57
L429.12 -113.195
L429.12 -108.82
L429.12 -104.446
L429.12 -100.071
L429.12 -95.6962
L429.12 -91.3215
L429.12 -86.9468
L429.12 -82.5722
L429.12 -78.1975
L429.12 -73.8228
L429.12 -69.4481
L429.12 -65.0734
L429.12 -60.6987
L429.12 -56.3241
L429.12 -51.9494
L429.12 -47.5747
L429.12 -43.2
L424.599 -43.2
L420.079 -43.2
L415.558 -43.2
L411.038 -43.2
L406.517 -43.2
L401.997 -43.2
L397.476 -43.2
L392.956 -43.2
L388.435 -43.2
L383.915 -43.2
L379.394 -43.2
L374.874 -43.2
L370.353 -43.2
L365.833 -43.2
L361.312 -43.2
L356.792 -43.2
L352.271 -43.2
L347.751 -43.2
L343.23 -43.2
L338.71 -43.2
L334.189 -43.2
L329.669 -43.2
L325.148 -43.2
L320.628 -43.2
L316.107 -43.2
L311.587 -43.2
L307.066 -43.2
L302.546 -43.2
L298.025 -43.2
L293.505 -43.2
L288.984 -43.2
L284.464 -43.2
L279.943 -43.2
L275.423 -43.2
L270.902 -43.2
L266.382 -43.2
L261.861 -43.2
L257.341 -43.2
L252.82 -43.2
L248.3 -43.2
L243.779 -43.2
L239.259 -43.2
L234.738 -43.2
L230.218 -43.2
L225.697 -43.2
L221.177 -43.2
L216.656 -43.2
L212.136 -43.2
L207.615 -43.2
L203.095 -43.2
L198.574 -43.2
L194.054 -43.2
L189.533 -43.2
L185.013 -43.2
L180.492 -43.2
L175.972 -43.2
L171.451 -43.2
L166.931 -43.2
L162.41 -43.2
L157.89 -43.2
L153.369 -43.2
L148.849 -43.2
L144.328 -43.2
L139.808 -43.2
L135.287 -43.2
L130.767 -43.2
L126.246 -43.2
L121.726 -43.2
L117.205 -43.2
L112.685 -43.2
L108.164 -43.2
L103.644 -43.2
L99.123 -43.2
L94.6025 -43.2
L90.082 -43.2
L85.5615 -43.2
L81.041 -43.2
L76.5205 -43.2
L72 -43.2
M287.853 -143.818
L288.984 -140.485
L289.286 -139.443
L290.857 -135.068
L292.956 -130.694
L293.505 -129.715
L295.307 -126.319
L298.025 -122.305
L298.271 -121.944
L301.677 -117.57
L302.546 -116.59
L305.857 -113.195
L307.066 -112.06
L311.128 -108.82
L311.587 -108.464
L316.107 -105.494
L318.219 -104.446
L320.628 -103.174
L325.148 -101.404
L329.669 -100.232
L330.677 -100.071
L334.189 -99.3961
L338.71 -99.0338
L343.23 -99.1536
L347.751 -99.767
L348.991 -100.071
L352.271 -100.752
L356.792 -102.204
L361.312 -104.342
L361.492 -104.446
L365.833 -106.848
L368.562 -108.82
L370.353 -110.133
L373.814 -113.195
L374.874 -114.204
L378.019 -117.57
L379.394 -119.251
L381.49 -121.944
L383.915 -125.732
L384.296 -126.319
L386.79 -130.694
L388.435 -134.479
L388.718 -135.068
L390.503 -139.443
L391.831 -143.818
L392.803 -148.192
L392.956 -149.123
L393.661 -152.567
L394.248 -156.942
L394.551 -161.316
L394.59 -165.691
L394.367 -170.066
L393.869 -174.441
L393.062 -178.815
L392.956 -179.242
L392.157 -183.19
L390.944 -187.565
L389.309 -191.939
L388.435 -193.838
L387.408 -196.314
L385.122 -200.689
L383.915 -202.606
L382.399 -205.063
L379.394 -209.031
L379.072 -209.438
L375.135 -213.813
L374.874 -214.077
L370.353 -218.113
L370.255 -218.187
L365.833 -221.449
L363.873 -222.562
L361.312 -224.071
L356.792 -226.073
L354.027 -226.937
L352.271 -227.559
L347.751 -228.643
L343.23 -229.213
L338.71 -229.325
L334.189 -228.988
L329.669 -228.171
L325.586 -226.937
L325.148 -226.822
L320.628 -225.164
L316.107 -222.763
L315.794 -222.562
L311.587 -219.923
L309.391 -218.187
L307.066 -216.28
L304.496 -213.813
L302.546 -211.751
L300.542 -209.438
L298.025 -206.038
L297.32 -205.063
L294.565 -200.689
L293.505 -198.608
L292.262 -196.314
L290.337 -191.939
L288.984 -187.859
L288.871 -187.565
L287.48 -183.19
L286.472 -178.815
L285.775 -174.441
L285.345 -170.066
L285.153 -165.691
L285.186 -161.316
L285.448 -156.942
L285.954 -152.567
L286.739 -148.192
L287.853 -143.818" id="C9_0_9d9a00d6e9"/>
    </defs>
    <g clip-path="url(#pbb64507b19)">
     <use style="fill:#f3f3f3;" x="0.0" xlink:href="#C9_0_9d9a00d6e9" y="432.0"/>
    </g>
   </g>
   <g id="matplotlib.axis_1">
    <g id="xtick_1">
     <g id="line2d_1">
      <defs>
       <path d="
M0 0
L0 -4" id="m93b0483c22" style="stroke:#000000;stroke-width:0.5;"/>
      </defs>
      <g>
       <use style="stroke:#000000;stroke-width:0.5;" x="72.0" xlink:href="#m93b0483c22" y="388.8"/>
      </g>
     </g>
     <g id="line2d_2">
      <defs>
       <path d="
M0 0
L0 4" id="m741efc42ff" style="stroke:#000000;stroke-width:0.5;"/>
      </defs>
      <g>
       <use style="stroke:#000000;stroke-width:0.5;" x="72.0" xlink:href="#m741efc42ff" y="43.2"/>
      </g>
     </g>
     <g id="text_1">
      <!-- 0 -->
      <defs>
       <path d="
M31.7812 66.4062
Q24.1719 66.4062 20.3281 58.9062
Q16.5 51.4219 16.5 36.375
Q16.5 21.3906 20.3281 13.8906
Q24.1719 6.39062 31.7812 6.39062
Q39.4531 6.39062 43.2812 13.8906
Q47.125 21.3906 47.125 36.375
Q47.125 51.4219 43.2812 58.9062
Q39.4531 66.4062 31.7812 66.4062
M31.7812 74.2188
Q44.0469 74.2188 50.5156 64.5156
Q56.9844 54.8281 56.9844 36.375
Q56.9844 17.9688 50.5156 8.26562
Q44.0469 -1.42188 31.7812 -1.42188
Q19.5312 -1.42188 13.0625 8.26562
Q6.59375 17.9688 6.59375 36.375
Q6.59375 54.8281 13.0625 64.5156
Q19.5312 74.2188 31.7812 74.2188" id="BitstreamVeraSans-Roman-30"/>
      </defs>
      <g transform="translate(68.9765625 401.918125)scale(0.12 -0.12)">
       <use xlink:href="#BitstreamVeraSans-Roman-30"/>
      </g>
     </g>
    </g>
    <g id="xtick_2">
     <g id="line2d_3">
      <g>
       <use style="stroke:#000000;stroke-width:0.5;" x="116.64" xlink:href="#m93b0483c22" y="388.8"/>
      </g>
     </g>
     <g id="line2d_4">
      <g>
       <use style="stroke:#000000;stroke-width:0.5;" x="116.64" xlink:href="#m741efc42ff" y="43.2"/>
      </g>
     </g>
     <g id="text_2">
      <!-- 1 -->
      <defs>
       <path d="
M12.4062 8.29688
L28.5156 8.29688
L28.5156 63.9219
L10.9844 60.4062
L10.9844 69.3906
L28.4219 72.9062
L38.2812 72.9062
L38.2812 8.29688
L54.3906 8.29688
L54.3906 0
L12.4062 0
z
" id="BitstreamVeraSans-Roman-31"/>
      </defs>
      <g transform="translate(114.035625 401.918125)scale(0.12 -0.12)">
       <use xlink:href="#BitstreamVeraSans-Roman-31"/>
      </g>
     </g>
    </g>
    <g id="xtick_3">
     <g id="line2d_5">
      <g>
       <use style="stroke:#000000;stroke-width:0.5;" x="161.28" xlink:href="#m93b0483c22" y="388.8"/>
      </g>
     </g>
     <g id="line2d_6">
      <g>
       <use style="stroke:#000000;stroke-width:0.5;" x="161.28" xlink:href="#m741efc42ff" y="43.2"/>
      </g>
     </g>
     <g id="text_3">
      <!-- 2 -->
      <defs>
       <path d="
M19.1875 8.29688
L53.6094 8.29688
L53.6094 0
L7.32812 0
L7.32812 8.29688
Q12.9375 14.1094 22.625 23.8906
Q32.3281 33.6875 34.8125 36.5312
Q39.5469 41.8438 41.4219 45.5312
Q43.3125 49.2188 43.3125 52.7812
Q43.3125 58.5938 39.2344 62.25
Q35.1562 65.9219 28.6094 65.9219
Q23.9688 65.9219 18.8125 64.3125
Q13.6719 62.7031 7.8125 59.4219
L7.8125 69.3906
Q13.7656 71.7812 18.9375 73
Q24.125 74.2188 28.4219 74.2188
Q39.75 74.2188 46.4844 68.5469
Q53.2188 62.8906 53.2188 53.4219
Q53.2188 48.9219 51.5312 44.8906
Q49.8594 40.875 45.4062 35.4062
Q44.1875 33.9844 37.6406 27.2188
Q31.1094 20.4531 19.1875 8.29688" id="BitstreamVeraSans-Roman-32"/>
      </defs>
      <g transform="translate(158.503125 401.918125)scale(0.12 -0.12)">
       <use xlink:href="#BitstreamVeraSans-Roman-32"/>
      </g>
     </g>
    </g>
    <g id="xtick_4">
     <g id="line2d_7">
      <g>
       <use style="stroke:#000000;stroke-width:0.5;" x="205.92" xlink:href="#m93b0483c22" y="388.8"/>
      </g>
     </g>
     <g id="line2d_8">
      <g>
       <use style="stroke:#000000;stroke-width:0.5;" x="205.92" xlink:href="#m741efc42ff" y="43.2"/>
      </g>
     </g>
     <g id="text_4">
      <!-- 3 -->
      <defs>
       <path d="
M40.5781 39.3125
Q47.6562 37.7969 51.625 33
Q55.6094 28.2188 55.6094 21.1875
Q55.6094 10.4062 48.1875 4.48438
Q40.7656 -1.42188 27.0938 -1.42188
Q22.5156 -1.42188 17.6562 -0.515625
Q12.7969 0.390625 7.625 2.20312
L7.625 11.7188
Q11.7188 9.32812 16.5938 8.10938
Q21.4844 6.89062 26.8125 6.89062
Q36.0781 6.89062 40.9375 10.5469
Q45.7969 14.2031 45.7969 21.1875
Q45.7969 27.6406 41.2812 31.2656
Q36.7656 34.9062 28.7188 34.9062
L20.2188 34.9062
L20.2188 43.0156
L29.1094 43.0156
Q36.375 43.0156 40.2344 45.9219
Q44.0938 48.8281 44.0938 54.2969
Q44.0938 59.9062 40.1094 62.9062
Q36.1406 65.9219 28.7188 65.9219
Q24.6562 65.9219 20.0156 65.0312
Q15.375 64.1562 9.8125 62.3125
L9.8125 71.0938
Q15.4375 72.6562 20.3438 73.4375
Q25.25 74.2188 29.5938 74.2188
Q40.8281 74.2188 47.3594 69.1094
Q53.9062 64.0156 53.9062 55.3281
Q53.9062 49.2656 50.4375 45.0938
Q46.9688 40.9219 40.5781 39.3125" id="BitstreamVeraSans-Roman-33"/>
      </defs>
      <g transform="translate(203.0409375 401.918125)scale(0.12 -0.12)">
       <use xlink:href="#BitstreamVeraSans-Roman-33"/>
      </g>
     </g>
    </g>
    <g id="xtick_5">
     <g id="line2d_9">
      <g>
       <use style="stroke:#000000;stroke-width:0.5;" x="250.56" xlink:href="#m93b0483c22" y="388.8"/>
      </g>
     </g>
     <g id="line2d_10">
      <g>
       <use style="stroke:#000000;stroke-width:0.5;" x="250.56" xlink:href="#m741efc42ff" y="43.2"/>
      </g>
     </g>
     <g id="text_5">
      <!-- 4 -->
      <defs>
       <path d="
M37.7969 64.3125
L12.8906 25.3906
L37.7969 25.3906
z

M35.2031 72.9062
L47.6094 72.9062
L47.6094 25.3906
L58.0156 25.3906
L58.0156 17.1875
L47.6094 17.1875
L47.6094 0
L37.7969 0
L37.7969 17.1875
L4.89062 17.1875
L4.89062 26.7031
z
" id="BitstreamVeraSans-Roman-34"/>
      </defs>
      <g transform="translate(247.3725 401.918125)scale(0.12 -0.12)">
       <use xlink:href="#BitstreamVeraSans-Roman-34"/>
      </g>
     </g>
    </g>
    <g id="xtick_6">
     <g id="line2d_11">
      <g>
       <use style="stroke:#000000;stroke-width:0.5;" x="295.2" xlink:href="#m93b0483c22" y="388.8"/>
      </g>
     </g>
     <g id="line2d_12">
      <g>
       <use style="stroke:#000000;stroke-width:0.5;" x="295.2" xlink:href="#m741efc42ff" y="43.2"/>
      </g>
     </g>
     <g id="text_6">
      <!-- 5 -->
      <defs>
       <path d="
M10.7969 72.9062
L49.5156 72.9062
L49.5156 64.5938
L19.8281 64.5938
L19.8281 46.7344
Q21.9688 47.4688 24.1094 47.8281
Q26.2656 48.1875 28.4219 48.1875
Q40.625 48.1875 47.75 41.5
Q54.8906 34.8125 54.8906 23.3906
Q54.8906 11.625 47.5625 5.09375
Q40.2344 -1.42188 26.9062 -1.42188
Q22.3125 -1.42188 17.5469 -0.640625
Q12.7969 0.140625 7.71875 1.70312
L7.71875 11.625
Q12.1094 9.23438 16.7969 8.0625
Q21.4844 6.89062 26.7031 6.89062
Q35.1562 6.89062 40.0781 11.3281
Q45.0156 15.7656 45.0156 23.3906
Q45.0156 31 40.0781 35.4375
Q35.1562 39.8906 26.7031 39.8906
Q22.75 39.8906 18.8125 39.0156
Q14.8906 38.1406 10.7969 36.2812
z
" id="BitstreamVeraSans-Roman-35"/>
      </defs>
      <g transform="translate(292.3696875 401.918125)scale(0.12 -0.12)">
       <use xlink:href="#BitstreamVeraSans-Roman-35"/>
      </g>
     </g>
    </g>
    <g id="xtick_7">
     <g id="line2d_13">
      <g>
       <use style="stroke:#000000;stroke-width:0.5;" x="339.84" xlink:href="#m93b0483c22" y="388.8"/>
      </g>
     </g>
     <g id="line2d_14">
      <g>
       <use style="stroke:#000000;stroke-width:0.5;" x="339.84" xlink:href="#m741efc42ff" y="43.2"/>
      </g>
     </g>
     <g id="text_7">
      <!-- 6 -->
      <defs>
       <path d="
M33.0156 40.375
Q26.375 40.375 22.4844 35.8281
Q18.6094 31.2969 18.6094 23.3906
Q18.6094 15.5312 22.4844 10.9531
Q26.375 6.39062 33.0156 6.39062
Q39.6562 6.39062 43.5312 10.9531
Q47.4062 15.5312 47.4062 23.3906
Q47.4062 31.2969 43.5312 35.8281
Q39.6562 40.375 33.0156 40.375
M52.5938 71.2969
L52.5938 62.3125
Q48.875 64.0625 45.0938 64.9844
Q41.3125 65.9219 37.5938 65.9219
Q27.8281 65.9219 22.6719 59.3281
Q17.5312 52.7344 16.7969 39.4062
Q19.6719 43.6562 24.0156 45.9219
Q28.375 48.1875 33.5938 48.1875
Q44.5781 48.1875 50.9531 41.5156
Q57.3281 34.8594 57.3281 23.3906
Q57.3281 12.1562 50.6875 5.35938
Q44.0469 -1.42188 33.0156 -1.42188
Q20.3594 -1.42188 13.6719 8.26562
Q6.98438 17.9688 6.98438 36.375
Q6.98438 53.6562 15.1875 63.9375
Q23.3906 74.2188 37.2031 74.2188
Q40.9219 74.2188 44.7031 73.4844
Q48.4844 72.75 52.5938 71.2969" id="BitstreamVeraSans-Roman-36"/>
      </defs>
      <g transform="translate(336.819375 401.918125)scale(0.12 -0.12)">
       <use xlink:href="#BitstreamVeraSans-Roman-36"/>
      </g>
     </g>
    </g>
    <g id="xtick_8">
     <g id="line2d_15">
      <g>
       <use style="stroke:#000000;stroke-width:0.5;" x="384.48" xlink:href="#m93b0483c22" y="388.8"/>
      </g>
     </g>
     <g id="line2d_16">
      <g>
       <use style="stroke:#000000;stroke-width:0.5;" x="384.48" xlink:href="#m741efc42ff" y="43.2"/>
      </g>
     </g>
     <g id="text_8">
      <!-- 7 -->
      <defs>
       <path d="
M8.20312 72.9062
L55.0781 72.9062
L55.0781 68.7031
L28.6094 0
L18.3125 0
L43.2188 64.5938
L8.20312 64.5938
z
" id="BitstreamVeraSans-Roman-37"/>
      </defs>
      <g transform="translate(381.6675 401.918125)scale(0.12 -0.12)">
       <use xlink:href="#BitstreamVeraSans-Roman-37"/>
      </g>
     </g>
    </g>
    <g id="xtick_9">
     <g id="line2d_17">
      <g>
       <use style="stroke:#000000;stroke-width:0.5;" x="429.12" xlink:href="#m93b0483c22" y="388.8"/>
      </g>
     </g>
     <g id="line2d_18">
      <g>
       <use style="stroke:#000000;stroke-width:0.5;" x="429.12" xlink:href="#m741efc42ff" y="43.2"/>
      </g>
     </g>
     <g id="text_9">
      <!-- 8 -->
      <defs>
       <path d="
M31.7812 34.625
Q24.75 34.625 20.7188 30.8594
Q16.7031 27.0938 16.7031 20.5156
Q16.7031 13.9219 20.7188 10.1562
Q24.75 6.39062 31.7812 6.39062
Q38.8125 6.39062 42.8594 10.1719
Q46.9219 13.9688 46.9219 20.5156
Q46.9219 27.0938 42.8906 30.8594
Q38.875 34.625 31.7812 34.625
M21.9219 38.8125
Q15.5781 40.375 12.0312 44.7188
Q8.5 49.0781 8.5 55.3281
Q8.5 64.0625 14.7188 69.1406
Q20.9531 74.2188 31.7812 74.2188
Q42.6719 74.2188 48.875 69.1406
Q55.0781 64.0625 55.0781 55.3281
Q55.0781 49.0781 51.5312 44.7188
Q48 40.375 41.7031 38.8125
Q48.8281 37.1562 52.7969 32.3125
Q56.7812 27.4844 56.7812 20.5156
Q56.7812 9.90625 50.3125 4.23438
Q43.8438 -1.42188 31.7812 -1.42188
Q19.7344 -1.42188 13.25 4.23438
Q6.78125 9.90625 6.78125 20.5156
Q6.78125 27.4844 10.7812 32.3125
Q14.7969 37.1562 21.9219 38.8125
M18.3125 54.3906
Q18.3125 48.7344 21.8438 45.5625
Q25.3906 42.3906 31.7812 42.3906
Q38.1406 42.3906 41.7188 45.5625
Q45.3125 48.7344 45.3125 54.3906
Q45.3125 60.0625 41.7188 63.2344
Q38.1406 66.4062 31.7812 66.4062
Q25.3906 66.4062 21.8438 63.2344
Q18.3125 60.0625 18.3125 54.3906" id="BitstreamVeraSans-Roman-38"/>
      </defs>
      <g transform="translate(426.12 401.918125)scale(0.12 -0.12)">
       <use xlink:href="#BitstreamVeraSans-Roman-38"/>
      </g>
     </g>
    </g>
    <g id="text_10">
     <!-- $x$ -->
     <defs>
      <path d="
M7.8125 2.875
Q9.57812 1.51562 12.7969 1.51562
Q15.9219 1.51562 18.3125 4.51562
Q20.7031 7.51562 21.5781 11.0781
L26.125 28.8125
Q27.2031 33.6406 27.2031 35.4062
Q27.2031 37.8906 25.8125 39.75
Q24.4219 41.6094 21.9219 41.6094
Q18.75 41.6094 15.9688 39.625
Q13.1875 37.6406 11.2812 34.5938
Q9.375 31.5469 8.59375 28.4219
Q8.40625 27.7812 7.8125 27.7812
L6.59375 27.7812
Q5.8125 27.7812 5.8125 28.7188
L5.8125 29
Q6.78125 32.7188 9.125 36.25
Q11.4688 39.7969 14.8594 41.9844
Q18.2656 44.1875 22.125 44.1875
Q25.7812 44.1875 28.7344 42.2344
Q31.6875 40.2812 32.9062 36.9219
Q34.625 39.9844 37.2812 42.0781
Q39.9375 44.1875 43.1094 44.1875
Q45.2656 44.1875 47.5 43.4219
Q49.75 42.6719 51.1719 41.1094
Q52.5938 39.5469 52.5938 37.2031
Q52.5938 34.6719 50.9531 32.8281
Q49.3125 31 46.7812 31
Q45.1719 31 44.0938 32.0312
Q43.0156 33.0625 43.0156 34.625
Q43.0156 36.7188 44.4531 38.2969
Q45.9062 39.8906 47.9062 40.1875
Q46.0938 41.6094 42.9219 41.6094
Q39.7031 41.6094 37.3281 38.625
Q34.9688 35.6406 33.9844 31.9844
L29.5938 14.3125
Q28.5156 10.2969 28.5156 7.71875
Q28.5156 5.17188 29.9531 3.34375
Q31.3906 1.51562 33.7969 1.51562
Q38.4844 1.51562 42.1562 5.64062
Q45.8438 9.76562 47.0156 14.7031
Q47.2188 15.2812 47.7969 15.2812
L49.0312 15.2812
Q49.4219 15.2812 49.6562 15.0156
Q49.9062 14.75 49.9062 14.4062
Q49.9062 14.3125 49.8125 14.1094
Q48.3906 8.15625 43.8438 3.51562
Q39.3125 -1.125 33.5938 -1.125
Q29.9375 -1.125 26.9844 0.84375
Q24.0312 2.82812 22.7969 6.20312
Q21.2344 3.26562 18.4688 1.0625
Q15.7188 -1.125 12.5938 -1.125
Q10.4531 -1.125 8.17188 -0.359375
Q5.90625 0.390625 4.48438 1.95312
Q3.07812 3.51562 3.07812 5.90625
Q3.07812 8.25 4.70312 10.1719
Q6.34375 12.1094 8.79688 12.1094
Q10.4531 12.1094 11.5781 11.1094
Q12.7031 10.1094 12.7031 8.5
Q12.7031 6.39062 11.2969 4.82812
Q9.90625 3.26562 7.8125 2.875" id="Cmmi10-78"/>
     </defs>
     <g transform="translate(247.08 418.531875)scale(0.12 -0.12)">
      <use transform="translate(0.0 0.8125)" xlink:href="#Cmmi10-78"/>
     </g>
    </g>
   </g>
   <g id="matplotlib.axis_2">
    <g id="ytick_1">
     <g id="line2d_19">
      <defs>
       <path d="
M0 0
L4 0" id="m728421d6d4" style="stroke:#000000;stroke-width:0.5;"/>
      </defs>
      <g>
       <use style="stroke:#000000;stroke-width:0.5;" x="72.0" xlink:href="#m728421d6d4" y="388.8"/>
      </g>
     </g>
     <g id="line2d_20">
      <defs>
       <path d="
M0 0
L-4 0" id="mcb0005524f" style="stroke:#000000;stroke-width:0.5;"/>
      </defs>
      <g>
       <use style="stroke:#000000;stroke-width:0.5;" x="429.12" xlink:href="#mcb0005524f" y="388.8"/>
      </g>
     </g>
     <g id="text_11">
      <!-- 0 -->
      <g transform="translate(61.953125 392.11125)scale(0.12 -0.12)">
       <use xlink:href="#BitstreamVeraSans-Roman-30"/>
      </g>
     </g>
    </g>
    <g id="ytick_2">
     <g id="line2d_21">
      <g>
       <use style="stroke:#000000;stroke-width:0.5;" x="72.0" xlink:href="#m728421d6d4" y="335.630769231"/>
      </g>
     </g>
     <g id="line2d_22">
      <g>
       <use style="stroke:#000000;stroke-width:0.5;" x="429.12" xlink:href="#mcb0005524f" y="335.630769231"/>
      </g>
     </g>
     <g id="text_12">
      <!-- 1 -->
      <g transform="translate(62.79125 338.942019231)scale(0.12 -0.12)">
       <use xlink:href="#BitstreamVeraSans-Roman-31"/>
      </g>
     </g>
    </g>
    <g id="ytick_3">
     <g id="line2d_23">
      <g>
       <use style="stroke:#000000;stroke-width:0.5;" x="72.0" xlink:href="#m728421d6d4" y="282.461538462"/>
      </g>
     </g>
     <g id="line2d_24">
      <g>
       <use style="stroke:#000000;stroke-width:0.5;" x="429.12" xlink:href="#mcb0005524f" y="282.461538462"/>
      </g>
     </g>
     <g id="text_13">
      <!-- 2 -->
      <g transform="translate(62.44625 285.772788462)scale(0.12 -0.12)">
       <use xlink:href="#BitstreamVeraSans-Roman-32"/>
      </g>
     </g>
    </g>
    <g id="ytick_4">
     <g id="line2d_25">
      <g>
       <use style="stroke:#000000;stroke-width:0.5;" x="72.0" xlink:href="#m728421d6d4" y="229.292307692"/>
      </g>
     </g>
     <g id="line2d_26">
      <g>
       <use style="stroke:#000000;stroke-width:0.5;" x="429.12" xlink:href="#mcb0005524f" y="229.292307692"/>
      </g>
     </g>
     <g id="text_14">
      <!-- 3 -->
      <g transform="translate(62.241875 232.603557692)scale(0.12 -0.12)">
       <use xlink:href="#BitstreamVeraSans-Roman-33"/>
      </g>
     </g>
    </g>
    <g id="ytick_5">
     <g id="line2d_27">
      <g>
       <use style="stroke:#000000;stroke-width:0.5;" x="72.0" xlink:href="#m728421d6d4" y="176.123076923"/>
      </g>
     </g>
     <g id="line2d_28">
      <g>
       <use style="stroke:#000000;stroke-width:0.5;" x="429.12" xlink:href="#mcb0005524f" y="176.123076923"/>
      </g>
     </g>
     <g id="text_15">
      <!-- 4 -->
      <g transform="translate(61.625 179.434326923)scale(0.12 -0.12)">
       <use xlink:href="#BitstreamVeraSans-Roman-34"/>
      </g>
     </g>
    </g>
    <g id="ytick_6">
     <g id="line2d_29">
      <g>
       <use style="stroke:#000000;stroke-width:0.5;" x="72.0" xlink:href="#m728421d6d4" y="122.953846154"/>
      </g>
     </g>
     <g id="line2d_30">
      <g>
       <use style="stroke:#000000;stroke-width:0.5;" x="429.12" xlink:href="#mcb0005524f" y="122.953846154"/>
      </g>
     </g>
     <g id="text_16">
      <!-- 5 -->
      <g transform="translate(62.339375 126.265096154)scale(0.12 -0.12)">
       <use xlink:href="#BitstreamVeraSans-Roman-35"/>
      </g>
     </g>
    </g>
    <g id="ytick_7">
     <g id="line2d_31">
      <g>
       <use style="stroke:#000000;stroke-width:0.5;" x="72.0" xlink:href="#m728421d6d4" y="69.7846153846"/>
      </g>
     </g>
     <g id="line2d_32">
      <g>
       <use style="stroke:#000000;stroke-width:0.5;" x="429.12" xlink:href="#mcb0005524f" y="69.7846153846"/>
      </g>
     </g>
     <g id="text_17">
      <!-- 6 -->
      <g transform="translate(61.95875 73.0958653846)scale(0.12 -0.12)">
       <use xlink:href="#BitstreamVeraSans-Roman-36"/>
      </g>
     </g>
    </g>
    <g id="text_18">
     <!-- $y$ -->
     <defs>
      <path d="
M8.40625 -14.3125
Q10.5 -17.9219 15.7188 -17.9219
Q20.4531 -17.9219 23.9219 -14.5938
Q27.3906 -11.2812 29.5156 -6.5625
Q31.6406 -1.85938 32.8125 3.07812
Q28.375 -1.125 23.1875 -1.125
Q19.2344 -1.125 16.4531 0.234375
Q13.6719 1.60938 12.125 4.3125
Q10.5938 7.03125 10.5938 10.8906
Q10.5938 14.1562 11.4688 17.5938
Q12.3594 21.0469 13.9375 25.2656
Q15.5312 29.5 16.7031 32.625
Q18.0156 36.2812 18.0156 38.625
Q18.0156 41.6094 15.8281 41.6094
Q11.8594 41.6094 9.29688 37.5312
Q6.73438 33.4531 5.51562 28.4219
Q5.32812 27.7812 4.6875 27.7812
L3.51562 27.7812
Q2.6875 27.7812 2.6875 28.7188
L2.6875 29
Q4.29688 34.9688 7.60938 39.5781
Q10.9375 44.1875 16.0156 44.1875
Q19.5781 44.1875 22.0469 41.8438
Q24.5156 39.5 24.5156 35.8906
Q24.5156 34.0312 23.6875 31.9844
Q23.25 30.7656 21.6875 26.6562
Q20.125 22.5625 19.2812 19.875
Q18.4531 17.1875 17.9219 14.5938
Q17.3906 12.0156 17.3906 9.42188
Q17.3906 6.10938 18.7969 3.8125
Q20.2188 1.51562 23.2969 1.51562
Q29.5 1.51562 34.4219 9.07812
L42 39.8906
Q42.3281 41.2188 43.5469 42.1562
Q44.7812 43.1094 46.1875 43.1094
Q47.4062 43.1094 48.3125 42.3281
Q49.2188 41.5469 49.2188 40.2812
Q49.2188 39.7031 49.125 39.5
L39.2031 -0.296875
Q37.8906 -5.42188 34.375 -10.1094
Q30.8594 -14.7969 25.9062 -17.6562
Q20.9531 -20.5156 15.5781 -20.5156
Q12.9844 -20.5156 10.4375 -19.5
Q7.90625 -18.5 6.34375 -16.5
Q4.78125 -14.5 4.78125 -11.8125
Q4.78125 -9.07812 6.39062 -7.07812
Q8.01562 -5.07812 10.6875 -5.07812
Q12.3125 -5.07812 13.4062 -6.07812
Q14.5 -7.07812 14.5 -8.6875
Q14.5 -10.9844 12.7812 -12.6875
Q11.0781 -14.4062 8.79688 -14.4062
Q8.6875 -14.3594 8.59375 -14.3281
Q8.5 -14.3125 8.40625 -14.3125" id="Cmmi10-79"/>
     </defs>
     <g transform="translate(54.105 219.0)rotate(-90.0)scale(0.12 -0.12)">
      <use transform="translate(0.0 0.8125)" xlink:href="#Cmmi10-79"/>
     </g>
    </g>
   </g>
   <g id="patch_3">
    <path d="
M72 43.2
L429.12 43.2" style="fill:none;stroke:#000000;"/>
   </g>
   <g id="patch_4">
    <path d="
M429.12 388.8
L429.12 43.2" style="fill:none;stroke:#000000;"/>
   </g>
   <g id="patch_5">
    <path d="
M72 388.8
L429.12 388.8" style="fill:none;stroke:#000000;"/>
   </g>
   <g id="patch_6">
    <path d="
M72 388.8
L72 43.2" style="fill:none;stroke:#000000;"/>
   </g>
  </g>
  <g id="axes_2">
   <g id="patch_7">
    <path clip-path="url(#p8630e4bf2e)" d="
M451.44 388.8
L451.44 354.24
L451.44 77.76
L451.44 43.2
L468.72 43.2
L468.72 77.76
L468.72 354.24
L468.72 388.8
z
" style="fill:#ffffff;stroke:#ffffff;stroke-width:0.01;"/>
   </g>
   <g id="QuadMesh_1">
    <defs>
     <path d="
M451.44 -43.2
L468.72 -43.2
L468.72 -77.76
L451.44 -77.76
L451.44 -43.2" id="Ca_0_b3e72b4ed9"/>
     <path d="
M451.44 -77.76
L468.72 -77.76
L468.72 -112.32
L451.44 -112.32
L451.44 -77.76" id="Ca_1_3f9c0501c8"/>
     <path d="
M451.44 -112.32
L468.72 -112.32
L468.72 -146.88
L451.44 -146.88
L451.44 -112.32" id="Ca_2_928afcbb40"/>
     <path d="
M451.44 -146.88
L468.72 -146.88
L468.72 -181.44
L451.44 -181.44
L451.44 -146.88" id="Ca_3_5dc246d4fa"/>
     <path d="
M451.44 -181.44
L468.72 -181.44
L468.72 -216
L451.44 -216
L451.44 -181.44" id="Ca_4_3654c424de"/>
     <path d="
M451.44 -216
L468.72 -216
L468.72 -250.56
L451.44 -250.56
L451.44 -216" id="Ca_5_c9b282aaf8"/>
     <path d="
M451.44 -250.56
L468.72 -250.56
L468.72 -285.12
L451.44 -285.12
L451.44 -250.56" id="Ca_6_2ebc42b073"/>
     <path d="
M451.44 -285.12
L468.72 -285.12
L468.72 -319.68
L451.44 -319.68
L451.44 -285.12" id="Ca_7_32a018ed19"/>
     <path d="
M451.44 -319.68
L468.72 -319.68
L468.72 -354.24
L451.44 -354.24
L451.44 -319.68" id="Ca_8_95b3c1c294"/>
     <path d="
M451.44 -354.24
L468.72 -354.24
L468.72 -388.8
L451.44 -388.8
L451.44 -354.24" id="Ca_9_044decd37d"/>
    </defs>
    <g clip-path="url(#p8630e4bf2e)">
     <use style="fill:#0c0c0c;" x="0.0" xlink:href="#Ca_0_b3e72b4ed9" y="432.0"/>
    </g>
    <g clip-path="url(#p8630e4bf2e)">
     <use style="fill:#262626;" x="0.0" xlink:href="#Ca_1_3f9c0501c8" y="432.0"/>
    </g>
    <g clip-path="url(#p8630e4bf2e)">
     <use style="fill:#404040;" x="0.0" xlink:href="#Ca_2_928afcbb40" y="432.0"/>
    </g>
    <g clip-path="url(#p8630e4bf2e)">
     <use style="fill:#595959;" x="0.0" xlink:href="#Ca_3_5dc246d4fa" y="432.0"/>
    </g>
    <g clip-path="url(#p8630e4bf2e)">
     <use style="fill:#737373;" x="0.0" xlink:href="#Ca_4_3654c424de" y="432.0"/>
    </g>
    <g clip-path="url(#p8630e4bf2e)">
     <use style="fill:#8c8c8c;" x="0.0" xlink:href="#Ca_5_c9b282aaf8" y="432.0"/>
    </g>
    <g clip-path="url(#p8630e4bf2e)">
     <use style="fill:#a6a6a6;" x="0.0" xlink:href="#Ca_6_2ebc42b073" y="432.0"/>
    </g>
    <g clip-path="url(#p8630e4bf2e)">
     <use style="fill:#c0c0c0;" x="0.0" xlink:href="#Ca_7_32a018ed19" y="432.0"/>
    </g>
    <g clip-path="url(#p8630e4bf2e)">
     <use style="fill:#d9d9d9;" x="0.0" xlink:href="#Ca_8_95b3c1c294" y="432.0"/>
    </g>
    <g clip-path="url(#p8630e4bf2e)">
     <use style="fill:#f3f3f3;" x="0.0" xlink:href="#Ca_9_044decd37d" y="432.0"/>
    </g>
   </g>
   <g id="line2d_33">
    <path d="
M451.44 388.8
L451.44 354.24
L451.44 77.76
L451.44 43.2
L468.72 43.2
L468.72 77.76
L468.72 354.24
L468.72 388.8
L451.44 388.8" style="fill:none;stroke:#000000;stroke-linecap:square;"/>
   </g>
   <g id="matplotlib.axis_3"/>
   <g id="matplotlib.axis_4">
    <g id="ytick_8">
     <g id="line2d_34">
      <g>
       <use style="stroke:#000000;stroke-width:0.5;" x="468.72" xlink:href="#mcb0005524f" y="388.8"/>
      </g>
     </g>
     <g id="text_19">
      <!-- 2.0 -->
      <defs>
       <path d="
M10.5938 35.5
L73.1875 35.5
L73.1875 27.2031
L10.5938 27.2031
z
" id="BitstreamVeraSans-Roman-2212"/>
       <path d="
M10.6875 12.4062
L21 12.4062
L21 0
L10.6875 0
z
" id="BitstreamVeraSans-Roman-2e"/>
      </defs>
      <g transform="translate(472.72 392.11125)scale(0.12 -0.12)">
       <use xlink:href="#BitstreamVeraSans-Roman-2212"/>
       <use x="83.7890625" xlink:href="#BitstreamVeraSans-Roman-32"/>
       <use x="147.412109375" xlink:href="#BitstreamVeraSans-Roman-2e"/>
       <use x="179.19921875" xlink:href="#BitstreamVeraSans-Roman-30"/>
      </g>
     </g>
    </g>
    <g id="ytick_9">
     <g id="line2d_35">
      <g>
       <use style="stroke:#000000;stroke-width:0.5;" x="468.72" xlink:href="#mcb0005524f" y="319.68"/>
      </g>
     </g>
     <g id="text_20">
      <!-- 1.6 -->
      <g transform="translate(472.72 322.99125)scale(0.12 -0.12)">
       <use xlink:href="#BitstreamVeraSans-Roman-2212"/>
       <use x="83.7890625" xlink:href="#BitstreamVeraSans-Roman-31"/>
       <use x="147.412109375" xlink:href="#BitstreamVeraSans-Roman-2e"/>
       <use x="179.19921875" xlink:href="#BitstreamVeraSans-Roman-36"/>
      </g>
     </g>
    </g>
    <g id="ytick_10">
     <g id="line2d_36">
      <g>
       <use style="stroke:#000000;stroke-width:0.5;" x="468.72" xlink:href="#mcb0005524f" y="250.56"/>
      </g>
     </g>
     <g id="text_21">
      <!-- 1.2 -->
      <g transform="translate(472.72 253.87125)scale(0.12 -0.12)">
       <use xlink:href="#BitstreamVeraSans-Roman-2212"/>
       <use x="83.7890625" xlink:href="#BitstreamVeraSans-Roman-31"/>
       <use x="147.412109375" xlink:href="#BitstreamVeraSans-Roman-2e"/>
       <use x="179.19921875" xlink:href="#BitstreamVeraSans-Roman-32"/>
      </g>
     </g>
    </g>
    <g id="ytick_11">
     <g id="line2d_37">
      <g>
       <use style="stroke:#000000;stroke-width:0.5;" x="468.72" xlink:href="#mcb0005524f" y="181.44"/>
      </g>
     </g>
     <g id="text_22">
      <!-- 0.8 -->
      <g transform="translate(472.72 184.75125)scale(0.12 -0.12)">
       <use xlink:href="#BitstreamVeraSans-Roman-2212"/>
       <use x="83.7890625" xlink:href="#BitstreamVeraSans-Roman-30"/>
       <use x="147.412109375" xlink:href="#BitstreamVeraSans-Roman-2e"/>
       <use x="179.19921875" xlink:href="#BitstreamVeraSans-Roman-38"/>
      </g>
     </g>
    </g>
    <g id="ytick_12">
     <g id="line2d_38">
      <g>
       <use style="stroke:#000000;stroke-width:0.5;" x="468.72" xlink:href="#mcb0005524f" y="112.32"/>
      </g>
     </g>
     <g id="text_23">
      <!-- 0.4 -->
      <g transform="translate(472.72 115.63125)scale(0.12 -0.12)">
       <use xlink:href="#BitstreamVeraSans-Roman-2212"/>
       <use x="83.7890625" xlink:href="#BitstreamVeraSans-Roman-30"/>
       <use x="147.412109375" xlink:href="#BitstreamVeraSans-Roman-2e"/>
       <use x="179.19921875" xlink:href="#BitstreamVeraSans-Roman-34"/>
      </g>
     </g>
    </g>
    <g id="ytick_13">
     <g id="line2d_39">
      <g>
       <use style="stroke:#000000;stroke-width:0.5;" x="468.72" xlink:href="#mcb0005524f" y="43.2"/>
      </g>
     </g>
     <g id="text_24">
      <!-- 0.0 -->
      <g transform="translate(472.72 46.51125)scale(0.12 -0.12)">
       <use xlink:href="#BitstreamVeraSans-Roman-30"/>
       <use x="63.623046875" xlink:href="#BitstreamVeraSans-Roman-2e"/>
       <use x="95.41015625" xlink:href="#BitstreamVeraSans-Roman-30"/>
      </g>
     </g>
    </g>
   </g>
  </g>
 </g>
 <defs>
  <clipPath id="p8630e4bf2e">
   <rect height="345.6" width="17.28" x="451.44" y="43.2"/>
  </clipPath>
  <clipPath id="pbb64507b19">
   <rect height="345.6" width="357.12" x="72.0" y="43.2"/>
  </clipPath>
 </defs>
</svg>
