<?xml version="1.0" encoding="utf-8" standalone="no"?>
<!DOCTYPE svg PUBLIC "-//W3C//DTD SVG 1.1//EN"
  "http://www.w3.org/Graphics/SVG/1.1/DTD/svg11.dtd">
<!-- Created with matplotlib (http://matplotlib.org/) -->
<svg height="430pt" version="1.1" viewBox="0 0 576 430" width="576pt" xmlns="http://www.w3.org/2000/svg" xmlns:xlink="http://www.w3.org/1999/xlink">
 <defs>
  <style type="text/css">
*{stroke-linecap:butt;stroke-linejoin:round;}
  </style>
 </defs>
 <g id="figure_1">
  <g id="patch_1">
   <path d="
M0 430.2
L576 430.2
L576 0
L0 0
z
" style="fill:#ffffff;"/>
  </g>
  <g id="axes_1">
   <g id="patch_2">
    <path d="
M72 387.18
L518.4 387.18
L518.4 43.02
L72 43.02
z
" style="fill:#ffffff;"/>
   </g>
   <g id="PathCollection_1">
    <defs>
     <path d="
M72 -43.02
L72 -47.3765
L72 -51.7329
L72 -56.0894
L72 -60.4458
L72 -64.8023
L72 -69.1587
L72 -73.5152
L72 -77.8716
L72 -82.2281
L72 -86.5846
L72 -90.941
L72 -95.2975
L72 -99.6539
L72 -104.01
L72 -108.367
L72 -112.723
L72 -117.08
L72 -121.436
L72 -125.793
L72 -130.149
L72 -134.506
L72 -138.862
L72 -143.218
L72 -147.575
L72 -151.931
L72 -156.288
L72 -160.644
L72 -165.001
L72 -169.357
L72 -173.714
L72 -178.07
L72 -182.427
L72 -186.783
L72 -191.139
L72 -195.496
L72 -199.852
L72 -204.209
L72 -208.565
L72 -212.922
L72 -217.278
L72 -221.635
L72 -225.991
L72 -230.348
L72 -234.704
L72 -239.061
L72 -243.417
L72 -247.773
L72 -252.13
L72 -256.486
L72 -260.843
L72 -265.199
L72 -269.556
L72 -273.912
L72 -278.269
L72 -282.625
L72 -286.982
L72 -291.338
L72 -295.694
L72 -300.051
L72 -304.407
L72 -308.764
L72 -313.12
L72 -317.477
L72 -321.833
L72 -326.19
L72 -330.546
L72 -334.903
L72 -339.259
L72 -343.615
L72 -347.972
L72 -352.328
L72 -356.685
L72 -361.041
L72 -365.398
L72 -369.754
L72 -374.111
L72 -378.467
L72 -382.824
L72 -387.18
L77.6506 -387.18
L83.3013 -387.18
L88.9519 -387.18
L94.6025 -387.18
L100.253 -387.18
L105.904 -387.18
L111.554 -387.18
L117.205 -387.18
L122.856 -387.18
L128.506 -387.18
L134.157 -387.18
L139.808 -387.18
L145.458 -387.18
L151.109 -387.18
L156.759 -387.18
L162.41 -387.18
L168.061 -387.18
L173.711 -387.18
L179.362 -387.18
L185.013 -387.18
L190.663 -387.18
L196.314 -387.18
L201.965 -387.18
L207.615 -387.18
L213.266 -387.18
L218.916 -387.18
L224.567 -387.18
L230.218 -387.18
L235.868 -387.18
L241.519 -387.18
L247.17 -387.18
L252.82 -387.18
L258.471 -387.18
L264.122 -387.18
L269.772 -387.18
L275.423 -387.18
L281.073 -387.18
L286.724 -387.18
L292.375 -387.18
L298.025 -387.18
L303.676 -387.18
L309.327 -387.18
L314.977 -387.18
L320.628 -387.18
L326.278 -387.18
L331.929 -387.18
L337.58 -387.18
L343.23 -387.18
L348.881 -387.18
L354.532 -387.18
L360.182 -387.18
L365.833 -387.18
L371.484 -387.18
L377.134 -387.18
L382.785 -387.18
L388.435 -387.18
L394.086 -387.18
L399.737 -387.18
L405.387 -387.18
L411.038 -387.18
L416.689 -387.18
L422.339 -387.18
L427.99 -387.18
L433.641 -387.18
L439.291 -387.18
L444.942 -387.18
L450.592 -387.18
L456.243 -387.18
L461.894 -387.18
L467.544 -387.18
L473.195 -387.18
L478.846 -387.18
L484.496 -387.18
L490.147 -387.18
L495.797 -387.18
L501.448 -387.18
L507.099 -387.18
L512.749 -387.18
L518.4 -387.18
L518.4 -382.824
L518.4 -378.467
L518.4 -374.111
L518.4 -369.754
L518.4 -365.398
L518.4 -361.041
L518.4 -356.685
L518.4 -354.631
L512.749 -354.624
L507.099 -354.601
L501.448 -354.563
L495.797 -354.51
L490.147 -354.442
L484.496 -354.358
L478.846 -354.258
L473.195 -354.142
L467.544 -354.009
L461.894 -353.858
L456.243 -353.69
L450.592 -353.504
L444.942 -353.299
L439.291 -353.075
L433.641 -352.83
L427.99 -352.564
L423.358 -352.328
L422.339 -352.276
L416.689 -351.968
L411.038 -351.635
L405.387 -351.279
L399.737 -350.896
L394.086 -350.486
L388.435 -350.048
L382.785 -349.58
L377.134 -349.082
L371.484 -348.551
L365.833 -347.985
L365.706 -347.972
L360.182 -347.387
L354.532 -346.751
L348.881 -346.076
L343.23 -345.358
L337.58 -344.595
L331.929 -343.786
L330.79 -343.615
L326.278 -342.93
L320.628 -342.022
L314.977 -341.057
L309.327 -340.032
L305.285 -339.259
L303.676 -338.945
L298.025 -337.792
L292.375 -336.566
L286.724 -335.26
L285.239 -334.903
L281.073 -333.873
L275.423 -332.396
L269.772 -330.818
L268.835 -330.546
L264.122 -329.136
L258.471 -327.336
L255.063 -326.19
L252.82 -325.409
L247.17 -323.342
L243.286 -321.833
L241.519 -321.12
L235.868 -318.726
L233.079 -317.477
L230.218 -316.14
L224.567 -313.34
L224.141 -313.12
L218.916 -310.294
L216.243 -308.764
L213.266 -306.972
L209.221 -304.407
L207.615 -303.333
L202.942 -300.051
L201.965 -299.324
L197.298 -295.694
L196.314 -294.881
L192.205 -291.338
L190.663 -289.918
L187.595 -286.982
L185.013 -284.328
L183.413 -282.625
L179.612 -278.269
L179.362 -277.963
L176.142 -273.912
L173.711 -270.578
L172.986 -269.556
L170.1 -265.199
L168.061 -261.834
L167.473 -260.843
L165.071 -256.486
L162.892 -252.13
L162.41 -251.087
L160.903 -247.773
L159.102 -243.417
L157.481 -239.061
L156.759 -236.915
L156.022 -234.704
L154.715 -230.348
L153.562 -225.991
L152.557 -221.635
L151.694 -217.278
L151.109 -213.774
L150.966 -212.922
L150.367 -208.565
L149.902 -204.209
L149.57 -199.852
L149.372 -195.496
L149.307 -191.139
L149.379 -186.783
L149.591 -182.427
L149.947 -178.07
L150.453 -173.714
L151.109 -169.412
L151.117 -169.357
L151.933 -165.001
L152.925 -160.644
L154.104 -156.288
L155.488 -151.931
L156.759 -148.471
L157.089 -147.575
L158.907 -143.218
L160.995 -138.862
L162.41 -136.252
L163.365 -134.506
L166.041 -130.149
L168.061 -127.239
L169.078 -125.793
L172.505 -121.436
L173.711 -120.06
L176.377 -117.08
L179.362 -114.097
L180.771 -112.723
L185.013 -109.002
L185.758 -108.367
L190.663 -104.581
L191.428 -104.01
L196.314 -100.689
L197.899 -99.6539
L201.965 -97.2215
L205.333 -95.2975
L207.615 -94.0973
L213.266 -91.2648
L213.933 -90.941
L218.916 -88.701
L223.933 -86.5846
L224.567 -86.3357
L230.218 -84.1785
L235.694 -82.2281
L235.868 -82.1701
L241.519 -80.3284
L247.17 -78.6069
L249.685 -77.8716
L252.82 -77.0085
L258.471 -75.5205
L264.122 -74.125
L266.693 -73.5152
L269.772 -72.823
L275.423 -71.6061
L281.073 -70.4627
L286.724 -69.3887
L287.973 -69.1587
L292.375 -68.3848
L298.025 -67.4427
L303.676 -66.5579
L309.327 -65.7277
L314.977 -64.9498
L316.09 -64.8023
L320.628 -64.2223
L326.278 -63.5418
L331.929 -62.9063
L337.58 -62.3144
L343.23 -61.7645
L348.881 -61.2553
L354.532 -60.7857
L358.96 -60.4458
L360.182 -60.3539
L365.833 -59.9573
L371.484 -59.5965
L377.134 -59.2703
L382.785 -58.9778
L388.435 -58.7178
L394.086 -58.489
L399.737 -58.2901
L405.387 -58.1197
L411.038 -57.9761
L416.689 -57.8575
L422.339 -57.7622
L427.99 -57.688
L433.641 -57.633
L439.291 -57.595
L444.942 -57.5718
L450.592 -57.5612
L456.243 -57.561
L461.894 -57.569
L467.544 -57.5833
L473.195 -57.6018
L478.846 -57.6228
L484.496 -57.6445
L490.147 -57.6656
L495.797 -57.6846
L501.448 -57.7005
L507.099 -57.7125
L512.749 -57.72
L518.4 -57.7225
L518.4 -56.0894
L518.4 -51.7329
L518.4 -47.3765
L518.4 -43.02
L512.749 -43.02
L507.099 -43.02
L501.448 -43.02
L495.797 -43.02
L490.147 -43.02
L484.496 -43.02
L478.846 -43.02
L473.195 -43.02
L467.544 -43.02
L461.894 -43.02
L456.243 -43.02
L450.592 -43.02
L444.942 -43.02
L439.291 -43.02
L433.641 -43.02
L427.99 -43.02
L422.339 -43.02
L416.689 -43.02
L411.038 -43.02
L405.387 -43.02
L399.737 -43.02
L394.086 -43.02
L388.435 -43.02
L382.785 -43.02
L377.134 -43.02
L371.484 -43.02
L365.833 -43.02
L360.182 -43.02
L354.532 -43.02
L348.881 -43.02
L343.23 -43.02
L337.58 -43.02
L331.929 -43.02
L326.278 -43.02
L320.628 -43.02
L314.977 -43.02
L309.327 -43.02
L303.676 -43.02
L298.025 -43.02
L292.375 -43.02
L286.724 -43.02
L281.073 -43.02
L275.423 -43.02
L269.772 -43.02
L264.122 -43.02
L258.471 -43.02
L252.82 -43.02
L247.17 -43.02
L241.519 -43.02
L235.868 -43.02
L230.218 -43.02
L224.567 -43.02
L218.916 -43.02
L213.266 -43.02
L207.615 -43.02
L201.965 -43.02
L196.314 -43.02
L190.663 -43.02
L185.013 -43.02
L179.362 -43.02
L173.711 -43.02
L168.061 -43.02
L162.41 -43.02
L156.759 -43.02
L151.109 -43.02
L145.458 -43.02
L139.808 -43.02
L134.157 -43.02
L128.506 -43.02
L122.856 -43.02
L117.205 -43.02
L111.554 -43.02
L105.904 -43.02
L100.253 -43.02
L94.6025 -43.02
L88.9519 -43.02
L83.3013 -43.02
L77.6506 -43.02
L72 -43.02" id="C0_0_d7d2fd4cec"/>
    </defs>
    <g clip-path="url(#p8092a36277)">
     <use style="fill:#0000c8;" x="0.0" xlink:href="#C0_0_d7d2fd4cec" y="430.2"/>
    </g>
   </g>
   <g id="PathCollection_2">
    <defs>
     <path d="
M150.453 -173.714
L149.947 -178.07
L149.591 -182.427
L149.379 -186.783
L149.307 -191.139
L149.372 -195.496
L149.57 -199.852
L149.902 -204.209
L150.367 -208.565
L150.966 -212.922
L151.109 -213.774
L151.694 -217.278
L152.557 -221.635
L153.562 -225.991
L154.715 -230.348
L156.022 -234.704
L156.759 -236.915
L157.481 -239.061
L159.102 -243.417
L160.903 -247.773
L162.41 -251.087
L162.892 -252.13
L165.071 -256.486
L167.473 -260.843
L168.061 -261.834
L170.1 -265.199
L172.986 -269.556
L173.711 -270.578
L176.142 -273.912
L179.362 -277.963
L179.612 -278.269
L183.413 -282.625
L185.013 -284.328
L187.595 -286.982
L190.663 -289.918
L192.205 -291.338
L196.314 -294.881
L197.298 -295.694
L201.965 -299.324
L202.942 -300.051
L207.615 -303.333
L209.221 -304.407
L213.266 -306.972
L216.243 -308.764
L218.916 -310.294
L224.141 -313.12
L224.567 -313.34
L230.218 -316.14
L233.079 -317.477
L235.868 -318.726
L241.519 -321.12
L243.286 -321.833
L247.17 -323.342
L252.82 -325.409
L255.063 -326.19
L258.471 -327.336
L264.122 -329.136
L268.835 -330.546
L269.772 -330.818
L275.423 -332.396
L281.073 -333.873
L285.239 -334.903
L286.724 -335.26
L292.375 -336.566
L298.025 -337.792
L303.676 -338.945
L305.285 -339.259
L309.327 -340.032
L314.977 -341.057
L320.628 -342.022
L326.278 -342.93
L330.79 -343.615
L331.929 -343.786
L337.58 -344.595
L343.23 -345.358
L348.881 -346.076
L354.532 -346.751
L360.182 -347.387
L365.706 -347.972
L365.833 -347.985
L371.484 -348.551
L377.134 -349.082
L382.785 -349.58
L388.435 -350.048
L394.086 -350.486
L399.737 -350.896
L405.387 -351.279
L411.038 -351.635
L416.689 -351.968
L422.339 -352.276
L423.358 -352.328
L427.99 -352.564
L433.641 -352.83
L439.291 -353.075
L444.942 -353.299
L450.592 -353.504
L456.243 -353.69
L461.894 -353.858
L467.544 -354.009
L473.195 -354.142
L478.846 -354.258
L484.496 -354.358
L490.147 -354.442
L495.797 -354.51
L501.448 -354.563
L507.099 -354.601
L512.749 -354.624
L518.4 -354.631
L518.4 -352.328
L518.4 -347.972
L518.4 -343.615
L518.4 -339.259
L518.4 -334.903
L518.4 -330.546
L518.4 -326.19
L518.4 -323.276
L512.749 -323.263
L507.099 -323.222
L501.448 -323.155
L495.797 -323.06
L490.147 -322.938
L484.496 -322.787
L478.846 -322.607
L473.195 -322.397
L467.544 -322.157
L461.894 -321.884
L460.952 -321.833
L456.243 -321.581
L450.592 -321.244
L444.942 -320.872
L439.291 -320.463
L433.641 -320.015
L427.99 -319.527
L422.339 -318.995
L416.689 -318.419
L411.038 -317.795
L408.349 -317.477
L405.387 -317.127
L399.737 -316.41
L394.086 -315.638
L388.435 -314.809
L382.785 -313.918
L378.056 -313.12
L377.134 -312.964
L371.484 -311.953
L365.833 -310.869
L360.182 -309.708
L355.867 -308.764
L354.532 -308.469
L348.881 -307.156
L343.23 -305.749
L338.18 -304.407
L337.58 -304.246
L331.929 -302.652
L326.278 -300.946
L323.475 -300.051
L320.628 -299.126
L314.977 -297.185
L310.897 -295.694
L309.327 -295.108
L303.676 -292.89
L299.953 -291.338
L298.025 -290.512
L292.375 -287.962
L290.308 -286.982
L286.724 -285.223
L281.729 -282.625
L281.073 -282.271
L275.423 -279.084
L274.043 -278.269
L269.772 -275.629
L267.122 -273.912
L264.122 -271.869
L260.866 -269.556
L258.471 -267.757
L255.196 -265.199
L252.82 -263.228
L250.046 -260.843
L247.17 -258.198
L245.365 -256.486
L241.519 -252.555
L241.114 -252.13
L237.243 -247.773
L235.868 -246.089
L233.732 -243.417
L230.565 -239.061
L230.218 -238.54
L227.692 -234.704
L225.131 -230.348
L224.567 -229.285
L222.833 -225.991
L220.806 -221.635
L219.048 -217.278
L218.916 -216.903
L217.515 -212.922
L216.227 -208.565
L215.181 -204.209
L214.369 -199.852
L213.788 -195.496
L213.436 -191.139
L213.312 -186.783
L213.418 -182.427
L213.758 -178.07
L214.34 -173.714
L215.172 -169.357
L216.268 -165.001
L217.643 -160.644
L218.916 -157.323
L219.306 -156.288
L221.245 -151.931
L223.529 -147.575
L224.567 -145.853
L226.141 -143.218
L229.132 -138.862
L230.218 -137.466
L232.512 -134.506
L235.868 -130.697
L236.352 -130.149
L240.655 -125.793
L241.519 -125.007
L245.489 -121.436
L247.17 -120.077
L250.93 -117.08
L252.82 -115.715
L257.054 -112.723
L258.471 -111.81
L263.967 -108.367
L264.122 -108.278
L269.772 -105.09
L271.756 -104.01
L275.423 -102.166
L280.651 -99.6539
L281.073 -99.4654
L286.724 -96.9976
L290.835 -95.2975
L292.375 -94.7015
L298.025 -92.5851
L302.689 -90.941
L303.676 -90.6127
L309.327 -88.7915
L314.977 -87.0928
L316.742 -86.5846
L320.628 -85.5189
L326.278 -84.0576
L331.929 -82.7014
L334.011 -82.2281
L337.58 -81.4465
L343.23 -80.2865
L348.881 -79.2183
L354.532 -78.2394
L356.817 -77.8716
L360.182 -77.3423
L365.833 -76.5243
L371.484 -75.7856
L377.134 -75.1236
L382.785 -74.5356
L388.435 -74.0186
L394.086 -73.5694
L394.873 -73.5152
L399.737 -73.1798
L405.387 -72.8511
L411.038 -72.5803
L416.689 -72.3636
L422.339 -72.1966
L427.99 -72.075
L433.641 -71.9939
L439.291 -71.9487
L444.942 -71.9343
L450.592 -71.9457
L456.243 -71.9779
L461.894 -72.0261
L467.544 -72.0857
L473.195 -72.1521
L478.846 -72.2212
L484.496 -72.2892
L490.147 -72.3527
L495.797 -72.4088
L501.448 -72.4551
L507.099 -72.4895
L512.749 -72.5108
L518.4 -72.5179
L518.4 -69.1587
L518.4 -64.8023
L518.4 -60.4458
L518.4 -57.7225
L512.749 -57.72
L507.099 -57.7125
L501.448 -57.7005
L495.797 -57.6846
L490.147 -57.6656
L484.496 -57.6445
L478.846 -57.6228
L473.195 -57.6018
L467.544 -57.5833
L461.894 -57.569
L456.243 -57.561
L450.592 -57.5612
L444.942 -57.5718
L439.291 -57.595
L433.641 -57.633
L427.99 -57.688
L422.339 -57.7622
L416.689 -57.8575
L411.038 -57.9761
L405.387 -58.1197
L399.737 -58.2901
L394.086 -58.489
L388.435 -58.7178
L382.785 -58.9778
L377.134 -59.2703
L371.484 -59.5965
L365.833 -59.9573
L360.182 -60.3539
L358.96 -60.4458
L354.532 -60.7857
L348.881 -61.2553
L343.23 -61.7645
L337.58 -62.3144
L331.929 -62.9063
L326.278 -63.5418
L320.628 -64.2223
L316.09 -64.8023
L314.977 -64.9498
L309.327 -65.7277
L303.676 -66.5579
L298.025 -67.4427
L292.375 -68.3848
L287.973 -69.1587
L286.724 -69.3887
L281.073 -70.4627
L275.423 -71.6061
L269.772 -72.823
L266.693 -73.5152
L264.122 -74.125
L258.471 -75.5205
L252.82 -77.0085
L249.685 -77.8716
L247.17 -78.6069
L241.519 -80.3284
L235.868 -82.1701
L235.694 -82.2281
L230.218 -84.1785
L224.567 -86.3357
L223.933 -86.5846
L218.916 -88.701
L213.933 -90.941
L213.266 -91.2648
L207.615 -94.0973
L205.333 -95.2975
L201.965 -97.2215
L197.899 -99.6539
L196.314 -100.689
L191.428 -104.01
L190.663 -104.581
L185.758 -108.367
L185.013 -109.002
L180.771 -112.723
L179.362 -114.097
L176.377 -117.08
L173.711 -120.06
L172.505 -121.436
L169.078 -125.793
L168.061 -127.239
L166.041 -130.149
L163.365 -134.506
L162.41 -136.252
L160.995 -138.862
L158.907 -143.218
L157.089 -147.575
L156.759 -148.471
L155.488 -151.931
L154.104 -156.288
L152.925 -160.644
L151.933 -165.001
L151.117 -169.357
L151.109 -169.412
L150.453 -173.714" id="C1_0_3014eb754a"/>
    </defs>
    <g clip-path="url(#p8092a36277)">
     <use style="fill:#0040ff;" x="0.0" xlink:href="#C1_0_3014eb754a" y="430.2"/>
    </g>
   </g>
   <g id="PathCollection_3">
    <defs>
     <path d="
M217.643 -160.644
L216.268 -165.001
L215.172 -169.357
L214.34 -173.714
L213.758 -178.07
L213.418 -182.427
L213.312 -186.783
L213.436 -191.139
L213.788 -195.496
L214.369 -199.852
L215.181 -204.209
L216.227 -208.565
L217.515 -212.922
L218.916 -216.903
L219.048 -217.278
L220.806 -221.635
L222.833 -225.991
L224.567 -229.285
L225.131 -230.348
L227.692 -234.704
L230.218 -238.54
L230.565 -239.061
L233.732 -243.417
L235.868 -246.089
L237.243 -247.773
L241.114 -252.13
L241.519 -252.555
L245.365 -256.486
L247.17 -258.198
L250.046 -260.843
L252.82 -263.228
L255.196 -265.199
L258.471 -267.757
L260.866 -269.556
L264.122 -271.869
L267.122 -273.912
L269.772 -275.629
L274.043 -278.269
L275.423 -279.084
L281.073 -282.271
L281.729 -282.625
L286.724 -285.223
L290.308 -286.982
L292.375 -287.962
L298.025 -290.512
L299.953 -291.338
L303.676 -292.89
L309.327 -295.108
L310.897 -295.694
L314.977 -297.185
L320.628 -299.126
L323.475 -300.051
L326.278 -300.946
L331.929 -302.652
L337.58 -304.246
L338.18 -304.407
L343.23 -305.749
L348.881 -307.156
L354.532 -308.469
L355.867 -308.764
L360.182 -309.708
L365.833 -310.869
L371.484 -311.953
L377.134 -312.964
L378.056 -313.12
L382.785 -313.918
L388.435 -314.809
L394.086 -315.638
L399.737 -316.41
L405.387 -317.127
L408.349 -317.477
L411.038 -317.795
L416.689 -318.419
L422.339 -318.995
L427.99 -319.527
L433.641 -320.015
L439.291 -320.463
L444.942 -320.872
L450.592 -321.244
L456.243 -321.581
L460.952 -321.833
L461.894 -321.884
L467.544 -322.157
L473.195 -322.397
L478.846 -322.607
L484.496 -322.787
L490.147 -322.938
L495.797 -323.06
L501.448 -323.155
L507.099 -323.222
L512.749 -323.263
L518.4 -323.276
L518.4 -321.833
L518.4 -317.477
L518.4 -313.12
L518.4 -308.764
L518.4 -304.407
L518.4 -300.051
L518.4 -295.694
L518.4 -293.84
L512.749 -293.825
L507.099 -293.779
L501.448 -293.702
L495.797 -293.593
L490.147 -293.452
L484.496 -293.277
L478.846 -293.066
L473.195 -292.819
L467.544 -292.534
L461.894 -292.207
L456.243 -291.837
L450.592 -291.421
L449.586 -291.338
L444.942 -290.962
L439.291 -290.453
L433.641 -289.89
L427.99 -289.269
L422.339 -288.585
L416.689 -287.834
L411.038 -287.011
L410.851 -286.982
L405.387 -286.129
L399.737 -285.166
L394.086 -284.116
L388.435 -282.972
L386.845 -282.625
L382.785 -281.745
L377.134 -280.419
L371.484 -278.975
L368.907 -278.269
L365.833 -277.425
L360.182 -275.753
L354.532 -273.936
L354.461 -273.912
L348.881 -271.996
L343.23 -269.883
L342.402 -269.556
L337.58 -267.614
L332.046 -265.199
L331.929 -265.147
L326.278 -262.486
L323.029 -260.843
L320.628 -259.588
L315.073 -256.486
L314.977 -256.431
L309.327 -252.98
L308.01 -252.13
L303.676 -249.183
L301.706 -247.773
L298.025 -244.977
L296.062 -243.417
L292.375 -240.274
L291.005 -239.061
L286.724 -234.948
L286.479 -234.704
L282.417 -230.348
L281.073 -228.754
L278.797 -225.991
L275.602 -221.635
L275.423 -221.364
L272.761 -217.278
L270.309 -212.922
L269.772 -211.826
L268.181 -208.565
L266.391 -204.209
L264.935 -199.852
L264.122 -196.745
L263.791 -195.496
L262.939 -191.139
L262.399 -186.783
L262.167 -182.427
L262.244 -178.07
L262.635 -173.714
L263.347 -169.357
L264.122 -166.133
L264.384 -165.001
L265.732 -160.644
L267.443 -156.288
L269.548 -151.931
L269.772 -151.539
L271.995 -147.575
L274.896 -143.218
L275.423 -142.532
L278.206 -138.862
L281.073 -135.599
L282.029 -134.506
L286.38 -130.149
L286.724 -129.842
L291.3 -125.793
L292.375 -124.945
L296.894 -121.436
L298.025 -120.646
L303.259 -117.08
L303.676 -116.822
L309.327 -113.409
L310.501 -112.723
L314.977 -110.328
L318.832 -108.367
L320.628 -107.52
L326.278 -104.973
L328.532 -104.01
L331.929 -102.65
L337.58 -100.531
L340.072 -99.6539
L343.23 -98.5991
L348.881 -96.8413
L354.343 -95.2975
L354.532 -95.2462
L360.182 -93.8007
L365.833 -92.5013
L371.484 -91.3428
L373.661 -90.941
L377.134 -90.3108
L382.785 -89.4014
L388.435 -88.6139
L394.086 -87.9422
L399.737 -87.38
L405.387 -86.9206
L410.609 -86.5846
L411.038 -86.5566
L416.689 -86.2773
L422.339 -86.0812
L427.99 -85.9608
L433.641 -85.9079
L439.291 -85.9139
L444.942 -85.9703
L450.592 -86.0681
L456.243 -86.1983
L461.894 -86.3522
L467.544 -86.5209
L469.605 -86.5846
L473.195 -86.6968
L478.846 -86.8723
L484.496 -87.0401
L490.147 -87.1939
L495.797 -87.3278
L501.448 -87.4371
L507.099 -87.5179
L512.749 -87.5675
L518.4 -87.5843
L518.4 -86.5846
L518.4 -82.2281
L518.4 -77.8716
L518.4 -73.5152
L518.4 -72.5179
L512.749 -72.5108
L507.099 -72.4895
L501.448 -72.4551
L495.797 -72.4088
L490.147 -72.3527
L484.496 -72.2892
L478.846 -72.2212
L473.195 -72.1521
L467.544 -72.0857
L461.894 -72.0261
L456.243 -71.9779
L450.592 -71.9457
L444.942 -71.9343
L439.291 -71.9487
L433.641 -71.9939
L427.99 -72.075
L422.339 -72.1966
L416.689 -72.3636
L411.038 -72.5803
L405.387 -72.8511
L399.737 -73.1798
L394.873 -73.5152
L394.086 -73.5694
L388.435 -74.0186
L382.785 -74.5356
L377.134 -75.1236
L371.484 -75.7856
L365.833 -76.5243
L360.182 -77.3423
L356.817 -77.8716
L354.532 -78.2394
L348.881 -79.2183
L343.23 -80.2865
L337.58 -81.4465
L334.011 -82.2281
L331.929 -82.7014
L326.278 -84.0576
L320.628 -85.5189
L316.742 -86.5846
L314.977 -87.0928
L309.327 -88.7915
L303.676 -90.6127
L302.689 -90.941
L298.025 -92.5851
L292.375 -94.7015
L290.835 -95.2975
L286.724 -96.9976
L281.073 -99.4654
L280.651 -99.6539
L275.423 -102.166
L271.756 -104.01
L269.772 -105.09
L264.122 -108.278
L263.967 -108.367
L258.471 -111.81
L257.054 -112.723
L252.82 -115.715
L250.93 -117.08
L247.17 -120.077
L245.489 -121.436
L241.519 -125.007
L240.655 -125.793
L236.352 -130.149
L235.868 -130.697
L232.512 -134.506
L230.218 -137.466
L229.132 -138.862
L226.141 -143.218
L224.567 -145.853
L223.529 -147.575
L221.245 -151.931
L219.306 -156.288
L218.916 -157.323
L217.643 -160.644" id="C2_0_ec3bedd316"/>
    </defs>
    <g clip-path="url(#p8092a36277)">
     <use style="fill:#00c0ff;" x="0.0" xlink:href="#C2_0_ec3bedd316" y="430.2"/>
    </g>
   </g>
   <g id="PathCollection_4">
    <defs>
     <path d="
M263.347 -169.357
L262.635 -173.714
L262.244 -178.07
L262.167 -182.427
L262.399 -186.783
L262.939 -191.139
L263.791 -195.496
L264.122 -196.745
L264.935 -199.852
L266.391 -204.209
L268.181 -208.565
L269.772 -211.826
L270.309 -212.922
L272.761 -217.278
L275.423 -221.364
L275.602 -221.635
L278.797 -225.991
L281.073 -228.754
L282.417 -230.348
L286.479 -234.704
L286.724 -234.948
L291.005 -239.061
L292.375 -240.274
L296.062 -243.417
L298.025 -244.977
L301.706 -247.773
L303.676 -249.183
L308.01 -252.13
L309.327 -252.98
L314.977 -256.431
L315.073 -256.486
L320.628 -259.588
L323.029 -260.843
L326.278 -262.486
L331.929 -265.147
L332.046 -265.199
L337.58 -267.614
L342.402 -269.556
L343.23 -269.883
L348.881 -271.996
L354.461 -273.912
L354.532 -273.936
L360.182 -275.753
L365.833 -277.425
L368.907 -278.269
L371.484 -278.975
L377.134 -280.419
L382.785 -281.745
L386.845 -282.625
L388.435 -282.972
L394.086 -284.116
L399.737 -285.166
L405.387 -286.129
L410.851 -286.982
L411.038 -287.011
L416.689 -287.834
L422.339 -288.585
L427.99 -289.269
L433.641 -289.89
L439.291 -290.453
L444.942 -290.962
L449.586 -291.338
L450.592 -291.421
L456.243 -291.837
L461.894 -292.207
L467.544 -292.534
L473.195 -292.819
L478.846 -293.066
L484.496 -293.277
L490.147 -293.452
L495.797 -293.593
L501.448 -293.702
L507.099 -293.779
L512.749 -293.825
L518.4 -293.84
L518.4 -291.338
L518.4 -286.982
L518.4 -282.625
L518.4 -278.269
L518.4 -273.912
L518.4 -269.556
L518.4 -266.3
L512.749 -266.291
L507.099 -266.264
L501.448 -266.218
L495.797 -266.152
L490.147 -266.064
L484.496 -265.95
L478.846 -265.808
L473.195 -265.634
L467.544 -265.424
L462.472 -265.199
L461.894 -265.174
L456.243 -264.883
L450.592 -264.542
L444.942 -264.145
L439.291 -263.686
L433.641 -263.158
L427.99 -262.554
L422.339 -261.864
L416.689 -261.079
L415.177 -260.843
L411.038 -260.211
L405.387 -259.238
L399.737 -258.143
L394.086 -256.913
L392.316 -256.486
L388.435 -255.564
L382.785 -254.067
L377.134 -252.392
L376.322 -252.13
L371.484 -250.567
L365.833 -248.533
L363.898 -247.773
L360.182 -246.297
L354.532 -243.814
L353.692 -243.417
L348.881 -241.077
L345.095 -239.061
L343.23 -238.027
L337.705 -234.704
L337.58 -234.624
L331.929 -230.801
L331.301 -230.348
L326.278 -226.454
L325.714 -225.991
L320.833 -221.635
L320.628 -221.434
L316.559 -217.278
L314.977 -215.455
L312.847 -212.922
L309.657 -208.565
L309.327 -208.048
L306.911 -204.209
L304.63 -199.852
L303.676 -197.628
L302.761 -195.496
L301.283 -191.139
L300.208 -186.783
L299.522 -182.427
L299.214 -178.07
L299.281 -173.714
L299.726 -169.357
L300.562 -165.001
L301.805 -160.644
L303.485 -156.288
L303.676 -155.895
L305.55 -151.931
L308.109 -147.575
L309.327 -145.846
L311.15 -143.218
L314.759 -138.862
L314.977 -138.633
L318.922 -134.506
L320.628 -132.961
L323.778 -130.149
L326.278 -128.188
L329.419 -125.793
L331.929 -124.086
L335.997 -121.436
L337.58 -120.504
L343.23 -117.354
L343.749 -117.08
L348.881 -114.584
L353.064 -112.723
L354.532 -112.114
L360.182 -109.935
L364.729 -108.367
L365.833 -108.005
L371.484 -106.311
L377.134 -104.834
L380.754 -104.01
L382.785 -103.559
L388.435 -102.47
L394.086 -101.561
L399.737 -100.821
L405.387 -100.24
L411.038 -99.8063
L413.93 -99.6539
L416.689 -99.5068
L422.339 -99.3327
L427.99 -99.2746
L433.641 -99.3205
L439.291 -99.4574
L444.476 -99.6539
L444.942 -99.6718
L450.592 -99.9498
L456.243 -100.278
L461.894 -100.642
L467.544 -101.028
L473.195 -101.419
L478.846 -101.802
L484.496 -102.163
L490.147 -102.491
L495.797 -102.774
L501.448 -103.004
L507.099 -103.173
L512.749 -103.277
L518.4 -103.312
L518.4 -99.6539
L518.4 -95.2975
L518.4 -90.941
L518.4 -87.5843
L512.749 -87.5675
L507.099 -87.5179
L501.448 -87.4371
L495.797 -87.3278
L490.147 -87.1939
L484.496 -87.0401
L478.846 -86.8723
L473.195 -86.6968
L469.605 -86.5846
L467.544 -86.5209
L461.894 -86.3522
L456.243 -86.1983
L450.592 -86.0681
L444.942 -85.9703
L439.291 -85.9139
L433.641 -85.9079
L427.99 -85.9608
L422.339 -86.0812
L416.689 -86.2773
L411.038 -86.5566
L410.609 -86.5846
L405.387 -86.9206
L399.737 -87.38
L394.086 -87.9422
L388.435 -88.6139
L382.785 -89.4014
L377.134 -90.3108
L373.661 -90.941
L371.484 -91.3428
L365.833 -92.5013
L360.182 -93.8007
L354.532 -95.2462
L354.343 -95.2975
L348.881 -96.8413
L343.23 -98.5991
L340.072 -99.6539
L337.58 -100.531
L331.929 -102.65
L328.532 -104.01
L326.278 -104.973
L320.628 -107.52
L318.832 -108.367
L314.977 -110.328
L310.501 -112.723
L309.327 -113.409
L303.676 -116.822
L303.259 -117.08
L298.025 -120.646
L296.894 -121.436
L292.375 -124.945
L291.3 -125.793
L286.724 -129.842
L286.38 -130.149
L282.029 -134.506
L281.073 -135.599
L278.206 -138.862
L275.423 -142.532
L274.896 -143.218
L271.995 -147.575
L269.772 -151.539
L269.548 -151.931
L267.443 -156.288
L265.732 -160.644
L264.384 -165.001
L264.122 -166.133
L263.347 -169.357" id="C3_0_cc2c4ee16d"/>
    </defs>
    <g clip-path="url(#p8092a36277)">
     <use style="fill:#49ffad;" x="0.0" xlink:href="#C3_0_cc2c4ee16d" y="430.2"/>
    </g>
   </g>
   <g id="PathCollection_5">
    <defs>
     <path d="
M303.485 -156.288
L301.805 -160.644
L300.562 -165.001
L299.726 -169.357
L299.281 -173.714
L299.214 -178.07
L299.522 -182.427
L300.208 -186.783
L301.283 -191.139
L302.761 -195.496
L303.676 -197.628
L304.63 -199.852
L306.911 -204.209
L309.327 -208.048
L309.657 -208.565
L312.847 -212.922
L314.977 -215.455
L316.559 -217.278
L320.628 -221.434
L320.833 -221.635
L325.714 -225.991
L326.278 -226.454
L331.301 -230.348
L331.929 -230.801
L337.58 -234.624
L337.705 -234.704
L343.23 -238.027
L345.095 -239.061
L348.881 -241.077
L353.692 -243.417
L354.532 -243.814
L360.182 -246.297
L363.898 -247.773
L365.833 -248.533
L371.484 -250.567
L376.322 -252.13
L377.134 -252.392
L382.785 -254.067
L388.435 -255.564
L392.316 -256.486
L394.086 -256.913
L399.737 -258.143
L405.387 -259.238
L411.038 -260.211
L415.177 -260.843
L416.689 -261.079
L422.339 -261.864
L427.99 -262.554
L433.641 -263.158
L439.291 -263.686
L444.942 -264.145
L450.592 -264.542
L456.243 -264.883
L461.894 -265.174
L462.472 -265.199
L467.544 -265.424
L473.195 -265.634
L478.846 -265.808
L484.496 -265.95
L490.147 -266.064
L495.797 -266.152
L501.448 -266.218
L507.099 -266.264
L512.749 -266.291
L518.4 -266.3
L518.4 -265.199
L518.4 -260.843
L518.4 -256.486
L518.4 -252.13
L518.4 -247.773
L518.4 -243.417
L518.4 -239.632
L512.749 -239.648
L507.099 -239.698
L501.448 -239.776
L495.797 -239.88
L490.147 -240.001
L484.496 -240.133
L478.846 -240.265
L473.195 -240.388
L467.544 -240.491
L461.894 -240.561
L456.243 -240.586
L450.592 -240.553
L444.942 -240.451
L439.291 -240.265
L433.641 -239.983
L427.99 -239.59
L422.339 -239.071
L422.253 -239.061
L416.689 -238.432
L411.038 -237.642
L405.387 -236.682
L399.737 -235.533
L396.276 -234.704
L394.086 -234.188
L388.435 -232.637
L382.785 -230.824
L381.473 -230.348
L377.134 -228.755
L371.484 -226.364
L370.688 -225.991
L365.833 -223.629
L362.198 -221.635
L360.182 -220.467
L355.227 -217.278
L354.532 -216.795
L349.424 -212.922
L348.881 -212.467
L344.547 -208.565
L343.23 -207.218
L340.445 -204.209
L337.58 -200.574
L337.032 -199.852
L334.208 -195.496
L331.969 -191.139
L331.929 -191.042
L330.211 -186.783
L328.961 -182.427
L328.195 -178.07
L327.897 -173.714
L328.061 -169.357
L328.693 -165.001
L329.812 -160.644
L331.449 -156.288
L331.929 -155.322
L333.584 -151.931
L336.308 -147.575
L337.58 -145.915
L339.656 -143.218
L343.23 -139.388
L343.733 -138.862
L348.635 -134.506
L348.881 -134.315
L354.532 -130.171
L354.563 -130.149
L360.182 -126.722
L361.855 -125.793
L365.833 -123.788
L371.098 -121.436
L371.484 -121.277
L377.134 -119.171
L382.785 -117.384
L383.908 -117.08
L388.435 -115.907
L394.086 -114.705
L399.737 -113.755
L405.387 -113.04
L408.984 -112.723
L411.038 -112.544
L416.689 -112.251
L422.339 -112.146
L427.99 -112.215
L433.641 -112.439
L438.072 -112.723
L439.291 -112.804
L444.942 -113.294
L450.592 -113.888
L456.243 -114.563
L461.894 -115.296
L467.544 -116.061
L473.195 -116.831
L475.095 -117.08
L478.846 -117.601
L484.496 -118.335
L490.147 -119.001
L495.797 -119.578
L501.448 -120.046
L507.099 -120.392
L512.749 -120.603
L518.4 -120.675
L518.4 -117.08
L518.4 -112.723
L518.4 -108.367
L518.4 -104.01
L518.4 -103.312
L512.749 -103.277
L507.099 -103.173
L501.448 -103.004
L495.797 -102.774
L490.147 -102.491
L484.496 -102.163
L478.846 -101.802
L473.195 -101.419
L467.544 -101.028
L461.894 -100.642
L456.243 -100.278
L450.592 -99.9498
L444.942 -99.6718
L444.476 -99.6539
L439.291 -99.4574
L433.641 -99.3205
L427.99 -99.2746
L422.339 -99.3327
L416.689 -99.5068
L413.93 -99.6539
L411.038 -99.8063
L405.387 -100.24
L399.737 -100.821
L394.086 -101.561
L388.435 -102.47
L382.785 -103.559
L380.754 -104.01
L377.134 -104.834
L371.484 -106.311
L365.833 -108.005
L364.729 -108.367
L360.182 -109.935
L354.532 -112.114
L353.064 -112.723
L348.881 -114.584
L343.749 -117.08
L343.23 -117.354
L337.58 -120.504
L335.997 -121.436
L331.929 -124.086
L329.419 -125.793
L326.278 -128.188
L323.778 -130.149
L320.628 -132.961
L318.922 -134.506
L314.977 -138.633
L314.759 -138.862
L311.15 -143.218
L309.327 -145.846
L308.109 -147.575
L305.55 -151.931
L303.676 -155.895
L303.485 -156.288" id="C4_0_a6f4d78ac0"/>
    </defs>
    <g clip-path="url(#p8092a36277)">
     <use style="fill:#b1ff46;" x="0.0" xlink:href="#C4_0_a6f4d78ac0" y="430.2"/>
    </g>
   </g>
   <g id="PathCollection_6">
    <defs>
     <path d="
M331.449 -156.288
L329.812 -160.644
L328.693 -165.001
L328.061 -169.357
L327.897 -173.714
L328.195 -178.07
L328.961 -182.427
L330.211 -186.783
L331.929 -191.042
L331.969 -191.139
L334.208 -195.496
L337.032 -199.852
L337.58 -200.574
L340.445 -204.209
L343.23 -207.218
L344.547 -208.565
L348.881 -212.467
L349.424 -212.922
L354.532 -216.795
L355.227 -217.278
L360.182 -220.467
L362.198 -221.635
L365.833 -223.629
L370.688 -225.991
L371.484 -226.364
L377.134 -228.755
L381.473 -230.348
L382.785 -230.824
L388.435 -232.637
L394.086 -234.188
L396.276 -234.704
L399.737 -235.533
L405.387 -236.682
L411.038 -237.642
L416.689 -238.432
L422.253 -239.061
L422.339 -239.071
L427.99 -239.59
L433.641 -239.983
L439.291 -240.265
L444.942 -240.451
L450.592 -240.553
L456.243 -240.586
L461.894 -240.561
L467.544 -240.491
L473.195 -240.388
L478.846 -240.265
L484.496 -240.133
L490.147 -240.001
L495.797 -239.88
L501.448 -239.776
L507.099 -239.698
L512.749 -239.648
L518.4 -239.632
L518.4 -239.061
L518.4 -234.704
L518.4 -230.348
L518.4 -225.991
L518.4 -221.635
L518.4 -217.278
L518.4 -212.922
L518.4 -210.101
L512.749 -210.21
L507.099 -210.53
L501.448 -211.044
L495.797 -211.725
L490.147 -212.539
L487.813 -212.922
L484.496 -213.419
L478.846 -214.333
L473.195 -215.265
L467.544 -216.176
L461.894 -217.033
L460.147 -217.278
L456.243 -217.794
L450.592 -218.445
L444.942 -218.967
L439.291 -219.339
L433.641 -219.54
L427.99 -219.552
L422.339 -219.358
L416.689 -218.938
L411.038 -218.271
L405.387 -217.331
L405.143 -217.278
L399.737 -216.102
L394.086 -214.539
L389.353 -212.922
L388.435 -212.598
L382.785 -210.215
L379.486 -208.565
L377.134 -207.303
L372.177 -204.209
L371.484 -203.729
L366.536 -199.852
L365.833 -199.218
L362.092 -195.496
L360.182 -193.205
L358.581 -191.139
L355.878 -186.783
L354.532 -183.883
L353.881 -182.427
L352.537 -178.07
L351.81 -173.714
L351.685 -169.357
L352.159 -165.001
L353.25 -160.644
L354.532 -157.432
L354.992 -156.288
L357.438 -151.931
L360.182 -148.221
L360.682 -147.575
L364.88 -143.218
L365.833 -142.397
L370.294 -138.862
L371.484 -138.055
L377.134 -134.643
L377.394 -134.506
L382.785 -131.977
L387.485 -130.149
L388.435 -129.811
L394.086 -128.152
L399.737 -126.876
L405.387 -125.955
L406.945 -125.793
L411.038 -125.381
L416.689 -125.112
L422.339 -125.123
L427.99 -125.393
L432.44 -125.793
L433.641 -125.907
L439.291 -126.665
L444.942 -127.626
L450.592 -128.76
L456.243 -130.031
L456.746 -130.149
L461.894 -131.485
L467.544 -133.01
L473.045 -134.506
L473.195 -134.552
L478.846 -136.185
L484.496 -137.727
L489.109 -138.862
L490.147 -139.153
L495.797 -140.494
L501.448 -141.582
L507.099 -142.384
L512.749 -142.875
L518.4 -143.041
L518.4 -138.862
L518.4 -134.506
L518.4 -130.149
L518.4 -125.793
L518.4 -121.436
L518.4 -120.675
L512.749 -120.603
L507.099 -120.392
L501.448 -120.046
L495.797 -119.578
L490.147 -119.001
L484.496 -118.335
L478.846 -117.601
L475.095 -117.08
L473.195 -116.831
L467.544 -116.061
L461.894 -115.296
L456.243 -114.563
L450.592 -113.888
L444.942 -113.294
L439.291 -112.804
L438.072 -112.723
L433.641 -112.439
L427.99 -112.215
L422.339 -112.146
L416.689 -112.251
L411.038 -112.544
L408.984 -112.723
L405.387 -113.04
L399.737 -113.755
L394.086 -114.705
L388.435 -115.907
L383.908 -117.08
L382.785 -117.384
L377.134 -119.171
L371.484 -121.277
L371.098 -121.436
L365.833 -123.788
L361.855 -125.793
L360.182 -126.722
L354.563 -130.149
L354.532 -130.171
L348.881 -134.315
L348.635 -134.506
L343.733 -138.862
L343.23 -139.388
L339.656 -143.218
L337.58 -145.915
L336.308 -147.575
L333.584 -151.931
L331.929 -155.322
L331.449 -156.288" id="C5_0_8cd842cb11"/>
    </defs>
    <g clip-path="url(#p8092a36277)">
     <use style="fill:#ffd000;" x="0.0" xlink:href="#C5_0_8cd842cb11" y="430.2"/>
    </g>
   </g>
   <g id="PathCollection_7">
    <defs>
     <path d="
M353.25 -160.644
L352.159 -165.001
L351.685 -169.357
L351.81 -173.714
L352.537 -178.07
L353.881 -182.427
L354.532 -183.883
L355.878 -186.783
L358.581 -191.139
L360.182 -193.205
L362.092 -195.496
L365.833 -199.218
L366.536 -199.852
L371.484 -203.729
L372.177 -204.209
L377.134 -207.303
L379.486 -208.565
L382.785 -210.215
L388.435 -212.598
L389.353 -212.922
L394.086 -214.539
L399.737 -216.102
L405.143 -217.278
L405.387 -217.331
L411.038 -218.271
L416.689 -218.938
L422.339 -219.358
L427.99 -219.552
L433.641 -219.54
L439.291 -219.339
L444.942 -218.967
L450.592 -218.445
L456.243 -217.794
L460.147 -217.278
L461.894 -217.033
L467.544 -216.176
L473.195 -215.265
L478.846 -214.333
L484.496 -213.419
L487.813 -212.922
L490.147 -212.539
L495.797 -211.725
L501.448 -211.044
L507.099 -210.53
L512.749 -210.21
L518.4 -210.101
L518.4 -208.565
L518.4 -204.209
L518.4 -199.852
L518.4 -195.496
L518.4 -191.139
L518.4 -186.783
L518.4 -182.427
L518.4 -178.07
L518.4 -173.714
L518.4 -169.357
L518.4 -165.001
L518.4 -160.644
L518.4 -156.288
L518.4 -151.931
L518.4 -147.575
L518.4 -143.218
L518.4 -143.041
L512.749 -142.875
L507.099 -142.384
L501.448 -141.582
L495.797 -140.494
L490.147 -139.153
L489.109 -138.862
L484.496 -137.727
L478.846 -136.185
L473.195 -134.552
L473.045 -134.506
L467.544 -133.01
L461.894 -131.485
L456.746 -130.149
L456.243 -130.031
L450.592 -128.76
L444.942 -127.626
L439.291 -126.665
L433.641 -125.907
L432.44 -125.793
L427.99 -125.393
L422.339 -125.123
L416.689 -125.112
L411.038 -125.381
L406.945 -125.793
L405.387 -125.955
L399.737 -126.876
L394.086 -128.152
L388.435 -129.811
L387.485 -130.149
L382.785 -131.977
L377.394 -134.506
L377.134 -134.643
L371.484 -138.055
L370.294 -138.862
L365.833 -142.397
L364.88 -143.218
L360.682 -147.575
L360.182 -148.221
L357.438 -151.931
L354.992 -156.288
L354.532 -157.432
L353.25 -160.644
M376.288 -160.644
L377.134 -158.995
L378.668 -156.288
L382.254 -151.931
L382.785 -151.439
L387.649 -147.575
L388.435 -147.071
L394.086 -144.111
L396.316 -143.218
L399.737 -142.047
L405.387 -140.691
L411.038 -139.892
L416.689 -139.618
L422.339 -139.838
L427.99 -140.522
L433.641 -141.64
L439.291 -143.155
L439.491 -143.218
L444.942 -145.281
L450.187 -147.575
L450.592 -147.793
L456.243 -151.046
L457.727 -151.931
L461.894 -155.123
L463.433 -156.288
L467.544 -160.528
L467.664 -160.644
L470.659 -165.001
L472.245 -169.357
L472.459 -173.714
L471.237 -178.07
L468.411 -182.427
L467.544 -183.275
L463.925 -186.783
L461.894 -188.194
L457.388 -191.139
L456.243 -191.726
L450.592 -194.377
L447.811 -195.496
L444.942 -196.467
L439.291 -198.042
L433.641 -199.207
L428.779 -199.852
L427.99 -199.947
L422.339 -200.248
L416.689 -200.136
L413.774 -199.852
L411.038 -199.573
L405.387 -198.501
L399.737 -196.892
L396.131 -195.496
L394.086 -194.611
L388.435 -191.461
L387.962 -191.139
L382.785 -186.937
L382.624 -186.783
L379.006 -182.427
L377.134 -179.249
L376.517 -178.07
L375.11 -173.714
L374.604 -169.357
L374.99 -165.001
L376.288 -160.644" id="C6_0_921409d388"/>
    </defs>
    <g clip-path="url(#p8092a36277)">
     <use style="fill:#ff5900;" x="0.0" xlink:href="#C6_0_921409d388" y="430.2"/>
    </g>
   </g>
   <g id="PathCollection_8">
    <defs>
     <path d="
M376.288 -160.644
L374.99 -165.001
L374.604 -169.357
L375.11 -173.714
L376.517 -178.07
L377.134 -179.249
L379.006 -182.427
L382.624 -186.783
L382.785 -186.937
L387.962 -191.139
L388.435 -191.461
L394.086 -194.611
L396.131 -195.496
L399.737 -196.892
L405.387 -198.501
L411.038 -199.573
L413.774 -199.852
L416.689 -200.136
L422.339 -200.248
L427.99 -199.947
L428.779 -199.852
L433.641 -199.207
L439.291 -198.042
L444.942 -196.467
L447.811 -195.496
L450.592 -194.377
L456.243 -191.726
L457.388 -191.139
L461.894 -188.194
L463.925 -186.783
L467.544 -183.275
L468.411 -182.427
L471.237 -178.07
L472.459 -173.714
L472.245 -169.357
L470.659 -165.001
L467.664 -160.644
L467.544 -160.528
L463.433 -156.288
L461.894 -155.123
L457.727 -151.931
L456.243 -151.046
L450.592 -147.793
L450.187 -147.575
L444.942 -145.281
L439.491 -143.218
L439.291 -143.155
L433.641 -141.64
L427.99 -140.522
L422.339 -139.838
L416.689 -139.618
L411.038 -139.892
L405.387 -140.691
L399.737 -142.047
L396.316 -143.218
L394.086 -144.111
L388.435 -147.071
L387.649 -147.575
L382.785 -151.439
L382.254 -151.931
L378.668 -156.288
L377.134 -158.995
L376.288 -160.644" id="C7_0_e3a33ef677"/>
    </defs>
    <g clip-path="url(#p8092a36277)">
     <use style="fill:#c40000;" x="0.0" xlink:href="#C7_0_e3a33ef677" y="430.2"/>
    </g>
   </g>
   <g id="matplotlib.axis_1">
    <g id="xtick_1">
     <g id="line2d_1">
      <defs>
       <path d="
M0 0
L0 -4" id="m93b0483c22" style="stroke:#000000;stroke-width:0.5;"/>
      </defs>
      <g>
       <use style="stroke:#000000;stroke-width:0.5;" x="72.0" xlink:href="#m93b0483c22" y="387.18"/>
      </g>
     </g>
     <g id="line2d_2">
      <defs>
       <path d="
M0 0
L0 4" id="m741efc42ff" style="stroke:#000000;stroke-width:0.5;"/>
      </defs>
      <g>
       <use style="stroke:#000000;stroke-width:0.5;" x="72.0" xlink:href="#m741efc42ff" y="43.02"/>
      </g>
     </g>
     <g id="text_1">
      <!-- 0 -->
      <defs>
       <path d="
M31.7812 66.4062
Q24.1719 66.4062 20.3281 58.9062
Q16.5 51.4219 16.5 36.375
Q16.5 21.3906 20.3281 13.8906
Q24.1719 6.39062 31.7812 6.39062
Q39.4531 6.39062 43.2812 13.8906
Q47.125 21.3906 47.125 36.375
Q47.125 51.4219 43.2812 58.9062
Q39.4531 66.4062 31.7812 66.4062
M31.7812 74.2188
Q44.0469 74.2188 50.5156 64.5156
Q56.9844 54.8281 56.9844 36.375
Q56.9844 17.9688 50.5156 8.26562
Q44.0469 -1.42188 31.7812 -1.42188
Q19.5312 -1.42188 13.0625 8.26562
Q6.59375 17.9688 6.59375 36.375
Q6.59375 54.8281 13.0625 64.5156
Q19.5312 74.2188 31.7812 74.2188" id="BitstreamVeraSans-Roman-30"/>
      </defs>
      <g transform="translate(68.9765625 400.298125)scale(0.12 -0.12)">
       <use xlink:href="#BitstreamVeraSans-Roman-30"/>
      </g>
     </g>
    </g>
    <g id="xtick_2">
     <g id="line2d_3">
      <g>
       <use style="stroke:#000000;stroke-width:0.5;" x="127.8" xlink:href="#m93b0483c22" y="387.18"/>
      </g>
     </g>
     <g id="line2d_4">
      <g>
       <use style="stroke:#000000;stroke-width:0.5;" x="127.8" xlink:href="#m741efc42ff" y="43.02"/>
      </g>
     </g>
     <g id="text_2">
      <!-- 1 -->
      <defs>
       <path d="
M12.4062 8.29688
L28.5156 8.29688
L28.5156 63.9219
L10.9844 60.4062
L10.9844 69.3906
L28.4219 72.9062
L38.2812 72.9062
L38.2812 8.29688
L54.3906 8.29688
L54.3906 0
L12.4062 0
z
" id="BitstreamVeraSans-Roman-31"/>
      </defs>
      <g transform="translate(125.195625 400.298125)scale(0.12 -0.12)">
       <use xlink:href="#BitstreamVeraSans-Roman-31"/>
      </g>
     </g>
    </g>
    <g id="xtick_3">
     <g id="line2d_5">
      <g>
       <use style="stroke:#000000;stroke-width:0.5;" x="183.6" xlink:href="#m93b0483c22" y="387.18"/>
      </g>
     </g>
     <g id="line2d_6">
      <g>
       <use style="stroke:#000000;stroke-width:0.5;" x="183.6" xlink:href="#m741efc42ff" y="43.02"/>
      </g>
     </g>
     <g id="text_3">
      <!-- 2 -->
      <defs>
       <path d="
M19.1875 8.29688
L53.6094 8.29688
L53.6094 0
L7.32812 0
L7.32812 8.29688
Q12.9375 14.1094 22.625 23.8906
Q32.3281 33.6875 34.8125 36.5312
Q39.5469 41.8438 41.4219 45.5312
Q43.3125 49.2188 43.3125 52.7812
Q43.3125 58.5938 39.2344 62.25
Q35.1562 65.9219 28.6094 65.9219
Q23.9688 65.9219 18.8125 64.3125
Q13.6719 62.7031 7.8125 59.4219
L7.8125 69.3906
Q13.7656 71.7812 18.9375 73
Q24.125 74.2188 28.4219 74.2188
Q39.75 74.2188 46.4844 68.5469
Q53.2188 62.8906 53.2188 53.4219
Q53.2188 48.9219 51.5312 44.8906
Q49.8594 40.875 45.4062 35.4062
Q44.1875 33.9844 37.6406 27.2188
Q31.1094 20.4531 19.1875 8.29688" id="BitstreamVeraSans-Roman-32"/>
      </defs>
      <g transform="translate(180.823125 400.298125)scale(0.12 -0.12)">
       <use xlink:href="#BitstreamVeraSans-Roman-32"/>
      </g>
     </g>
    </g>
    <g id="xtick_4">
     <g id="line2d_7">
      <g>
       <use style="stroke:#000000;stroke-width:0.5;" x="239.4" xlink:href="#m93b0483c22" y="387.18"/>
      </g>
     </g>
     <g id="line2d_8">
      <g>
       <use style="stroke:#000000;stroke-width:0.5;" x="239.4" xlink:href="#m741efc42ff" y="43.02"/>
      </g>
     </g>
     <g id="text_4">
      <!-- 3 -->
      <defs>
       <path d="
M40.5781 39.3125
Q47.6562 37.7969 51.625 33
Q55.6094 28.2188 55.6094 21.1875
Q55.6094 10.4062 48.1875 4.48438
Q40.7656 -1.42188 27.0938 -1.42188
Q22.5156 -1.42188 17.6562 -0.515625
Q12.7969 0.390625 7.625 2.20312
L7.625 11.7188
Q11.7188 9.32812 16.5938 8.10938
Q21.4844 6.89062 26.8125 6.89062
Q36.0781 6.89062 40.9375 10.5469
Q45.7969 14.2031 45.7969 21.1875
Q45.7969 27.6406 41.2812 31.2656
Q36.7656 34.9062 28.7188 34.9062
L20.2188 34.9062
L20.2188 43.0156
L29.1094 43.0156
Q36.375 43.0156 40.2344 45.9219
Q44.0938 48.8281 44.0938 54.2969
Q44.0938 59.9062 40.1094 62.9062
Q36.1406 65.9219 28.7188 65.9219
Q24.6562 65.9219 20.0156 65.0312
Q15.375 64.1562 9.8125 62.3125
L9.8125 71.0938
Q15.4375 72.6562 20.3438 73.4375
Q25.25 74.2188 29.5938 74.2188
Q40.8281 74.2188 47.3594 69.1094
Q53.9062 64.0156 53.9062 55.3281
Q53.9062 49.2656 50.4375 45.0938
Q46.9688 40.9219 40.5781 39.3125" id="BitstreamVeraSans-Roman-33"/>
      </defs>
      <g transform="translate(236.5209375 400.298125)scale(0.12 -0.12)">
       <use xlink:href="#BitstreamVeraSans-Roman-33"/>
      </g>
     </g>
    </g>
    <g id="xtick_5">
     <g id="line2d_9">
      <g>
       <use style="stroke:#000000;stroke-width:0.5;" x="295.2" xlink:href="#m93b0483c22" y="387.18"/>
      </g>
     </g>
     <g id="line2d_10">
      <g>
       <use style="stroke:#000000;stroke-width:0.5;" x="295.2" xlink:href="#m741efc42ff" y="43.02"/>
      </g>
     </g>
     <g id="text_5">
      <!-- 4 -->
      <defs>
       <path d="
M37.7969 64.3125
L12.8906 25.3906
L37.7969 25.3906
z

M35.2031 72.9062
L47.6094 72.9062
L47.6094 25.3906
L58.0156 25.3906
L58.0156 17.1875
L47.6094 17.1875
L47.6094 0
L37.7969 0
L37.7969 17.1875
L4.89062 17.1875
L4.89062 26.7031
z
" id="BitstreamVeraSans-Roman-34"/>
      </defs>
      <g transform="translate(292.0125 400.298125)scale(0.12 -0.12)">
       <use xlink:href="#BitstreamVeraSans-Roman-34"/>
      </g>
     </g>
    </g>
    <g id="xtick_6">
     <g id="line2d_11">
      <g>
       <use style="stroke:#000000;stroke-width:0.5;" x="351.0" xlink:href="#m93b0483c22" y="387.18"/>
      </g>
     </g>
     <g id="line2d_12">
      <g>
       <use style="stroke:#000000;stroke-width:0.5;" x="351.0" xlink:href="#m741efc42ff" y="43.02"/>
      </g>
     </g>
     <g id="text_6">
      <!-- 5 -->
      <defs>
       <path d="
M10.7969 72.9062
L49.5156 72.9062
L49.5156 64.5938
L19.8281 64.5938
L19.8281 46.7344
Q21.9688 47.4688 24.1094 47.8281
Q26.2656 48.1875 28.4219 48.1875
Q40.625 48.1875 47.75 41.5
Q54.8906 34.8125 54.8906 23.3906
Q54.8906 11.625 47.5625 5.09375
Q40.2344 -1.42188 26.9062 -1.42188
Q22.3125 -1.42188 17.5469 -0.640625
Q12.7969 0.140625 7.71875 1.70312
L7.71875 11.625
Q12.1094 9.23438 16.7969 8.0625
Q21.4844 6.89062 26.7031 6.89062
Q35.1562 6.89062 40.0781 11.3281
Q45.0156 15.7656 45.0156 23.3906
Q45.0156 31 40.0781 35.4375
Q35.1562 39.8906 26.7031 39.8906
Q22.75 39.8906 18.8125 39.0156
Q14.8906 38.1406 10.7969 36.2812
z
" id="BitstreamVeraSans-Roman-35"/>
      </defs>
      <g transform="translate(348.1696875 400.298125)scale(0.12 -0.12)">
       <use xlink:href="#BitstreamVeraSans-Roman-35"/>
      </g>
     </g>
    </g>
    <g id="xtick_7">
     <g id="line2d_13">
      <g>
       <use style="stroke:#000000;stroke-width:0.5;" x="406.8" xlink:href="#m93b0483c22" y="387.18"/>
      </g>
     </g>
     <g id="line2d_14">
      <g>
       <use style="stroke:#000000;stroke-width:0.5;" x="406.8" xlink:href="#m741efc42ff" y="43.02"/>
      </g>
     </g>
     <g id="text_7">
      <!-- 6 -->
      <defs>
       <path d="
M33.0156 40.375
Q26.375 40.375 22.4844 35.8281
Q18.6094 31.2969 18.6094 23.3906
Q18.6094 15.5312 22.4844 10.9531
Q26.375 6.39062 33.0156 6.39062
Q39.6562 6.39062 43.5312 10.9531
Q47.4062 15.5312 47.4062 23.3906
Q47.4062 31.2969 43.5312 35.8281
Q39.6562 40.375 33.0156 40.375
M52.5938 71.2969
L52.5938 62.3125
Q48.875 64.0625 45.0938 64.9844
Q41.3125 65.9219 37.5938 65.9219
Q27.8281 65.9219 22.6719 59.3281
Q17.5312 52.7344 16.7969 39.4062
Q19.6719 43.6562 24.0156 45.9219
Q28.375 48.1875 33.5938 48.1875
Q44.5781 48.1875 50.9531 41.5156
Q57.3281 34.8594 57.3281 23.3906
Q57.3281 12.1562 50.6875 5.35938
Q44.0469 -1.42188 33.0156 -1.42188
Q20.3594 -1.42188 13.6719 8.26562
Q6.98438 17.9688 6.98438 36.375
Q6.98438 53.6562 15.1875 63.9375
Q23.3906 74.2188 37.2031 74.2188
Q40.9219 74.2188 44.7031 73.4844
Q48.4844 72.75 52.5938 71.2969" id="BitstreamVeraSans-Roman-36"/>
      </defs>
      <g transform="translate(403.779375 400.298125)scale(0.12 -0.12)">
       <use xlink:href="#BitstreamVeraSans-Roman-36"/>
      </g>
     </g>
    </g>
    <g id="xtick_8">
     <g id="line2d_15">
      <g>
       <use style="stroke:#000000;stroke-width:0.5;" x="462.6" xlink:href="#m93b0483c22" y="387.18"/>
      </g>
     </g>
     <g id="line2d_16">
      <g>
       <use style="stroke:#000000;stroke-width:0.5;" x="462.6" xlink:href="#m741efc42ff" y="43.02"/>
      </g>
     </g>
     <g id="text_8">
      <!-- 7 -->
      <defs>
       <path d="
M8.20312 72.9062
L55.0781 72.9062
L55.0781 68.7031
L28.6094 0
L18.3125 0
L43.2188 64.5938
L8.20312 64.5938
z
" id="BitstreamVeraSans-Roman-37"/>
      </defs>
      <g transform="translate(459.7875 400.298125)scale(0.12 -0.12)">
       <use xlink:href="#BitstreamVeraSans-Roman-37"/>
      </g>
     </g>
    </g>
    <g id="xtick_9">
     <g id="line2d_17">
      <g>
       <use style="stroke:#000000;stroke-width:0.5;" x="518.4" xlink:href="#m93b0483c22" y="387.18"/>
      </g>
     </g>
     <g id="line2d_18">
      <g>
       <use style="stroke:#000000;stroke-width:0.5;" x="518.4" xlink:href="#m741efc42ff" y="43.02"/>
      </g>
     </g>
     <g id="text_9">
      <!-- 8 -->
      <defs>
       <path d="
M31.7812 34.625
Q24.75 34.625 20.7188 30.8594
Q16.7031 27.0938 16.7031 20.5156
Q16.7031 13.9219 20.7188 10.1562
Q24.75 6.39062 31.7812 6.39062
Q38.8125 6.39062 42.8594 10.1719
Q46.9219 13.9688 46.9219 20.5156
Q46.9219 27.0938 42.8906 30.8594
Q38.875 34.625 31.7812 34.625
M21.9219 38.8125
Q15.5781 40.375 12.0312 44.7188
Q8.5 49.0781 8.5 55.3281
Q8.5 64.0625 14.7188 69.1406
Q20.9531 74.2188 31.7812 74.2188
Q42.6719 74.2188 48.875 69.1406
Q55.0781 64.0625 55.0781 55.3281
Q55.0781 49.0781 51.5312 44.7188
Q48 40.375 41.7031 38.8125
Q48.8281 37.1562 52.7969 32.3125
Q56.7812 27.4844 56.7812 20.5156
Q56.7812 9.90625 50.3125 4.23438
Q43.8438 -1.42188 31.7812 -1.42188
Q19.7344 -1.42188 13.25 4.23438
Q6.78125 9.90625 6.78125 20.5156
Q6.78125 27.4844 10.7812 32.3125
Q14.7969 37.1562 21.9219 38.8125
M18.3125 54.3906
Q18.3125 48.7344 21.8438 45.5625
Q25.3906 42.3906 31.7812 42.3906
Q38.1406 42.3906 41.7188 45.5625
Q45.3125 48.7344 45.3125 54.3906
Q45.3125 60.0625 41.7188 63.2344
Q38.1406 66.4062 31.7812 66.4062
Q25.3906 66.4062 21.8438 63.2344
Q18.3125 60.0625 18.3125 54.3906" id="BitstreamVeraSans-Roman-38"/>
      </defs>
      <g transform="translate(515.4 400.298125)scale(0.12 -0.12)">
       <use xlink:href="#BitstreamVeraSans-Roman-38"/>
      </g>
     </g>
    </g>
   </g>
   <g id="matplotlib.axis_2">
    <g id="ytick_1">
     <g id="line2d_19">
      <defs>
       <path d="
M0 0
L4 0" id="m728421d6d4" style="stroke:#000000;stroke-width:0.5;"/>
      </defs>
      <g>
       <use style="stroke:#000000;stroke-width:0.5;" x="72.0" xlink:href="#m728421d6d4" y="387.18"/>
      </g>
     </g>
     <g id="line2d_20">
      <defs>
       <path d="
M0 0
L-4 0" id="mcb0005524f" style="stroke:#000000;stroke-width:0.5;"/>
      </defs>
      <g>
       <use style="stroke:#000000;stroke-width:0.5;" x="518.4" xlink:href="#mcb0005524f" y="387.18"/>
      </g>
     </g>
     <g id="text_10">
      <!-- 0 -->
      <g transform="translate(61.953125 390.49125)scale(0.12 -0.12)">
       <use xlink:href="#BitstreamVeraSans-Roman-30"/>
      </g>
     </g>
    </g>
    <g id="ytick_2">
     <g id="line2d_21">
      <g>
       <use style="stroke:#000000;stroke-width:0.5;" x="72.0" xlink:href="#m728421d6d4" y="334.232307692"/>
      </g>
     </g>
     <g id="line2d_22">
      <g>
       <use style="stroke:#000000;stroke-width:0.5;" x="518.4" xlink:href="#mcb0005524f" y="334.232307692"/>
      </g>
     </g>
     <g id="text_11">
      <!-- 1 -->
      <g transform="translate(62.79125 337.543557692)scale(0.12 -0.12)">
       <use xlink:href="#BitstreamVeraSans-Roman-31"/>
      </g>
     </g>
    </g>
    <g id="ytick_3">
     <g id="line2d_23">
      <g>
       <use style="stroke:#000000;stroke-width:0.5;" x="72.0" xlink:href="#m728421d6d4" y="281.284615385"/>
      </g>
     </g>
     <g id="line2d_24">
      <g>
       <use style="stroke:#000000;stroke-width:0.5;" x="518.4" xlink:href="#mcb0005524f" y="281.284615385"/>
      </g>
     </g>
     <g id="text_12">
      <!-- 2 -->
      <g transform="translate(62.44625 284.595865385)scale(0.12 -0.12)">
       <use xlink:href="#BitstreamVeraSans-Roman-32"/>
      </g>
     </g>
    </g>
    <g id="ytick_4">
     <g id="line2d_25">
      <g>
       <use style="stroke:#000000;stroke-width:0.5;" x="72.0" xlink:href="#m728421d6d4" y="228.336923077"/>
      </g>
     </g>
     <g id="line2d_26">
      <g>
       <use style="stroke:#000000;stroke-width:0.5;" x="518.4" xlink:href="#mcb0005524f" y="228.336923077"/>
      </g>
     </g>
     <g id="text_13">
      <!-- 3 -->
      <g transform="translate(62.241875 231.648173077)scale(0.12 -0.12)">
       <use xlink:href="#BitstreamVeraSans-Roman-33"/>
      </g>
     </g>
    </g>
    <g id="ytick_5">
     <g id="line2d_27">
      <g>
       <use style="stroke:#000000;stroke-width:0.5;" x="72.0" xlink:href="#m728421d6d4" y="175.389230769"/>
      </g>
     </g>
     <g id="line2d_28">
      <g>
       <use style="stroke:#000000;stroke-width:0.5;" x="518.4" xlink:href="#mcb0005524f" y="175.389230769"/>
      </g>
     </g>
     <g id="text_14">
      <!-- 4 -->
      <g transform="translate(61.625 178.700480769)scale(0.12 -0.12)">
       <use xlink:href="#BitstreamVeraSans-Roman-34"/>
      </g>
     </g>
    </g>
    <g id="ytick_6">
     <g id="line2d_29">
      <g>
       <use style="stroke:#000000;stroke-width:0.5;" x="72.0" xlink:href="#m728421d6d4" y="122.441538462"/>
      </g>
     </g>
     <g id="line2d_30">
      <g>
       <use style="stroke:#000000;stroke-width:0.5;" x="518.4" xlink:href="#mcb0005524f" y="122.441538462"/>
      </g>
     </g>
     <g id="text_15">
      <!-- 5 -->
      <g transform="translate(62.339375 125.752788462)scale(0.12 -0.12)">
       <use xlink:href="#BitstreamVeraSans-Roman-35"/>
      </g>
     </g>
    </g>
    <g id="ytick_7">
     <g id="line2d_31">
      <g>
       <use style="stroke:#000000;stroke-width:0.5;" x="72.0" xlink:href="#m728421d6d4" y="69.4938461538"/>
      </g>
     </g>
     <g id="line2d_32">
      <g>
       <use style="stroke:#000000;stroke-width:0.5;" x="518.4" xlink:href="#mcb0005524f" y="69.4938461538"/>
      </g>
     </g>
     <g id="text_16">
      <!-- 6 -->
      <g transform="translate(61.95875 72.8050961538)scale(0.12 -0.12)">
       <use xlink:href="#BitstreamVeraSans-Roman-36"/>
      </g>
     </g>
    </g>
   </g>
   <g id="patch_3">
    <path d="
M72 43.02
L518.4 43.02" style="fill:none;stroke:#000000;"/>
   </g>
   <g id="patch_4">
    <path d="
M518.4 387.18
L518.4 43.02" style="fill:none;stroke:#000000;"/>
   </g>
   <g id="patch_5">
    <path d="
M72 387.18
L518.4 387.18" style="fill:none;stroke:#000000;"/>
   </g>
   <g id="patch_6">
    <path d="
M72 387.18
L72 43.02" style="fill:none;stroke:#000000;"/>
   </g>
  </g>
 </g>
 <defs>
  <clipPath id="p8092a36277">
   <rect height="344.16" width="446.4" x="72.0" y="43.02"/>
  </clipPath>
 </defs>
</svg>
