<?xml version="1.0" encoding="utf-8" standalone="no"?>
<!DOCTYPE svg PUBLIC "-//W3C//DTD SVG 1.1//EN"
  "http://www.w3.org/Graphics/SVG/1.1/DTD/svg11.dtd">
<!-- Created with matplotlib (http://matplotlib.org/) -->
<svg height="432pt" version="1.1" viewBox="0 0 576 432" width="576pt" xmlns="http://www.w3.org/2000/svg" xmlns:xlink="http://www.w3.org/1999/xlink">
 <defs>
  <style type="text/css">
*{stroke-linecap:butt;stroke-linejoin:round;}
  </style>
 </defs>
 <g id="figure_1">
  <g id="patch_1">
   <path d="
M0 432
L576 432
L576 0
L0 0
z
" style="fill:#ffffff;"/>
  </g>
  <g id="axes_1">
   <g id="patch_2">
    <path d="
M72 388.8
L429.12 388.8
L429.12 43.2
L72 43.2
z
" style="fill:#ffffff;"/>
   </g>
   <g id="PathCollection_1">
    <defs>
     <path d="
M72 -43.2
L72 -47.5747
L72 -51.9494
L72 -56.3241
L72 -60.6987
L72 -65.0734
L72 -69.4481
L72 -73.8228
L72 -78.1975
L72 -82.5722
L72 -86.9468
L72 -91.3215
L72 -95.6962
L72 -100.071
L72 -104.446
L72 -108.82
L72 -113.195
L72 -117.57
L72 -121.944
L72 -126.319
L72 -130.694
L72 -135.068
L72 -139.443
L72 -143.818
L72 -148.192
L72 -152.567
L72 -156.942
L72 -161.316
L72 -165.691
L72 -170.066
L72 -174.441
L72 -178.815
L72 -183.19
L72 -187.565
L72 -191.939
L72 -196.314
L72 -200.689
L72 -205.063
L72 -209.438
L72 -213.813
L72 -218.187
L72 -222.562
L72 -226.937
L72 -231.311
L72 -235.686
L72 -240.061
L72 -244.435
L72 -248.81
L72 -253.185
L72 -257.559
L72 -261.934
L72 -266.309
L72 -270.684
L72 -275.058
L72 -279.433
L72 -283.808
L72 -288.182
L72 -292.557
L72 -296.932
L72 -301.306
L72 -305.681
L72 -310.056
L72 -314.43
L72 -318.805
L72 -323.18
L72 -327.554
L72 -331.929
L72 -336.304
L72 -340.678
L72 -345.053
L72 -349.428
L72 -353.803
L72 -358.177
L72 -362.552
L72 -366.927
L72 -371.301
L72 -375.676
L72 -380.051
L72 -384.425
L72 -388.8
L76.5205 -388.8
L81.041 -388.8
L85.5615 -388.8
L90.082 -388.8
L94.6025 -388.8
L99.123 -388.8
L103.644 -388.8
L108.164 -388.8
L112.685 -388.8
L117.205 -388.8
L121.726 -388.8
L126.246 -388.8
L130.767 -388.8
L135.287 -388.8
L139.808 -388.8
L144.328 -388.8
L148.849 -388.8
L153.369 -388.8
L157.89 -388.8
L162.41 -388.8
L166.931 -388.8
L171.451 -388.8
L175.972 -388.8
L180.492 -388.8
L185.013 -388.8
L189.533 -388.8
L194.054 -388.8
L198.574 -388.8
L203.095 -388.8
L207.615 -388.8
L212.136 -388.8
L216.656 -388.8
L221.177 -388.8
L225.697 -388.8
L230.218 -388.8
L234.738 -388.8
L239.259 -388.8
L243.779 -388.8
L248.3 -388.8
L252.82 -388.8
L257.341 -388.8
L261.861 -388.8
L266.382 -388.8
L270.902 -388.8
L275.423 -388.8
L279.943 -388.8
L284.464 -388.8
L288.984 -388.8
L293.505 -388.8
L298.025 -388.8
L302.546 -388.8
L307.066 -388.8
L311.587 -388.8
L316.107 -388.8
L320.628 -388.8
L325.148 -388.8
L329.669 -388.8
L334.189 -388.8
L338.71 -388.8
L343.23 -388.8
L347.751 -388.8
L352.271 -388.8
L356.792 -388.8
L361.312 -388.8
L365.833 -388.8
L370.353 -388.8
L374.874 -388.8
L379.394 -388.8
L383.915 -388.8
L388.435 -388.8
L392.956 -388.8
L397.476 -388.8
L401.997 -388.8
L406.517 -388.8
L411.038 -388.8
L415.558 -388.8
L420.079 -388.8
L424.599 -388.8
L429.12 -388.8
L429.12 -384.425
L429.12 -380.051
L429.12 -375.676
L429.12 -371.301
L429.12 -366.927
L429.12 -364.215
L424.599 -364.21
L420.079 -364.192
L415.558 -364.164
L411.038 -364.123
L406.517 -364.071
L401.997 -364.007
L397.476 -363.93
L392.956 -363.841
L388.435 -363.74
L383.915 -363.625
L379.394 -363.497
L374.874 -363.355
L370.353 -363.198
L365.833 -363.027
L361.312 -362.841
L356.792 -362.638
L354.998 -362.552
L352.271 -362.42
L347.751 -362.185
L343.23 -361.932
L338.71 -361.661
L334.189 -361.37
L329.669 -361.058
L325.148 -360.726
L320.628 -360.371
L316.107 -359.994
L311.587 -359.591
L307.066 -359.163
L302.546 -358.709
L298.025 -358.226
L297.593 -358.177
L293.505 -357.715
L288.984 -357.173
L284.464 -356.597
L279.943 -355.987
L275.423 -355.34
L270.902 -354.653
L266.382 -353.924
L265.655 -353.803
L261.861 -353.154
L257.341 -352.336
L252.82 -351.468
L248.3 -350.545
L243.779 -349.564
L243.173 -349.428
L239.259 -348.524
L234.738 -347.416
L230.218 -346.235
L225.967 -345.053
L225.697 -344.976
L221.177 -343.633
L216.656 -342.197
L212.194 -340.678
L212.136 -340.658
L207.615 -339.009
L203.095 -337.236
L200.846 -336.304
L198.574 -335.326
L194.054 -333.264
L191.304 -331.929
L189.533 -331.032
L185.013 -328.609
L183.156 -327.554
L180.492 -325.968
L176.117 -323.18
L175.972 -323.083
L171.451 -319.91
L169.97 -318.805
L166.931 -316.408
L164.562 -314.43
L162.41 -312.522
L159.772 -310.056
L157.89 -308.179
L155.503 -305.681
L153.369 -303.288
L151.68 -301.306
L148.849 -297.729
L148.243 -296.932
L145.139 -292.557
L144.328 -291.327
L142.328 -288.182
L139.808 -283.852
L139.782 -283.808
L137.46 -279.433
L135.352 -275.058
L135.287 -274.914
L133.423 -270.684
L131.67 -266.309
L130.767 -263.863
L130.07 -261.934
L128.609 -257.559
L127.282 -253.185
L126.246 -249.424
L126.08 -248.81
L124.984 -244.435
L123.999 -240.061
L123.116 -235.686
L122.331 -231.311
L121.726 -227.492
L121.638 -226.937
L121.03 -222.562
L120.508 -218.187
L120.072 -213.813
L119.719 -209.438
L119.448 -205.063
L119.259 -200.689
L119.152 -196.314
L119.128 -191.939
L119.189 -187.565
L119.337 -183.19
L119.574 -178.815
L119.905 -174.441
L120.334 -170.066
L120.868 -165.691
L121.513 -161.316
L121.726 -160.091
L122.271 -156.942
L123.154 -152.567
L124.178 -148.192
L125.358 -143.818
L126.246 -140.919
L126.703 -139.443
L128.225 -135.068
L129.964 -130.694
L130.767 -128.887
L131.929 -126.319
L134.162 -121.944
L135.287 -119.975
L136.696 -117.57
L139.588 -113.195
L139.808 -112.893
L142.871 -108.82
L144.328 -107.089
L146.638 -104.446
L148.849 -102.168
L150.973 -100.071
L153.369 -97.9275
L155.989 -95.6962
L157.89 -94.22
L161.838 -91.3215
L162.41 -90.9362
L166.931 -88.0195
L168.69 -86.9468
L171.451 -85.3929
L175.972 -83.0076
L176.831 -82.5722
L180.492 -80.8476
L185.013 -78.862
L186.595 -78.1975
L189.533 -77.0436
L194.054 -75.3661
L198.523 -73.8228
L198.574 -73.8061
L203.095 -72.3714
L207.615 -71.0315
L212.136 -69.7786
L213.368 -69.4481
L216.656 -68.6139
L221.177 -67.5247
L225.697 -66.5025
L230.218 -65.5426
L232.523 -65.0734
L234.738 -64.6436
L239.259 -63.801
L243.779 -63.0086
L248.3 -62.2635
L252.82 -61.563
L257.341 -60.905
L258.814 -60.6987
L261.861 -60.2882
L266.382 -59.7095
L270.902 -59.1671
L275.423 -58.6592
L279.943 -58.1848
L284.464 -57.7426
L288.984 -57.3315
L293.505 -56.9505
L298.025 -56.5987
L301.849 -56.3241
L302.546 -56.275
L307.066 -55.9777
L311.587 -55.7069
L316.107 -55.4619
L320.628 -55.2418
L325.148 -55.0458
L329.669 -54.8731
L334.189 -54.7226
L338.71 -54.5934
L343.23 -54.4841
L347.751 -54.3935
L352.271 -54.3202
L356.792 -54.2628
L361.312 -54.2197
L365.833 -54.1894
L370.353 -54.1702
L374.874 -54.1604
L379.394 -54.1585
L383.915 -54.1628
L388.435 -54.1719
L392.956 -54.1843
L397.476 -54.1987
L401.997 -54.2137
L406.517 -54.2284
L411.038 -54.2418
L415.558 -54.253
L420.079 -54.2615
L424.599 -54.2668
L429.12 -54.2686
L429.12 -51.9494
L429.12 -47.5747
L429.12 -43.2
L424.599 -43.2
L420.079 -43.2
L415.558 -43.2
L411.038 -43.2
L406.517 -43.2
L401.997 -43.2
L397.476 -43.2
L392.956 -43.2
L388.435 -43.2
L383.915 -43.2
L379.394 -43.2
L374.874 -43.2
L370.353 -43.2
L365.833 -43.2
L361.312 -43.2
L356.792 -43.2
L352.271 -43.2
L347.751 -43.2
L343.23 -43.2
L338.71 -43.2
L334.189 -43.2
L329.669 -43.2
L325.148 -43.2
L320.628 -43.2
L316.107 -43.2
L311.587 -43.2
L307.066 -43.2
L302.546 -43.2
L298.025 -43.2
L293.505 -43.2
L288.984 -43.2
L284.464 -43.2
L279.943 -43.2
L275.423 -43.2
L270.902 -43.2
L266.382 -43.2
L261.861 -43.2
L257.341 -43.2
L252.82 -43.2
L248.3 -43.2
L243.779 -43.2
L239.259 -43.2
L234.738 -43.2
L230.218 -43.2
L225.697 -43.2
L221.177 -43.2
L216.656 -43.2
L212.136 -43.2
L207.615 -43.2
L203.095 -43.2
L198.574 -43.2
L194.054 -43.2
L189.533 -43.2
L185.013 -43.2
L180.492 -43.2
L175.972 -43.2
L171.451 -43.2
L166.931 -43.2
L162.41 -43.2
L157.89 -43.2
L153.369 -43.2
L148.849 -43.2
L144.328 -43.2
L139.808 -43.2
L135.287 -43.2
L130.767 -43.2
L126.246 -43.2
L121.726 -43.2
L117.205 -43.2
L112.685 -43.2
L108.164 -43.2
L103.644 -43.2
L99.123 -43.2
L94.6025 -43.2
L90.082 -43.2
L85.5615 -43.2
L81.041 -43.2
L76.5205 -43.2
L72 -43.2" id="C0_0_bcf4c70090"/>
    </defs>
    <g clip-path="url(#pbb64507b19)">
     <use style="fill:#0b0b0b;" x="0.0" xlink:href="#C0_0_bcf4c70090" y="432.0"/>
    </g>
   </g>
   <g id="PathCollection_2">
    <defs>
     <path d="
M121.513 -161.316
L120.868 -165.691
L120.334 -170.066
L119.905 -174.441
L119.574 -178.815
L119.337 -183.19
L119.189 -187.565
L119.128 -191.939
L119.152 -196.314
L119.259 -200.689
L119.448 -205.063
L119.719 -209.438
L120.072 -213.813
L120.508 -218.187
L121.03 -222.562
L121.638 -226.937
L121.726 -227.492
L122.331 -231.311
L123.116 -235.686
L123.999 -240.061
L124.984 -244.435
L126.08 -248.81
L126.246 -249.424
L127.282 -253.185
L128.609 -257.559
L130.07 -261.934
L130.767 -263.863
L131.67 -266.309
L133.423 -270.684
L135.287 -274.914
L135.352 -275.058
L137.46 -279.433
L139.782 -283.808
L139.808 -283.852
L142.328 -288.182
L144.328 -291.327
L145.139 -292.557
L148.243 -296.932
L148.849 -297.729
L151.68 -301.306
L153.369 -303.288
L155.503 -305.681
L157.89 -308.179
L159.772 -310.056
L162.41 -312.522
L164.562 -314.43
L166.931 -316.408
L169.97 -318.805
L171.451 -319.91
L175.972 -323.083
L176.117 -323.18
L180.492 -325.968
L183.156 -327.554
L185.013 -328.609
L189.533 -331.032
L191.304 -331.929
L194.054 -333.264
L198.574 -335.326
L200.846 -336.304
L203.095 -337.236
L207.615 -339.009
L212.136 -340.658
L212.194 -340.678
L216.656 -342.197
L221.177 -343.633
L225.697 -344.976
L225.967 -345.053
L230.218 -346.235
L234.738 -347.416
L239.259 -348.524
L243.173 -349.428
L243.779 -349.564
L248.3 -350.545
L252.82 -351.468
L257.341 -352.336
L261.861 -353.154
L265.655 -353.803
L266.382 -353.924
L270.902 -354.653
L275.423 -355.34
L279.943 -355.987
L284.464 -356.597
L288.984 -357.173
L293.505 -357.715
L297.593 -358.177
L298.025 -358.226
L302.546 -358.709
L307.066 -359.163
L311.587 -359.591
L316.107 -359.994
L320.628 -360.371
L325.148 -360.726
L329.669 -361.058
L334.189 -361.37
L338.71 -361.661
L343.23 -361.932
L347.751 -362.185
L352.271 -362.42
L354.998 -362.552
L356.792 -362.638
L361.312 -362.841
L365.833 -363.027
L370.353 -363.198
L374.874 -363.355
L379.394 -363.497
L383.915 -363.625
L388.435 -363.74
L392.956 -363.841
L397.476 -363.93
L401.997 -364.007
L406.517 -364.071
L411.038 -364.123
L415.558 -364.164
L420.079 -364.192
L424.599 -364.21
L429.12 -364.215
L429.12 -362.552
L429.12 -358.177
L429.12 -353.803
L429.12 -349.428
L429.12 -345.053
L429.12 -340.678
L429.12 -340.159
L424.599 -340.148
L420.079 -340.116
L415.558 -340.062
L411.038 -339.986
L406.517 -339.887
L401.997 -339.767
L397.476 -339.623
L392.956 -339.455
L388.435 -339.263
L383.915 -339.046
L379.394 -338.803
L374.874 -338.534
L370.353 -338.236
L365.833 -337.91
L361.312 -337.554
L356.792 -337.167
L352.271 -336.746
L347.866 -336.304
L347.751 -336.292
L343.23 -335.807
L338.71 -335.284
L334.189 -334.723
L329.669 -334.12
L325.148 -333.475
L320.628 -332.785
L316.107 -332.047
L315.424 -331.929
L311.587 -331.265
L307.066 -330.432
L302.546 -329.543
L298.025 -328.595
L293.505 -327.585
L293.372 -327.554
L288.984 -326.519
L284.464 -325.383
L279.943 -324.173
L276.443 -323.18
L275.423 -322.886
L270.902 -321.523
L266.382 -320.07
L262.671 -318.805
L261.861 -318.524
L257.341 -316.882
L252.82 -315.13
L251.1 -314.43
L248.3 -313.264
L243.779 -311.273
L241.16 -310.056
L239.259 -309.146
L234.738 -306.871
L232.494 -305.681
L230.218 -304.433
L225.697 -301.817
L224.852 -301.306
L221.177 -299.001
L218.057 -296.932
L216.656 -295.964
L212.136 -292.679
L211.974 -292.557
L207.615 -289.109
L206.497 -288.182
L203.095 -285.215
L201.548 -283.808
L198.574 -280.946
L197.061 -279.433
L194.054 -276.235
L192.985 -275.058
L189.533 -270.997
L189.275 -270.684
L185.888 -266.309
L185.013 -265.092
L182.8 -261.934
L180.492 -258.356
L179.99 -257.559
L177.422 -253.185
L175.972 -250.48
L175.091 -248.81
L172.972 -244.435
L171.451 -240.961
L171.062 -240.061
L169.331 -235.686
L167.79 -231.311
L166.931 -228.572
L166.42 -226.937
L165.208 -222.562
L164.16 -218.187
L163.272 -213.813
L162.539 -209.438
L162.41 -208.484
L161.946 -205.063
L161.501 -200.689
L161.206 -196.314
L161.061 -191.939
L161.066 -187.565
L161.225 -183.19
L161.542 -178.815
L162.022 -174.441
L162.41 -171.828
L162.667 -170.066
L163.478 -165.691
L164.477 -161.316
L165.676 -156.942
L166.931 -153.062
L167.089 -152.567
L168.702 -148.192
L170.57 -143.818
L171.451 -142.002
L172.69 -139.443
L175.099 -135.068
L175.972 -133.655
L177.809 -130.694
L180.492 -126.866
L180.879 -126.319
L184.318 -121.944
L185.013 -121.148
L188.184 -117.57
L189.533 -116.195
L192.54 -113.195
L194.054 -111.823
L197.454 -108.82
L198.574 -107.917
L203.018 -104.446
L203.095 -104.39
L207.615 -101.213
L209.303 -100.071
L212.136 -98.3
L216.503 -95.6962
L216.656 -95.6116
L221.177 -93.1579
L224.756 -91.3215
L225.697 -90.8703
L230.218 -88.7628
L234.358 -86.9468
L234.738 -86.7902
L239.259 -84.9683
L243.779 -83.2598
L245.673 -82.5722
L248.3 -81.6689
L252.82 -80.1844
L257.341 -78.7936
L259.367 -78.1975
L261.861 -77.4965
L266.382 -76.2859
L270.902 -75.1545
L275.423 -74.0996
L276.665 -73.8228
L279.943 -73.1179
L284.464 -72.2049
L288.984 -71.3586
L293.505 -70.5768
L298.025 -69.8576
L300.806 -69.4481
L302.546 -69.1973
L307.066 -68.5923
L311.587 -68.0435
L316.107 -67.5492
L320.628 -67.1076
L325.148 -66.7168
L329.669 -66.3748
L334.189 -66.0794
L338.71 -65.828
L343.23 -65.6181
L347.751 -65.4469
L352.271 -65.3113
L356.792 -65.2083
L361.312 -65.1346
L365.833 -65.0868
L368.217 -65.0734
L370.353 -65.0614
L374.874 -65.0551
L379.394 -65.0644
L381.271 -65.0734
L383.915 -65.0861
L388.435 -65.1167
L392.956 -65.1532
L397.476 -65.1928
L401.997 -65.2329
L406.517 -65.2709
L411.038 -65.305
L415.558 -65.3333
L420.079 -65.3546
L424.599 -65.3677
L429.12 -65.3722
L429.12 -65.0734
L429.12 -60.6987
L429.12 -56.3241
L429.12 -54.2686
L424.599 -54.2668
L420.079 -54.2615
L415.558 -54.253
L411.038 -54.2418
L406.517 -54.2284
L401.997 -54.2137
L397.476 -54.1987
L392.956 -54.1843
L388.435 -54.1719
L383.915 -54.1628
L379.394 -54.1585
L374.874 -54.1604
L370.353 -54.1702
L365.833 -54.1894
L361.312 -54.2197
L356.792 -54.2628
L352.271 -54.3202
L347.751 -54.3935
L343.23 -54.4841
L338.71 -54.5934
L334.189 -54.7226
L329.669 -54.8731
L325.148 -55.0458
L320.628 -55.2418
L316.107 -55.4619
L311.587 -55.7069
L307.066 -55.9777
L302.546 -56.275
L301.849 -56.3241
L298.025 -56.5987
L293.505 -56.9505
L288.984 -57.3315
L284.464 -57.7426
L279.943 -58.1848
L275.423 -58.6592
L270.902 -59.1671
L266.382 -59.7095
L261.861 -60.2882
L258.814 -60.6987
L257.341 -60.905
L252.82 -61.563
L248.3 -62.2635
L243.779 -63.0086
L239.259 -63.801
L234.738 -64.6436
L232.523 -65.0734
L230.218 -65.5426
L225.697 -66.5025
L221.177 -67.5247
L216.656 -68.6139
L213.368 -69.4481
L212.136 -69.7786
L207.615 -71.0315
L203.095 -72.3714
L198.574 -73.8061
L198.523 -73.8228
L194.054 -75.3661
L189.533 -77.0436
L186.595 -78.1975
L185.013 -78.862
L180.492 -80.8476
L176.831 -82.5722
L175.972 -83.0076
L171.451 -85.3929
L168.69 -86.9468
L166.931 -88.0195
L162.41 -90.9362
L161.838 -91.3215
L157.89 -94.22
L155.989 -95.6962
L153.369 -97.9275
L150.973 -100.071
L148.849 -102.168
L146.638 -104.446
L144.328 -107.089
L142.871 -108.82
L139.808 -112.893
L139.588 -113.195
L136.696 -117.57
L135.287 -119.975
L134.162 -121.944
L131.929 -126.319
L130.767 -128.887
L129.964 -130.694
L128.225 -135.068
L126.703 -139.443
L126.246 -140.919
L125.358 -143.818
L124.178 -148.192
L123.154 -152.567
L122.271 -156.942
L121.726 -160.091
L121.513 -161.316" id="C1_0_aa5ef126fd"/>
    </defs>
    <g clip-path="url(#pbb64507b19)">
     <use style="fill:#222222;" x="0.0" xlink:href="#C1_0_aa5ef126fd" y="432.0"/>
    </g>
   </g>
   <g id="PathCollection_3">
    <defs>
     <path d="
M162.022 -174.441
L161.542 -178.815
L161.225 -183.19
L161.066 -187.565
L161.061 -191.939
L161.206 -196.314
L161.501 -200.689
L161.946 -205.063
L162.41 -208.484
L162.539 -209.438
L163.272 -213.813
L164.16 -218.187
L165.208 -222.562
L166.42 -226.937
L166.931 -228.572
L167.79 -231.311
L169.331 -235.686
L171.062 -240.061
L171.451 -240.961
L172.972 -244.435
L175.091 -248.81
L175.972 -250.48
L177.422 -253.185
L179.99 -257.559
L180.492 -258.356
L182.8 -261.934
L185.013 -265.092
L185.888 -266.309
L189.275 -270.684
L189.533 -270.997
L192.985 -275.058
L194.054 -276.235
L197.061 -279.433
L198.574 -280.946
L201.548 -283.808
L203.095 -285.215
L206.497 -288.182
L207.615 -289.109
L211.974 -292.557
L212.136 -292.679
L216.656 -295.964
L218.057 -296.932
L221.177 -299.001
L224.852 -301.306
L225.697 -301.817
L230.218 -304.433
L232.494 -305.681
L234.738 -306.871
L239.259 -309.146
L241.16 -310.056
L243.779 -311.273
L248.3 -313.264
L251.1 -314.43
L252.82 -315.13
L257.341 -316.882
L261.861 -318.524
L262.671 -318.805
L266.382 -320.07
L270.902 -321.523
L275.423 -322.886
L276.443 -323.18
L279.943 -324.173
L284.464 -325.383
L288.984 -326.519
L293.372 -327.554
L293.505 -327.585
L298.025 -328.595
L302.546 -329.543
L307.066 -330.432
L311.587 -331.265
L315.424 -331.929
L316.107 -332.047
L320.628 -332.785
L325.148 -333.475
L329.669 -334.12
L334.189 -334.723
L338.71 -335.284
L343.23 -335.807
L347.751 -336.292
L347.866 -336.304
L352.271 -336.746
L356.792 -337.167
L361.312 -337.554
L365.833 -337.91
L370.353 -338.236
L374.874 -338.534
L379.394 -338.803
L383.915 -339.046
L388.435 -339.263
L392.956 -339.455
L397.476 -339.623
L401.997 -339.767
L406.517 -339.887
L411.038 -339.986
L415.558 -340.062
L420.079 -340.116
L424.599 -340.148
L429.12 -340.159
L429.12 -336.304
L429.12 -331.929
L429.12 -327.554
L429.12 -323.18
L429.12 -318.805
L429.12 -317.045
L424.599 -317.031
L420.079 -316.988
L415.558 -316.916
L411.038 -316.814
L406.517 -316.682
L401.997 -316.519
L397.476 -316.326
L392.956 -316.099
L388.435 -315.839
L383.915 -315.544
L379.394 -315.213
L374.874 -314.843
L370.353 -314.434
L370.313 -314.43
L365.833 -313.989
L361.312 -313.501
L356.792 -312.968
L352.271 -312.387
L347.751 -311.755
L343.23 -311.07
L338.71 -310.329
L337.158 -310.056
L334.189 -309.535
L329.669 -308.684
L325.148 -307.766
L320.628 -306.778
L316.107 -305.715
L315.971 -305.681
L311.587 -304.589
L307.066 -303.379
L302.546 -302.08
L300.014 -301.306
L298.025 -300.695
L293.505 -299.218
L288.984 -297.633
L287.095 -296.932
L284.464 -295.943
L279.943 -294.138
L276.241 -292.557
L275.423 -292.202
L270.902 -290.137
L266.907 -288.182
L266.382 -287.919
L261.861 -285.548
L258.75 -283.808
L257.341 -282.997
L252.82 -280.254
L251.534 -279.433
L248.3 -277.296
L245.099 -275.058
L243.779 -274.098
L239.326 -270.684
L239.259 -270.629
L234.738 -266.848
L234.122 -266.309
L230.218 -262.703
L229.418 -261.934
L225.697 -258.132
L225.157 -257.559
L221.296 -253.185
L221.177 -253.041
L217.787 -248.81
L216.656 -247.278
L214.61 -244.435
L212.136 -240.668
L211.745 -240.061
L209.15 -235.686
L207.615 -232.806
L206.829 -231.311
L204.75 -226.937
L203.095 -222.977
L202.922 -222.562
L201.301 -218.187
L199.91 -213.813
L198.739 -209.438
L198.574 -208.698
L197.759 -205.063
L196.983 -200.689
L196.411 -196.314
L196.041 -191.939
L195.871 -187.565
L195.902 -183.19
L196.137 -178.815
L196.582 -174.441
L197.244 -170.066
L198.134 -165.691
L198.574 -163.978
L199.243 -161.316
L200.587 -156.942
L202.203 -152.567
L203.095 -150.507
L204.081 -148.192
L206.247 -143.818
L207.615 -141.414
L208.728 -139.443
L211.55 -135.068
L212.136 -134.26
L214.723 -130.694
L216.656 -128.332
L218.312 -126.319
L221.177 -123.209
L222.354 -121.944
L225.697 -118.712
L226.898 -117.57
L230.218 -114.708
L232.014 -113.195
L234.738 -111.101
L237.799 -108.82
L239.259 -107.821
L243.779 -104.828
L244.372 -104.446
L248.3 -102.099
L251.877 -100.071
L252.82 -99.5722
L257.341 -97.2552
L260.563 -95.6962
L261.861 -95.1052
L266.382 -93.1245
L270.804 -91.3215
L270.902 -91.2836
L275.423 -89.5884
L279.943 -88.0172
L283.242 -86.9468
L284.464 -86.5665
L288.984 -85.2293
L293.505 -84.0003
L298.025 -82.8765
L299.34 -82.5722
L302.546 -81.8482
L307.066 -80.9136
L311.587 -80.0718
L316.107 -79.3198
L320.628 -78.6542
L324.154 -78.1975
L325.148 -78.0693
L329.669 -77.5569
L334.189 -77.1199
L338.71 -76.7544
L343.23 -76.4559
L347.751 -76.2197
L352.271 -76.041
L356.792 -75.9144
L361.312 -75.8346
L365.833 -75.7958
L370.353 -75.7923
L374.874 -75.8183
L379.394 -75.8679
L383.915 -75.9355
L388.435 -76.0155
L392.956 -76.1026
L397.476 -76.192
L401.997 -76.2792
L406.517 -76.36
L411.038 -76.4311
L415.558 -76.4895
L420.079 -76.5329
L424.599 -76.5597
L429.12 -76.5687
L429.12 -73.8228
L429.12 -69.4481
L429.12 -65.3722
L424.599 -65.3677
L420.079 -65.3546
L415.558 -65.3333
L411.038 -65.305
L406.517 -65.2709
L401.997 -65.2329
L397.476 -65.1928
L392.956 -65.1532
L388.435 -65.1167
L383.915 -65.0861
L381.271 -65.0734
L379.394 -65.0644
L374.874 -65.0551
L370.353 -65.0614
L368.217 -65.0734
L365.833 -65.0868
L361.312 -65.1346
L356.792 -65.2083
L352.271 -65.3113
L347.751 -65.4469
L343.23 -65.6181
L338.71 -65.828
L334.189 -66.0794
L329.669 -66.3748
L325.148 -66.7168
L320.628 -67.1076
L316.107 -67.5492
L311.587 -68.0435
L307.066 -68.5923
L302.546 -69.1973
L300.806 -69.4481
L298.025 -69.8576
L293.505 -70.5768
L288.984 -71.3586
L284.464 -72.2049
L279.943 -73.1179
L276.665 -73.8228
L275.423 -74.0996
L270.902 -75.1545
L266.382 -76.2859
L261.861 -77.4965
L259.367 -78.1975
L257.341 -78.7936
L252.82 -80.1844
L248.3 -81.6689
L245.673 -82.5722
L243.779 -83.2598
L239.259 -84.9683
L234.738 -86.7902
L234.358 -86.9468
L230.218 -88.7628
L225.697 -90.8703
L224.756 -91.3215
L221.177 -93.1579
L216.656 -95.6116
L216.503 -95.6962
L212.136 -98.3
L209.303 -100.071
L207.615 -101.213
L203.095 -104.39
L203.018 -104.446
L198.574 -107.917
L197.454 -108.82
L194.054 -111.823
L192.54 -113.195
L189.533 -116.195
L188.184 -117.57
L185.013 -121.148
L184.318 -121.944
L180.879 -126.319
L180.492 -126.866
L177.809 -130.694
L175.972 -133.655
L175.099 -135.068
L172.69 -139.443
L171.451 -142.002
L170.57 -143.818
L168.702 -148.192
L167.089 -152.567
L166.931 -153.062
L165.676 -156.942
L164.477 -161.316
L163.478 -165.691
L162.667 -170.066
L162.41 -171.828
L162.022 -174.441" id="C2_0_34978c58fc"/>
    </defs>
    <g clip-path="url(#pbb64507b19)">
     <use style="fill:#3a3a3a;" x="0.0" xlink:href="#C2_0_34978c58fc" y="432.0"/>
    </g>
   </g>
   <g id="PathCollection_4">
    <defs>
     <path d="
M198.134 -165.691
L197.244 -170.066
L196.582 -174.441
L196.137 -178.815
L195.902 -183.19
L195.871 -187.565
L196.041 -191.939
L196.411 -196.314
L196.983 -200.689
L197.759 -205.063
L198.574 -208.698
L198.739 -209.438
L199.91 -213.813
L201.301 -218.187
L202.922 -222.562
L203.095 -222.977
L204.75 -226.937
L206.829 -231.311
L207.615 -232.806
L209.15 -235.686
L211.745 -240.061
L212.136 -240.668
L214.61 -244.435
L216.656 -247.278
L217.787 -248.81
L221.177 -253.041
L221.296 -253.185
L225.157 -257.559
L225.697 -258.132
L229.418 -261.934
L230.218 -262.703
L234.122 -266.309
L234.738 -266.848
L239.259 -270.629
L239.326 -270.684
L243.779 -274.098
L245.099 -275.058
L248.3 -277.296
L251.534 -279.433
L252.82 -280.254
L257.341 -282.997
L258.75 -283.808
L261.861 -285.548
L266.382 -287.919
L266.907 -288.182
L270.902 -290.137
L275.423 -292.202
L276.241 -292.557
L279.943 -294.138
L284.464 -295.943
L287.095 -296.932
L288.984 -297.633
L293.505 -299.218
L298.025 -300.695
L300.014 -301.306
L302.546 -302.08
L307.066 -303.379
L311.587 -304.589
L315.971 -305.681
L316.107 -305.715
L320.628 -306.778
L325.148 -307.766
L329.669 -308.684
L334.189 -309.535
L337.158 -310.056
L338.71 -310.329
L343.23 -311.07
L347.751 -311.755
L352.271 -312.387
L356.792 -312.968
L361.312 -313.501
L365.833 -313.989
L370.313 -314.43
L370.353 -314.434
L374.874 -314.843
L379.394 -315.213
L383.915 -315.544
L388.435 -315.839
L392.956 -316.099
L397.476 -316.326
L401.997 -316.519
L406.517 -316.682
L411.038 -316.814
L415.558 -316.916
L420.079 -316.988
L424.599 -317.031
L429.12 -317.045
L429.12 -314.43
L429.12 -310.056
L429.12 -305.681
L429.12 -301.306
L429.12 -296.932
L429.12 -295.07
L424.599 -295.054
L420.079 -295.008
L415.558 -294.931
L411.038 -294.822
L406.517 -294.68
L401.997 -294.504
L397.476 -294.293
L392.956 -294.045
L388.435 -293.758
L383.915 -293.43
L379.394 -293.058
L374.874 -292.64
L374.067 -292.557
L370.353 -292.179
L365.833 -291.669
L361.312 -291.103
L356.792 -290.479
L352.271 -289.793
L347.751 -289.039
L343.23 -288.212
L343.08 -288.182
L338.71 -287.326
L334.189 -286.36
L329.669 -285.305
L325.148 -284.156
L323.876 -283.808
L320.628 -282.924
L316.107 -281.592
L311.587 -280.143
L309.525 -279.433
L307.066 -278.585
L302.546 -276.907
L298.025 -275.082
L297.969 -275.058
L293.505 -273.134
L288.984 -271.013
L288.321 -270.684
L284.464 -268.734
L280.037 -266.309
L279.943 -266.256
L275.423 -263.584
L272.823 -261.934
L270.902 -260.674
L266.458 -257.559
L266.382 -257.504
L261.861 -254.039
L260.808 -253.185
L257.341 -250.226
L255.764 -248.81
L252.82 -246.002
L251.25 -244.435
L248.3 -241.279
L247.204 -240.061
L243.779 -235.931
L243.583 -235.686
L240.334 -231.311
L239.259 -229.711
L237.438 -226.937
L234.881 -222.562
L234.738 -222.29
L232.609 -218.187
L230.647 -213.813
L230.218 -212.713
L228.945 -209.438
L227.512 -205.063
L226.348 -200.689
L225.697 -197.569
L225.432 -196.314
L224.751 -191.939
L224.319 -187.565
L224.133 -183.19
L224.195 -178.815
L224.507 -174.441
L225.077 -170.066
L225.697 -166.827
L225.907 -165.691
L226.985 -161.316
L228.354 -156.942
L230.038 -152.567
L230.218 -152.173
L231.996 -148.192
L234.317 -143.818
L234.738 -143.128
L236.965 -139.443
L239.259 -136.166
L240.023 -135.068
L243.504 -130.694
L243.779 -130.385
L247.44 -126.319
L248.3 -125.467
L251.915 -121.944
L252.82 -121.15
L257.007 -117.57
L257.341 -117.31
L261.861 -113.883
L262.801 -113.195
L266.382 -110.789
L269.465 -108.82
L270.902 -107.97
L275.423 -105.412
L277.226 -104.446
L279.943 -103.08
L284.464 -100.951
L286.457 -100.071
L288.984 -99.0116
L293.505 -97.2464
L297.874 -95.6962
L298.025 -95.6447
L302.546 -94.1931
L307.066 -92.8883
L311.587 -91.7249
L313.329 -91.3215
L316.107 -90.6887
L320.628 -89.7755
L325.148 -88.9846
L329.669 -88.3101
L334.189 -87.7456
L338.71 -87.2843
L342.886 -86.9468
L343.23 -86.9188
L347.751 -86.6382
L352.271 -86.4414
L356.792 -86.3205
L361.312 -86.2673
L365.833 -86.2734
L370.353 -86.33
L374.874 -86.4282
L379.394 -86.5589
L383.915 -86.7134
L388.435 -86.8829
L390.085 -86.9468
L392.956 -87.0595
L397.476 -87.2357
L401.997 -87.4043
L406.517 -87.5587
L411.038 -87.6931
L415.558 -87.8029
L420.079 -87.884
L424.599 -87.9339
L429.12 -87.9507
L429.12 -86.9468
L429.12 -82.5722
L429.12 -78.1975
L429.12 -76.5687
L424.599 -76.5597
L420.079 -76.5329
L415.558 -76.4895
L411.038 -76.4311
L406.517 -76.36
L401.997 -76.2792
L397.476 -76.192
L392.956 -76.1026
L388.435 -76.0155
L383.915 -75.9355
L379.394 -75.8679
L374.874 -75.8183
L370.353 -75.7923
L365.833 -75.7958
L361.312 -75.8346
L356.792 -75.9144
L352.271 -76.041
L347.751 -76.2197
L343.23 -76.4559
L338.71 -76.7544
L334.189 -77.1199
L329.669 -77.5569
L325.148 -78.0693
L324.154 -78.1975
L320.628 -78.6542
L316.107 -79.3198
L311.587 -80.0718
L307.066 -80.9136
L302.546 -81.8482
L299.34 -82.5722
L298.025 -82.8765
L293.505 -84.0003
L288.984 -85.2293
L284.464 -86.5665
L283.242 -86.9468
L279.943 -88.0172
L275.423 -89.5884
L270.902 -91.2836
L270.804 -91.3215
L266.382 -93.1245
L261.861 -95.1052
L260.563 -95.6962
L257.341 -97.2552
L252.82 -99.5722
L251.877 -100.071
L248.3 -102.099
L244.372 -104.446
L243.779 -104.828
L239.259 -107.821
L237.799 -108.82
L234.738 -111.101
L232.014 -113.195
L230.218 -114.708
L226.898 -117.57
L225.697 -118.712
L222.354 -121.944
L221.177 -123.209
L218.312 -126.319
L216.656 -128.332
L214.723 -130.694
L212.136 -134.26
L211.55 -135.068
L208.728 -139.443
L207.615 -141.414
L206.247 -143.818
L204.081 -148.192
L203.095 -150.507
L202.203 -152.567
L200.587 -156.942
L199.243 -161.316
L198.574 -163.978
L198.134 -165.691" id="C3_0_7823752e56"/>
    </defs>
    <g clip-path="url(#pbb64507b19)">
     <use style="fill:#515151;" x="0.0" xlink:href="#C3_0_7823752e56" y="432.0"/>
    </g>
   </g>
   <g id="PathCollection_5">
    <defs>
     <path d="
M225.077 -170.066
L224.507 -174.441
L224.195 -178.815
L224.133 -183.19
L224.319 -187.565
L224.751 -191.939
L225.432 -196.314
L225.697 -197.569
L226.348 -200.689
L227.512 -205.063
L228.945 -209.438
L230.218 -212.713
L230.647 -213.813
L232.609 -218.187
L234.738 -222.29
L234.881 -222.562
L237.438 -226.937
L239.259 -229.711
L240.334 -231.311
L243.583 -235.686
L243.779 -235.931
L247.204 -240.061
L248.3 -241.279
L251.25 -244.435
L252.82 -246.002
L255.764 -248.81
L257.341 -250.226
L260.808 -253.185
L261.861 -254.039
L266.382 -257.504
L266.458 -257.559
L270.902 -260.674
L272.823 -261.934
L275.423 -263.584
L279.943 -266.256
L280.037 -266.309
L284.464 -268.734
L288.321 -270.684
L288.984 -271.013
L293.505 -273.134
L297.969 -275.058
L298.025 -275.082
L302.546 -276.907
L307.066 -278.585
L309.525 -279.433
L311.587 -280.143
L316.107 -281.592
L320.628 -282.924
L323.876 -283.808
L325.148 -284.156
L329.669 -285.305
L334.189 -286.36
L338.71 -287.326
L343.08 -288.182
L343.23 -288.212
L347.751 -289.039
L352.271 -289.793
L356.792 -290.479
L361.312 -291.103
L365.833 -291.669
L370.353 -292.179
L374.067 -292.557
L374.874 -292.64
L379.394 -293.058
L383.915 -293.43
L388.435 -293.758
L392.956 -294.045
L397.476 -294.293
L401.997 -294.504
L406.517 -294.68
L411.038 -294.822
L415.558 -294.931
L420.079 -295.008
L424.599 -295.054
L429.12 -295.07
L429.12 -292.557
L429.12 -288.182
L429.12 -283.808
L429.12 -279.433
L429.12 -275.058
L429.12 -274.183
L424.599 -274.171
L420.079 -274.136
L415.558 -274.076
L411.038 -273.992
L406.517 -273.88
L401.997 -273.739
L397.476 -273.566
L392.956 -273.36
L388.435 -273.115
L383.915 -272.829
L379.394 -272.498
L374.874 -272.116
L370.353 -271.679
L365.833 -271.181
L361.851 -270.684
L361.312 -270.618
L356.792 -269.995
L352.271 -269.294
L347.751 -268.508
L343.23 -267.628
L338.71 -266.646
L337.31 -266.309
L334.189 -265.572
L329.669 -264.388
L325.148 -263.072
L321.611 -261.934
L320.628 -261.621
L316.107 -260.047
L311.587 -258.3
L309.826 -257.559
L307.066 -256.396
L302.546 -254.303
L300.326 -253.185
L298.025 -252.008
L293.505 -249.486
L292.379 -248.81
L288.984 -246.716
L285.588 -244.435
L284.464 -243.651
L279.943 -240.256
L279.697 -240.061
L275.423 -236.469
L274.548 -235.686
L270.902 -232.2
L270.021 -231.311
L266.382 -227.331
L266.037 -226.937
L262.528 -222.562
L261.861 -221.64
L259.444 -218.187
L257.341 -214.766
L256.768 -213.813
L254.442 -209.438
L252.82 -205.832
L252.477 -205.063
L250.814 -200.689
L249.478 -196.314
L248.453 -191.939
L248.3 -191.033
L247.703 -187.565
L247.243 -183.19
L247.076 -178.815
L247.2 -174.441
L247.621 -170.066
L248.3 -165.984
L248.346 -165.691
L249.349 -161.316
L250.68 -156.942
L252.368 -152.567
L252.82 -151.6
L254.378 -148.192
L256.793 -143.818
L257.341 -142.967
L259.59 -139.443
L261.861 -136.404
L262.859 -135.068
L266.382 -130.983
L266.634 -130.694
L270.902 -126.389
L270.974 -126.319
L275.423 -122.412
L275.976 -121.944
L279.943 -118.912
L281.793 -117.57
L284.464 -115.797
L288.661 -113.195
L288.984 -113.009
L293.505 -110.536
L296.95 -108.82
L298.025 -108.316
L302.546 -106.341
L307.066 -104.585
L307.458 -104.446
L311.587 -103.032
L316.107 -101.671
L320.628 -100.494
L322.506 -100.071
L325.148 -99.4831
L329.669 -98.6299
L334.189 -97.9304
L338.71 -97.3749
L343.23 -96.9536
L347.751 -96.6567
L352.271 -96.474
L356.792 -96.3951
L361.312 -96.4093
L365.833 -96.5054
L370.353 -96.6715
L374.874 -96.8955
L379.394 -97.1645
L383.915 -97.4654
L388.435 -97.7853
L392.956 -98.1111
L397.476 -98.4308
L401.997 -98.7327
L406.517 -99.0066
L411.038 -99.2435
L415.558 -99.4359
L420.079 -99.5776
L424.599 -99.6645
L429.12 -99.6938
L429.12 -95.6962
L429.12 -91.3215
L429.12 -87.9507
L424.599 -87.9339
L420.079 -87.884
L415.558 -87.8029
L411.038 -87.6931
L406.517 -87.5587
L401.997 -87.4043
L397.476 -87.2357
L392.956 -87.0595
L390.085 -86.9468
L388.435 -86.8829
L383.915 -86.7134
L379.394 -86.5589
L374.874 -86.4282
L370.353 -86.33
L365.833 -86.2734
L361.312 -86.2673
L356.792 -86.3205
L352.271 -86.4414
L347.751 -86.6382
L343.23 -86.9188
L342.886 -86.9468
L338.71 -87.2843
L334.189 -87.7456
L329.669 -88.3101
L325.148 -88.9846
L320.628 -89.7755
L316.107 -90.6887
L313.329 -91.3215
L311.587 -91.7249
L307.066 -92.8883
L302.546 -94.1931
L298.025 -95.6447
L297.874 -95.6962
L293.505 -97.2464
L288.984 -99.0116
L286.457 -100.071
L284.464 -100.951
L279.943 -103.08
L277.226 -104.446
L275.423 -105.412
L270.902 -107.97
L269.465 -108.82
L266.382 -110.789
L262.801 -113.195
L261.861 -113.883
L257.341 -117.31
L257.007 -117.57
L252.82 -121.15
L251.915 -121.944
L248.3 -125.467
L247.44 -126.319
L243.779 -130.385
L243.504 -130.694
L240.023 -135.068
L239.259 -136.166
L236.965 -139.443
L234.738 -143.128
L234.317 -143.818
L231.996 -148.192
L230.218 -152.173
L230.038 -152.567
L228.354 -156.942
L226.985 -161.316
L225.907 -165.691
L225.697 -166.827
L225.077 -170.066" id="C4_0_b215389f71"/>
    </defs>
    <g clip-path="url(#pbb64507b19)">
     <use style="fill:#686868;" x="0.0" xlink:href="#C4_0_b215389f71" y="432.0"/>
    </g>
   </g>
   <g id="PathCollection_6">
    <defs>
     <path d="
M247.621 -170.066
L247.2 -174.441
L247.076 -178.815
L247.243 -183.19
L247.703 -187.565
L248.3 -191.033
L248.453 -191.939
L249.478 -196.314
L250.814 -200.689
L252.477 -205.063
L252.82 -205.832
L254.442 -209.438
L256.768 -213.813
L257.341 -214.766
L259.444 -218.187
L261.861 -221.64
L262.528 -222.562
L266.037 -226.937
L266.382 -227.331
L270.021 -231.311
L270.902 -232.2
L274.548 -235.686
L275.423 -236.469
L279.697 -240.061
L279.943 -240.256
L284.464 -243.651
L285.588 -244.435
L288.984 -246.716
L292.379 -248.81
L293.505 -249.486
L298.025 -252.008
L300.326 -253.185
L302.546 -254.303
L307.066 -256.396
L309.826 -257.559
L311.587 -258.3
L316.107 -260.047
L320.628 -261.621
L321.611 -261.934
L325.148 -263.072
L329.669 -264.388
L334.189 -265.572
L337.31 -266.309
L338.71 -266.646
L343.23 -267.628
L347.751 -268.508
L352.271 -269.294
L356.792 -269.995
L361.312 -270.618
L361.851 -270.684
L365.833 -271.181
L370.353 -271.679
L374.874 -272.116
L379.394 -272.498
L383.915 -272.829
L388.435 -273.115
L392.956 -273.36
L397.476 -273.566
L401.997 -273.739
L406.517 -273.88
L411.038 -273.992
L415.558 -274.076
L420.079 -274.136
L424.599 -274.171
L429.12 -274.183
L429.12 -270.684
L429.12 -266.309
L429.12 -261.934
L429.12 -257.559
L429.12 -254.037
L424.599 -254.037
L420.079 -254.038
L415.558 -254.037
L411.038 -254.033
L406.517 -254.021
L401.997 -253.997
L397.476 -253.956
L392.956 -253.892
L388.435 -253.799
L383.915 -253.669
L379.394 -253.494
L374.874 -253.266
L373.62 -253.185
L370.353 -252.98
L365.833 -252.627
L361.312 -252.196
L356.792 -251.675
L352.271 -251.055
L347.751 -250.322
L343.23 -249.463
L340.272 -248.81
L338.71 -248.475
L334.189 -247.36
L329.669 -246.076
L325.148 -244.605
L324.683 -244.435
L320.628 -242.973
L316.107 -241.118
L313.805 -240.061
L311.587 -239.034
L307.066 -236.694
L305.305 -235.686
L302.546 -234.063
L298.349 -231.311
L298.025 -231.09
L293.505 -227.73
L292.523 -226.937
L288.984 -223.886
L287.56 -222.562
L284.464 -219.435
L283.303 -218.187
L279.943 -214.18
L279.65 -213.813
L276.512 -209.438
L275.423 -207.683
L273.844 -205.063
L271.612 -200.689
L270.902 -199.016
L269.767 -196.314
L268.295 -191.939
L267.193 -187.565
L266.441 -183.19
L266.382 -182.573
L266.011 -178.815
L265.92 -174.441
L266.172 -170.066
L266.382 -168.541
L266.756 -165.691
L267.681 -161.316
L268.978 -156.942
L270.681 -152.567
L270.902 -152.108
L272.752 -148.192
L275.304 -143.818
L275.423 -143.644
L278.306 -139.443
L279.943 -137.42
L281.878 -135.068
L284.464 -132.353
L286.096 -130.694
L288.984 -128.11
L291.093 -126.319
L293.505 -124.483
L297.089 -121.944
L298.025 -121.34
L302.546 -118.625
L304.484 -117.57
L307.066 -116.259
L311.587 -114.208
L314.123 -113.195
L316.107 -112.439
L320.628 -110.931
L325.148 -109.661
L328.762 -108.82
L329.669 -108.613
L334.189 -107.77
L338.71 -107.121
L343.23 -106.653
L347.751 -106.353
L352.271 -106.209
L356.792 -106.207
L361.312 -106.332
L365.833 -106.571
L370.353 -106.907
L374.874 -107.324
L379.394 -107.804
L383.915 -108.327
L388.007 -108.82
L388.435 -108.874
L392.956 -109.436
L397.476 -109.986
L401.997 -110.504
L406.517 -110.975
L411.038 -111.381
L415.558 -111.711
L420.079 -111.954
L424.599 -112.103
L429.12 -112.154
L429.12 -108.82
L429.12 -104.446
L429.12 -100.071
L429.12 -99.6938
L424.599 -99.6645
L420.079 -99.5776
L415.558 -99.4359
L411.038 -99.2435
L406.517 -99.0066
L401.997 -98.7327
L397.476 -98.4308
L392.956 -98.1111
L388.435 -97.7853
L383.915 -97.4654
L379.394 -97.1645
L374.874 -96.8955
L370.353 -96.6715
L365.833 -96.5054
L361.312 -96.4093
L356.792 -96.3951
L352.271 -96.474
L347.751 -96.6567
L343.23 -96.9536
L338.71 -97.3749
L334.189 -97.9304
L329.669 -98.6299
L325.148 -99.4831
L322.506 -100.071
L320.628 -100.494
L316.107 -101.671
L311.587 -103.032
L307.458 -104.446
L307.066 -104.585
L302.546 -106.341
L298.025 -108.316
L296.95 -108.82
L293.505 -110.536
L288.984 -113.009
L288.661 -113.195
L284.464 -115.797
L281.793 -117.57
L279.943 -118.912
L275.976 -121.944
L275.423 -122.412
L270.974 -126.319
L270.902 -126.389
L266.634 -130.694
L266.382 -130.983
L262.859 -135.068
L261.861 -136.404
L259.59 -139.443
L257.341 -142.967
L256.793 -143.818
L254.378 -148.192
L252.82 -151.6
L252.368 -152.567
L250.68 -156.942
L249.349 -161.316
L248.346 -165.691
L248.3 -165.984
L247.621 -170.066" id="C5_0_e85f805eb3"/>
    </defs>
    <g clip-path="url(#pbb64507b19)">
     <use style="fill:#808080;" x="0.0" xlink:href="#C5_0_e85f805eb3" y="432.0"/>
    </g>
   </g>
   <g id="PathCollection_7">
    <defs>
     <path d="
M266.172 -170.066
L265.92 -174.441
L266.011 -178.815
L266.382 -182.573
L266.441 -183.19
L267.193 -187.565
L268.295 -191.939
L269.767 -196.314
L270.902 -199.016
L271.612 -200.689
L273.844 -205.063
L275.423 -207.683
L276.512 -209.438
L279.65 -213.813
L279.943 -214.18
L283.303 -218.187
L284.464 -219.435
L287.56 -222.562
L288.984 -223.886
L292.523 -226.937
L293.505 -227.73
L298.025 -231.09
L298.349 -231.311
L302.546 -234.063
L305.305 -235.686
L307.066 -236.694
L311.587 -239.034
L313.805 -240.061
L316.107 -241.118
L320.628 -242.973
L324.683 -244.435
L325.148 -244.605
L329.669 -246.076
L334.189 -247.36
L338.71 -248.475
L340.272 -248.81
L343.23 -249.463
L347.751 -250.322
L352.271 -251.055
L356.792 -251.675
L361.312 -252.196
L365.833 -252.627
L370.353 -252.98
L373.62 -253.185
L374.874 -253.266
L379.394 -253.494
L383.915 -253.669
L388.435 -253.799
L392.956 -253.892
L397.476 -253.956
L401.997 -253.997
L406.517 -254.021
L411.038 -254.033
L415.558 -254.037
L420.079 -254.038
L424.599 -254.037
L429.12 -254.037
L429.12 -253.185
L429.12 -248.81
L429.12 -244.435
L429.12 -240.061
L429.12 -235.686
L429.12 -233.774
L424.599 -233.803
L420.079 -233.891
L415.558 -234.031
L411.038 -234.218
L406.517 -234.44
L401.997 -234.688
L397.476 -234.947
L392.956 -235.203
L388.435 -235.442
L383.915 -235.647
L382.808 -235.686
L379.394 -235.805
L374.874 -235.9
L370.353 -235.917
L365.833 -235.839
L362.146 -235.686
L361.312 -235.653
L356.792 -235.348
L352.271 -234.907
L347.751 -234.312
L343.23 -233.546
L338.71 -232.588
L334.189 -231.415
L333.851 -231.311
L329.669 -230.041
L325.148 -228.406
L321.685 -226.937
L320.628 -226.484
L316.107 -224.258
L313.12 -222.562
L311.587 -221.659
L307.066 -218.634
L306.463 -218.187
L302.546 -215.081
L301.101 -213.813
L298.025 -210.852
L296.673 -209.438
L293.505 -205.7
L292.999 -205.063
L289.956 -200.689
L288.984 -199.028
L287.458 -196.314
L285.458 -191.939
L284.464 -189.141
L283.911 -187.565
L282.779 -183.19
L282.061 -178.815
L281.743 -174.441
L281.817 -170.066
L282.289 -165.691
L283.171 -161.316
L284.464 -157.028
L284.489 -156.942
L286.225 -152.567
L288.476 -148.192
L288.984 -147.384
L291.258 -143.818
L293.505 -140.913
L294.681 -139.443
L298.025 -135.903
L298.861 -135.068
L302.546 -131.867
L304.014 -130.694
L307.066 -128.521
L310.526 -126.319
L311.587 -125.703
L316.107 -123.362
L319.307 -121.944
L320.628 -121.395
L325.148 -119.788
L329.669 -118.484
L333.698 -117.57
L334.189 -117.461
L338.71 -116.707
L343.23 -116.194
L347.751 -115.905
L352.271 -115.825
L356.792 -115.936
L361.312 -116.223
L365.833 -116.666
L370.353 -117.245
L372.505 -117.57
L374.874 -117.946
L379.394 -118.749
L383.915 -119.619
L388.435 -120.528
L392.956 -121.443
L395.523 -121.944
L397.476 -122.354
L401.997 -123.235
L406.517 -124.035
L411.038 -124.727
L415.558 -125.29
L420.079 -125.705
L424.599 -125.96
L429.12 -126.046
L429.12 -121.944
L429.12 -117.57
L429.12 -113.195
L429.12 -112.154
L424.599 -112.103
L420.079 -111.954
L415.558 -111.711
L411.038 -111.381
L406.517 -110.975
L401.997 -110.504
L397.476 -109.986
L392.956 -109.436
L388.435 -108.874
L388.007 -108.82
L383.915 -108.327
L379.394 -107.804
L374.874 -107.324
L370.353 -106.907
L365.833 -106.571
L361.312 -106.332
L356.792 -106.207
L352.271 -106.209
L347.751 -106.353
L343.23 -106.653
L338.71 -107.121
L334.189 -107.77
L329.669 -108.613
L328.762 -108.82
L325.148 -109.661
L320.628 -110.931
L316.107 -112.439
L314.123 -113.195
L311.587 -114.208
L307.066 -116.259
L304.484 -117.57
L302.546 -118.625
L298.025 -121.34
L297.089 -121.944
L293.505 -124.483
L291.093 -126.319
L288.984 -128.11
L286.096 -130.694
L284.464 -132.353
L281.878 -135.068
L279.943 -137.42
L278.306 -139.443
L275.423 -143.644
L275.304 -143.818
L272.752 -148.192
L270.902 -152.108
L270.681 -152.567
L268.978 -156.942
L267.681 -161.316
L266.756 -165.691
L266.382 -168.541
L266.172 -170.066" id="C6_0_89ffcad11d"/>
    </defs>
    <g clip-path="url(#pbb64507b19)">
     <use style="fill:#979797;" x="0.0" xlink:href="#C6_0_89ffcad11d" y="432.0"/>
    </g>
   </g>
   <g id="PathCollection_8">
    <defs>
     <path d="
M283.171 -161.316
L282.289 -165.691
L281.817 -170.066
L281.743 -174.441
L282.061 -178.815
L282.779 -183.19
L283.911 -187.565
L284.464 -189.141
L285.458 -191.939
L287.458 -196.314
L288.984 -199.028
L289.956 -200.689
L292.999 -205.063
L293.505 -205.7
L296.673 -209.438
L298.025 -210.852
L301.101 -213.813
L302.546 -215.081
L306.463 -218.187
L307.066 -218.634
L311.587 -221.659
L313.12 -222.562
L316.107 -224.258
L320.628 -226.484
L321.685 -226.937
L325.148 -228.406
L329.669 -230.041
L333.851 -231.311
L334.189 -231.415
L338.71 -232.588
L343.23 -233.546
L347.751 -234.312
L352.271 -234.907
L356.792 -235.348
L361.312 -235.653
L362.146 -235.686
L365.833 -235.839
L370.353 -235.917
L374.874 -235.9
L379.394 -235.805
L382.808 -235.686
L383.915 -235.647
L388.435 -235.442
L392.956 -235.203
L397.476 -234.947
L401.997 -234.688
L406.517 -234.44
L411.038 -234.218
L415.558 -234.031
L420.079 -233.891
L424.599 -233.803
L429.12 -233.774
L429.12 -231.311
L429.12 -226.937
L429.12 -222.562
L429.12 -218.187
L429.12 -213.813
L429.12 -210.98
L424.599 -211.089
L420.079 -211.411
L415.558 -211.927
L411.038 -212.611
L406.517 -213.429
L404.651 -213.813
L401.997 -214.312
L397.476 -215.23
L392.956 -216.166
L388.435 -217.081
L383.915 -217.941
L382.519 -218.187
L379.394 -218.705
L374.874 -219.359
L370.353 -219.884
L365.833 -220.257
L361.312 -220.458
L356.792 -220.471
L352.271 -220.276
L347.751 -219.854
L343.23 -219.184
L338.71 -218.241
L338.514 -218.187
L334.189 -217.006
L329.669 -215.437
L325.882 -213.813
L325.148 -213.487
L320.628 -211.095
L317.988 -209.438
L316.107 -208.171
L312.142 -205.063
L311.587 -204.582
L307.629 -200.689
L307.066 -200.052
L304.073 -196.314
L302.546 -194.013
L301.264 -191.939
L299.102 -187.565
L298.025 -184.652
L297.505 -183.19
L296.429 -178.815
L295.848 -174.441
L295.748 -170.066
L296.127 -165.691
L297 -161.316
L298.025 -158.091
L298.394 -156.942
L300.35 -152.567
L302.546 -148.841
L302.946 -148.192
L306.304 -143.818
L307.066 -142.992
L310.635 -139.443
L311.587 -138.633
L316.107 -135.206
L316.315 -135.068
L320.628 -132.53
L324.387 -130.694
L325.148 -130.354
L329.669 -128.688
L334.189 -127.407
L338.71 -126.482
L339.955 -126.319
L343.23 -125.906
L347.751 -125.636
L352.271 -125.646
L356.792 -125.918
L360.353 -126.319
L361.312 -126.434
L365.833 -127.195
L370.353 -128.16
L374.874 -129.298
L379.394 -130.575
L379.797 -130.694
L383.915 -132.035
L388.435 -133.566
L392.836 -135.068
L392.956 -135.114
L397.476 -136.755
L401.997 -138.303
L405.688 -139.443
L406.517 -139.735
L411.038 -141.081
L415.558 -142.174
L420.079 -142.979
L424.599 -143.473
L429.12 -143.64
L429.12 -139.443
L429.12 -135.068
L429.12 -130.694
L429.12 -126.319
L429.12 -126.046
L424.599 -125.96
L420.079 -125.705
L415.558 -125.29
L411.038 -124.727
L406.517 -124.035
L401.997 -123.235
L397.476 -122.354
L395.523 -121.944
L392.956 -121.443
L388.435 -120.528
L383.915 -119.619
L379.394 -118.749
L374.874 -117.946
L372.505 -117.57
L370.353 -117.245
L365.833 -116.666
L361.312 -116.223
L356.792 -115.936
L352.271 -115.825
L347.751 -115.905
L343.23 -116.194
L338.71 -116.707
L334.189 -117.461
L333.698 -117.57
L329.669 -118.484
L325.148 -119.788
L320.628 -121.395
L319.307 -121.944
L316.107 -123.362
L311.587 -125.703
L310.526 -126.319
L307.066 -128.521
L304.014 -130.694
L302.546 -131.867
L298.861 -135.068
L298.025 -135.903
L294.681 -139.443
L293.505 -140.913
L291.258 -143.818
L288.984 -147.384
L288.476 -148.192
L286.225 -152.567
L284.489 -156.942
L284.464 -157.028
L283.171 -161.316" id="C7_0_efd65fd31b"/>
    </defs>
    <g clip-path="url(#pbb64507b19)">
     <use style="fill:#aeaeae;" x="0.0" xlink:href="#C7_0_efd65fd31b" y="432.0"/>
    </g>
   </g>
   <g id="PathCollection_9">
    <defs>
     <path d="
M297 -161.316
L296.127 -165.691
L295.748 -170.066
L295.848 -174.441
L296.429 -178.815
L297.505 -183.19
L298.025 -184.652
L299.102 -187.565
L301.264 -191.939
L302.546 -194.013
L304.073 -196.314
L307.066 -200.052
L307.629 -200.689
L311.587 -204.582
L312.142 -205.063
L316.107 -208.171
L317.988 -209.438
L320.628 -211.095
L325.148 -213.487
L325.882 -213.813
L329.669 -215.437
L334.189 -217.006
L338.514 -218.187
L338.71 -218.241
L343.23 -219.184
L347.751 -219.854
L352.271 -220.276
L356.792 -220.471
L361.312 -220.458
L365.833 -220.257
L370.353 -219.884
L374.874 -219.359
L379.394 -218.705
L382.519 -218.187
L383.915 -217.941
L388.435 -217.081
L392.956 -216.166
L397.476 -215.23
L401.997 -214.312
L404.651 -213.813
L406.517 -213.429
L411.038 -212.611
L415.558 -211.927
L420.079 -211.411
L424.599 -211.089
L429.12 -210.98
L429.12 -209.438
L429.12 -205.063
L429.12 -200.689
L429.12 -196.314
L429.12 -191.939
L429.12 -187.565
L429.12 -183.19
L429.12 -178.815
L429.12 -174.441
L429.12 -170.066
L429.12 -165.691
L429.12 -161.316
L429.12 -156.942
L429.12 -152.567
L429.12 -148.192
L429.12 -143.818
L429.12 -143.64
L424.599 -143.473
L420.079 -142.979
L415.558 -142.174
L411.038 -141.081
L406.517 -139.735
L405.688 -139.443
L401.997 -138.303
L397.476 -136.755
L392.956 -135.114
L392.836 -135.068
L388.435 -133.566
L383.915 -132.035
L379.797 -130.694
L379.394 -130.575
L374.874 -129.298
L370.353 -128.16
L365.833 -127.195
L361.312 -126.434
L360.353 -126.319
L356.792 -125.918
L352.271 -125.646
L347.751 -125.636
L343.23 -125.906
L339.955 -126.319
L338.71 -126.482
L334.189 -127.407
L329.669 -128.688
L325.148 -130.354
L324.387 -130.694
L320.628 -132.53
L316.315 -135.068
L316.107 -135.206
L311.587 -138.633
L310.635 -139.443
L307.066 -142.992
L306.304 -143.818
L302.946 -148.192
L302.546 -148.841
L300.35 -152.567
L298.394 -156.942
L298.025 -158.091
L297 -161.316
M310.578 -161.316
L311.587 -158.615
L312.256 -156.942
L314.77 -152.567
L316.107 -150.8
L318.331 -148.192
L320.628 -146.029
L323.396 -143.818
L325.148 -142.637
L329.669 -140.166
L331.395 -139.443
L334.189 -138.405
L338.71 -137.22
L343.23 -136.508
L347.751 -136.24
L352.271 -136.39
L356.792 -136.932
L361.312 -137.84
L365.833 -139.083
L366.916 -139.443
L370.353 -140.754
L374.874 -142.749
L377.091 -143.818
L379.394 -145.134
L383.915 -147.851
L384.482 -148.192
L388.435 -151.101
L390.479 -152.567
L392.956 -154.821
L395.453 -156.942
L397.476 -159.233
L399.535 -161.316
L401.997 -164.909
L402.624 -165.691
L404.694 -170.066
L405.377 -174.441
L404.629 -178.815
L402.303 -183.19
L401.997 -183.533
L398.68 -187.565
L397.476 -188.581
L393.626 -191.939
L392.956 -192.387
L388.435 -195.428
L387.068 -196.314
L383.915 -197.988
L379.394 -200.187
L378.257 -200.689
L374.874 -201.979
L370.353 -203.446
L365.833 -204.604
L363.401 -205.063
L361.312 -205.424
L356.792 -205.905
L352.271 -206.053
L347.751 -205.85
L343.23 -205.274
L342.258 -205.063
L338.71 -204.268
L334.189 -202.799
L329.669 -200.823
L329.422 -200.689
L325.148 -198.126
L322.696 -196.314
L320.628 -194.562
L318.015 -191.939
L316.107 -189.619
L314.628 -187.565
L312.192 -183.19
L311.587 -181.664
L310.554 -178.815
L309.607 -174.441
L309.296 -170.066
L309.615 -165.691
L310.578 -161.316" id="C8_0_c835ad38cb"/>
    </defs>
    <g clip-path="url(#pbb64507b19)">
     <use style="fill:#c5c5c5;" x="0.0" xlink:href="#C8_0_c835ad38cb" y="432.0"/>
    </g>
   </g>
   <g id="PathCollection_10">
    <defs>
     <path d="
M310.578 -161.316
L309.615 -165.691
L309.296 -170.066
L309.607 -174.441
L310.554 -178.815
L311.587 -181.664
L312.192 -183.19
L314.628 -187.565
L316.107 -189.619
L318.015 -191.939
L320.628 -194.562
L322.696 -196.314
L325.148 -198.126
L329.422 -200.689
L329.669 -200.823
L334.189 -202.799
L338.71 -204.268
L342.258 -205.063
L343.23 -205.274
L347.751 -205.85
L352.271 -206.053
L356.792 -205.905
L361.312 -205.424
L363.401 -205.063
L365.833 -204.604
L370.353 -203.446
L374.874 -201.979
L378.257 -200.689
L379.394 -200.187
L383.915 -197.988
L387.068 -196.314
L388.435 -195.428
L392.956 -192.387
L393.626 -191.939
L397.476 -188.581
L398.68 -187.565
L401.997 -183.533
L402.303 -183.19
L404.629 -178.815
L405.377 -174.441
L404.694 -170.066
L402.624 -165.691
L401.997 -164.909
L399.535 -161.316
L397.476 -159.233
L395.453 -156.942
L392.956 -154.821
L390.479 -152.567
L388.435 -151.101
L384.482 -148.192
L383.915 -147.851
L379.394 -145.134
L377.091 -143.818
L374.874 -142.749
L370.353 -140.754
L366.916 -139.443
L365.833 -139.083
L361.312 -137.84
L356.792 -136.932
L352.271 -136.39
L347.751 -136.24
L343.23 -136.508
L338.71 -137.22
L334.189 -138.405
L331.395 -139.443
L329.669 -140.166
L325.148 -142.637
L323.396 -143.818
L320.628 -146.029
L318.331 -148.192
L316.107 -150.8
L314.77 -152.567
L312.256 -156.942
L311.587 -158.615
L310.578 -161.316
M325.11 -170.066
L325.148 -169.533
L325.476 -165.691
L327.054 -161.316
L329.669 -157.285
L329.956 -156.942
L334.189 -153.447
L335.728 -152.567
L338.71 -151.25
L343.23 -150.112
L347.751 -149.793
L352.271 -150.244
L356.792 -151.418
L359.637 -152.567
L361.312 -153.446
L365.833 -156.535
L366.338 -156.942
L370.187 -161.316
L370.353 -161.629
L372.366 -165.691
L373.226 -170.066
L372.787 -174.441
L370.953 -178.815
L370.353 -179.621
L367.265 -183.19
L365.833 -184.322
L361.312 -187.129
L360.322 -187.565
L356.792 -188.782
L352.271 -189.648
L347.751 -189.806
L343.23 -189.239
L338.71 -187.911
L337.974 -187.565
L334.189 -185.406
L331.433 -183.19
L329.669 -181.292
L327.888 -178.815
L325.906 -174.441
L325.148 -170.318
L325.11 -170.066" id="C9_0_2c98354742"/>
    </defs>
    <g clip-path="url(#pbb64507b19)">
     <use style="fill:#dddddd;" x="0.0" xlink:href="#C9_0_2c98354742" y="432.0"/>
    </g>
   </g>
   <g id="PathCollection_11">
    <defs>
     <path d="
M325.11 -170.066
L325.148 -170.318
L325.906 -174.441
L327.888 -178.815
L329.669 -181.292
L331.433 -183.19
L334.189 -185.406
L337.974 -187.565
L338.71 -187.911
L343.23 -189.239
L347.751 -189.806
L352.271 -189.648
L356.792 -188.782
L360.322 -187.565
L361.312 -187.129
L365.833 -184.322
L367.265 -183.19
L370.353 -179.621
L370.953 -178.815
L372.787 -174.441
L373.226 -170.066
L372.366 -165.691
L370.353 -161.629
L370.187 -161.316
L366.338 -156.942
L365.833 -156.535
L361.312 -153.446
L359.637 -152.567
L356.792 -151.418
L352.271 -150.244
L347.751 -149.793
L343.23 -150.112
L338.71 -151.25
L335.728 -152.567
L334.189 -153.447
L329.956 -156.942
L329.669 -157.285
L327.054 -161.316
L325.476 -165.691
L325.148 -169.533
L325.11 -170.066" id="Ca_0_24ff6ee342"/>
    </defs>
    <g clip-path="url(#pbb64507b19)">
     <use style="fill:#f4f4f4;" x="0.0" xlink:href="#Ca_0_24ff6ee342" y="432.0"/>
    </g>
   </g>
   <g id="matplotlib.axis_1">
    <g id="xtick_1">
     <g id="line2d_1">
      <defs>
       <path d="
M0 0
L0 -4" id="m93b0483c22" style="stroke:#000000;stroke-width:0.5;"/>
      </defs>
      <g>
       <use style="stroke:#000000;stroke-width:0.5;" x="72.0" xlink:href="#m93b0483c22" y="388.8"/>
      </g>
     </g>
     <g id="line2d_2">
      <defs>
       <path d="
M0 0
L0 4" id="m741efc42ff" style="stroke:#000000;stroke-width:0.5;"/>
      </defs>
      <g>
       <use style="stroke:#000000;stroke-width:0.5;" x="72.0" xlink:href="#m741efc42ff" y="43.2"/>
      </g>
     </g>
     <g id="text_1">
      <!-- 0 -->
      <defs>
       <path d="
M31.7812 66.4062
Q24.1719 66.4062 20.3281 58.9062
Q16.5 51.4219 16.5 36.375
Q16.5 21.3906 20.3281 13.8906
Q24.1719 6.39062 31.7812 6.39062
Q39.4531 6.39062 43.2812 13.8906
Q47.125 21.3906 47.125 36.375
Q47.125 51.4219 43.2812 58.9062
Q39.4531 66.4062 31.7812 66.4062
M31.7812 74.2188
Q44.0469 74.2188 50.5156 64.5156
Q56.9844 54.8281 56.9844 36.375
Q56.9844 17.9688 50.5156 8.26562
Q44.0469 -1.42188 31.7812 -1.42188
Q19.5312 -1.42188 13.0625 8.26562
Q6.59375 17.9688 6.59375 36.375
Q6.59375 54.8281 13.0625 64.5156
Q19.5312 74.2188 31.7812 74.2188" id="BitstreamVeraSans-Roman-30"/>
      </defs>
      <g transform="translate(68.9765625 401.918125)scale(0.12 -0.12)">
       <use xlink:href="#BitstreamVeraSans-Roman-30"/>
      </g>
     </g>
    </g>
    <g id="xtick_2">
     <g id="line2d_3">
      <g>
       <use style="stroke:#000000;stroke-width:0.5;" x="116.64" xlink:href="#m93b0483c22" y="388.8"/>
      </g>
     </g>
     <g id="line2d_4">
      <g>
       <use style="stroke:#000000;stroke-width:0.5;" x="116.64" xlink:href="#m741efc42ff" y="43.2"/>
      </g>
     </g>
     <g id="text_2">
      <!-- 1 -->
      <defs>
       <path d="
M12.4062 8.29688
L28.5156 8.29688
L28.5156 63.9219
L10.9844 60.4062
L10.9844 69.3906
L28.4219 72.9062
L38.2812 72.9062
L38.2812 8.29688
L54.3906 8.29688
L54.3906 0
L12.4062 0
z
" id="BitstreamVeraSans-Roman-31"/>
      </defs>
      <g transform="translate(114.035625 401.918125)scale(0.12 -0.12)">
       <use xlink:href="#BitstreamVeraSans-Roman-31"/>
      </g>
     </g>
    </g>
    <g id="xtick_3">
     <g id="line2d_5">
      <g>
       <use style="stroke:#000000;stroke-width:0.5;" x="161.28" xlink:href="#m93b0483c22" y="388.8"/>
      </g>
     </g>
     <g id="line2d_6">
      <g>
       <use style="stroke:#000000;stroke-width:0.5;" x="161.28" xlink:href="#m741efc42ff" y="43.2"/>
      </g>
     </g>
     <g id="text_3">
      <!-- 2 -->
      <defs>
       <path d="
M19.1875 8.29688
L53.6094 8.29688
L53.6094 0
L7.32812 0
L7.32812 8.29688
Q12.9375 14.1094 22.625 23.8906
Q32.3281 33.6875 34.8125 36.5312
Q39.5469 41.8438 41.4219 45.5312
Q43.3125 49.2188 43.3125 52.7812
Q43.3125 58.5938 39.2344 62.25
Q35.1562 65.9219 28.6094 65.9219
Q23.9688 65.9219 18.8125 64.3125
Q13.6719 62.7031 7.8125 59.4219
L7.8125 69.3906
Q13.7656 71.7812 18.9375 73
Q24.125 74.2188 28.4219 74.2188
Q39.75 74.2188 46.4844 68.5469
Q53.2188 62.8906 53.2188 53.4219
Q53.2188 48.9219 51.5312 44.8906
Q49.8594 40.875 45.4062 35.4062
Q44.1875 33.9844 37.6406 27.2188
Q31.1094 20.4531 19.1875 8.29688" id="BitstreamVeraSans-Roman-32"/>
      </defs>
      <g transform="translate(158.503125 401.918125)scale(0.12 -0.12)">
       <use xlink:href="#BitstreamVeraSans-Roman-32"/>
      </g>
     </g>
    </g>
    <g id="xtick_4">
     <g id="line2d_7">
      <g>
       <use style="stroke:#000000;stroke-width:0.5;" x="205.92" xlink:href="#m93b0483c22" y="388.8"/>
      </g>
     </g>
     <g id="line2d_8">
      <g>
       <use style="stroke:#000000;stroke-width:0.5;" x="205.92" xlink:href="#m741efc42ff" y="43.2"/>
      </g>
     </g>
     <g id="text_4">
      <!-- 3 -->
      <defs>
       <path d="
M40.5781 39.3125
Q47.6562 37.7969 51.625 33
Q55.6094 28.2188 55.6094 21.1875
Q55.6094 10.4062 48.1875 4.48438
Q40.7656 -1.42188 27.0938 -1.42188
Q22.5156 -1.42188 17.6562 -0.515625
Q12.7969 0.390625 7.625 2.20312
L7.625 11.7188
Q11.7188 9.32812 16.5938 8.10938
Q21.4844 6.89062 26.8125 6.89062
Q36.0781 6.89062 40.9375 10.5469
Q45.7969 14.2031 45.7969 21.1875
Q45.7969 27.6406 41.2812 31.2656
Q36.7656 34.9062 28.7188 34.9062
L20.2188 34.9062
L20.2188 43.0156
L29.1094 43.0156
Q36.375 43.0156 40.2344 45.9219
Q44.0938 48.8281 44.0938 54.2969
Q44.0938 59.9062 40.1094 62.9062
Q36.1406 65.9219 28.7188 65.9219
Q24.6562 65.9219 20.0156 65.0312
Q15.375 64.1562 9.8125 62.3125
L9.8125 71.0938
Q15.4375 72.6562 20.3438 73.4375
Q25.25 74.2188 29.5938 74.2188
Q40.8281 74.2188 47.3594 69.1094
Q53.9062 64.0156 53.9062 55.3281
Q53.9062 49.2656 50.4375 45.0938
Q46.9688 40.9219 40.5781 39.3125" id="BitstreamVeraSans-Roman-33"/>
      </defs>
      <g transform="translate(203.0409375 401.918125)scale(0.12 -0.12)">
       <use xlink:href="#BitstreamVeraSans-Roman-33"/>
      </g>
     </g>
    </g>
    <g id="xtick_5">
     <g id="line2d_9">
      <g>
       <use style="stroke:#000000;stroke-width:0.5;" x="250.56" xlink:href="#m93b0483c22" y="388.8"/>
      </g>
     </g>
     <g id="line2d_10">
      <g>
       <use style="stroke:#000000;stroke-width:0.5;" x="250.56" xlink:href="#m741efc42ff" y="43.2"/>
      </g>
     </g>
     <g id="text_5">
      <!-- 4 -->
      <defs>
       <path d="
M37.7969 64.3125
L12.8906 25.3906
L37.7969 25.3906
z

M35.2031 72.9062
L47.6094 72.9062
L47.6094 25.3906
L58.0156 25.3906
L58.0156 17.1875
L47.6094 17.1875
L47.6094 0
L37.7969 0
L37.7969 17.1875
L4.89062 17.1875
L4.89062 26.7031
z
" id="BitstreamVeraSans-Roman-34"/>
      </defs>
      <g transform="translate(247.3725 401.918125)scale(0.12 -0.12)">
       <use xlink:href="#BitstreamVeraSans-Roman-34"/>
      </g>
     </g>
    </g>
    <g id="xtick_6">
     <g id="line2d_11">
      <g>
       <use style="stroke:#000000;stroke-width:0.5;" x="295.2" xlink:href="#m93b0483c22" y="388.8"/>
      </g>
     </g>
     <g id="line2d_12">
      <g>
       <use style="stroke:#000000;stroke-width:0.5;" x="295.2" xlink:href="#m741efc42ff" y="43.2"/>
      </g>
     </g>
     <g id="text_6">
      <!-- 5 -->
      <defs>
       <path d="
M10.7969 72.9062
L49.5156 72.9062
L49.5156 64.5938
L19.8281 64.5938
L19.8281 46.7344
Q21.9688 47.4688 24.1094 47.8281
Q26.2656 48.1875 28.4219 48.1875
Q40.625 48.1875 47.75 41.5
Q54.8906 34.8125 54.8906 23.3906
Q54.8906 11.625 47.5625 5.09375
Q40.2344 -1.42188 26.9062 -1.42188
Q22.3125 -1.42188 17.5469 -0.640625
Q12.7969 0.140625 7.71875 1.70312
L7.71875 11.625
Q12.1094 9.23438 16.7969 8.0625
Q21.4844 6.89062 26.7031 6.89062
Q35.1562 6.89062 40.0781 11.3281
Q45.0156 15.7656 45.0156 23.3906
Q45.0156 31 40.0781 35.4375
Q35.1562 39.8906 26.7031 39.8906
Q22.75 39.8906 18.8125 39.0156
Q14.8906 38.1406 10.7969 36.2812
z
" id="BitstreamVeraSans-Roman-35"/>
      </defs>
      <g transform="translate(292.3696875 401.918125)scale(0.12 -0.12)">
       <use xlink:href="#BitstreamVeraSans-Roman-35"/>
      </g>
     </g>
    </g>
    <g id="xtick_7">
     <g id="line2d_13">
      <g>
       <use style="stroke:#000000;stroke-width:0.5;" x="339.84" xlink:href="#m93b0483c22" y="388.8"/>
      </g>
     </g>
     <g id="line2d_14">
      <g>
       <use style="stroke:#000000;stroke-width:0.5;" x="339.84" xlink:href="#m741efc42ff" y="43.2"/>
      </g>
     </g>
     <g id="text_7">
      <!-- 6 -->
      <defs>
       <path d="
M33.0156 40.375
Q26.375 40.375 22.4844 35.8281
Q18.6094 31.2969 18.6094 23.3906
Q18.6094 15.5312 22.4844 10.9531
Q26.375 6.39062 33.0156 6.39062
Q39.6562 6.39062 43.5312 10.9531
Q47.4062 15.5312 47.4062 23.3906
Q47.4062 31.2969 43.5312 35.8281
Q39.6562 40.375 33.0156 40.375
M52.5938 71.2969
L52.5938 62.3125
Q48.875 64.0625 45.0938 64.9844
Q41.3125 65.9219 37.5938 65.9219
Q27.8281 65.9219 22.6719 59.3281
Q17.5312 52.7344 16.7969 39.4062
Q19.6719 43.6562 24.0156 45.9219
Q28.375 48.1875 33.5938 48.1875
Q44.5781 48.1875 50.9531 41.5156
Q57.3281 34.8594 57.3281 23.3906
Q57.3281 12.1562 50.6875 5.35938
Q44.0469 -1.42188 33.0156 -1.42188
Q20.3594 -1.42188 13.6719 8.26562
Q6.98438 17.9688 6.98438 36.375
Q6.98438 53.6562 15.1875 63.9375
Q23.3906 74.2188 37.2031 74.2188
Q40.9219 74.2188 44.7031 73.4844
Q48.4844 72.75 52.5938 71.2969" id="BitstreamVeraSans-Roman-36"/>
      </defs>
      <g transform="translate(336.819375 401.918125)scale(0.12 -0.12)">
       <use xlink:href="#BitstreamVeraSans-Roman-36"/>
      </g>
     </g>
    </g>
    <g id="xtick_8">
     <g id="line2d_15">
      <g>
       <use style="stroke:#000000;stroke-width:0.5;" x="384.48" xlink:href="#m93b0483c22" y="388.8"/>
      </g>
     </g>
     <g id="line2d_16">
      <g>
       <use style="stroke:#000000;stroke-width:0.5;" x="384.48" xlink:href="#m741efc42ff" y="43.2"/>
      </g>
     </g>
     <g id="text_8">
      <!-- 7 -->
      <defs>
       <path d="
M8.20312 72.9062
L55.0781 72.9062
L55.0781 68.7031
L28.6094 0
L18.3125 0
L43.2188 64.5938
L8.20312 64.5938
z
" id="BitstreamVeraSans-Roman-37"/>
      </defs>
      <g transform="translate(381.6675 401.918125)scale(0.12 -0.12)">
       <use xlink:href="#BitstreamVeraSans-Roman-37"/>
      </g>
     </g>
    </g>
    <g id="xtick_9">
     <g id="line2d_17">
      <g>
       <use style="stroke:#000000;stroke-width:0.5;" x="429.12" xlink:href="#m93b0483c22" y="388.8"/>
      </g>
     </g>
     <g id="line2d_18">
      <g>
       <use style="stroke:#000000;stroke-width:0.5;" x="429.12" xlink:href="#m741efc42ff" y="43.2"/>
      </g>
     </g>
     <g id="text_9">
      <!-- 8 -->
      <defs>
       <path d="
M31.7812 34.625
Q24.75 34.625 20.7188 30.8594
Q16.7031 27.0938 16.7031 20.5156
Q16.7031 13.9219 20.7188 10.1562
Q24.75 6.39062 31.7812 6.39062
Q38.8125 6.39062 42.8594 10.1719
Q46.9219 13.9688 46.9219 20.5156
Q46.9219 27.0938 42.8906 30.8594
Q38.875 34.625 31.7812 34.625
M21.9219 38.8125
Q15.5781 40.375 12.0312 44.7188
Q8.5 49.0781 8.5 55.3281
Q8.5 64.0625 14.7188 69.1406
Q20.9531 74.2188 31.7812 74.2188
Q42.6719 74.2188 48.875 69.1406
Q55.0781 64.0625 55.0781 55.3281
Q55.0781 49.0781 51.5312 44.7188
Q48 40.375 41.7031 38.8125
Q48.8281 37.1562 52.7969 32.3125
Q56.7812 27.4844 56.7812 20.5156
Q56.7812 9.90625 50.3125 4.23438
Q43.8438 -1.42188 31.7812 -1.42188
Q19.7344 -1.42188 13.25 4.23438
Q6.78125 9.90625 6.78125 20.5156
Q6.78125 27.4844 10.7812 32.3125
Q14.7969 37.1562 21.9219 38.8125
M18.3125 54.3906
Q18.3125 48.7344 21.8438 45.5625
Q25.3906 42.3906 31.7812 42.3906
Q38.1406 42.3906 41.7188 45.5625
Q45.3125 48.7344 45.3125 54.3906
Q45.3125 60.0625 41.7188 63.2344
Q38.1406 66.4062 31.7812 66.4062
Q25.3906 66.4062 21.8438 63.2344
Q18.3125 60.0625 18.3125 54.3906" id="BitstreamVeraSans-Roman-38"/>
      </defs>
      <g transform="translate(426.12 401.918125)scale(0.12 -0.12)">
       <use xlink:href="#BitstreamVeraSans-Roman-38"/>
      </g>
     </g>
    </g>
    <g id="text_10">
     <!-- $x$ -->
     <defs>
      <path d="
M7.8125 2.875
Q9.57812 1.51562 12.7969 1.51562
Q15.9219 1.51562 18.3125 4.51562
Q20.7031 7.51562 21.5781 11.0781
L26.125 28.8125
Q27.2031 33.6406 27.2031 35.4062
Q27.2031 37.8906 25.8125 39.75
Q24.4219 41.6094 21.9219 41.6094
Q18.75 41.6094 15.9688 39.625
Q13.1875 37.6406 11.2812 34.5938
Q9.375 31.5469 8.59375 28.4219
Q8.40625 27.7812 7.8125 27.7812
L6.59375 27.7812
Q5.8125 27.7812 5.8125 28.7188
L5.8125 29
Q6.78125 32.7188 9.125 36.25
Q11.4688 39.7969 14.8594 41.9844
Q18.2656 44.1875 22.125 44.1875
Q25.7812 44.1875 28.7344 42.2344
Q31.6875 40.2812 32.9062 36.9219
Q34.625 39.9844 37.2812 42.0781
Q39.9375 44.1875 43.1094 44.1875
Q45.2656 44.1875 47.5 43.4219
Q49.75 42.6719 51.1719 41.1094
Q52.5938 39.5469 52.5938 37.2031
Q52.5938 34.6719 50.9531 32.8281
Q49.3125 31 46.7812 31
Q45.1719 31 44.0938 32.0312
Q43.0156 33.0625 43.0156 34.625
Q43.0156 36.7188 44.4531 38.2969
Q45.9062 39.8906 47.9062 40.1875
Q46.0938 41.6094 42.9219 41.6094
Q39.7031 41.6094 37.3281 38.625
Q34.9688 35.6406 33.9844 31.9844
L29.5938 14.3125
Q28.5156 10.2969 28.5156 7.71875
Q28.5156 5.17188 29.9531 3.34375
Q31.3906 1.51562 33.7969 1.51562
Q38.4844 1.51562 42.1562 5.64062
Q45.8438 9.76562 47.0156 14.7031
Q47.2188 15.2812 47.7969 15.2812
L49.0312 15.2812
Q49.4219 15.2812 49.6562 15.0156
Q49.9062 14.75 49.9062 14.4062
Q49.9062 14.3125 49.8125 14.1094
Q48.3906 8.15625 43.8438 3.51562
Q39.3125 -1.125 33.5938 -1.125
Q29.9375 -1.125 26.9844 0.84375
Q24.0312 2.82812 22.7969 6.20312
Q21.2344 3.26562 18.4688 1.0625
Q15.7188 -1.125 12.5938 -1.125
Q10.4531 -1.125 8.17188 -0.359375
Q5.90625 0.390625 4.48438 1.95312
Q3.07812 3.51562 3.07812 5.90625
Q3.07812 8.25 4.70312 10.1719
Q6.34375 12.1094 8.79688 12.1094
Q10.4531 12.1094 11.5781 11.1094
Q12.7031 10.1094 12.7031 8.5
Q12.7031 6.39062 11.2969 4.82812
Q9.90625 3.26562 7.8125 2.875" id="Cmmi10-78"/>
     </defs>
     <g transform="translate(247.08 418.531875)scale(0.12 -0.12)">
      <use transform="translate(0.0 0.8125)" xlink:href="#Cmmi10-78"/>
     </g>
    </g>
   </g>
   <g id="matplotlib.axis_2">
    <g id="ytick_1">
     <g id="line2d_19">
      <defs>
       <path d="
M0 0
L4 0" id="m728421d6d4" style="stroke:#000000;stroke-width:0.5;"/>
      </defs>
      <g>
       <use style="stroke:#000000;stroke-width:0.5;" x="72.0" xlink:href="#m728421d6d4" y="388.8"/>
      </g>
     </g>
     <g id="line2d_20">
      <defs>
       <path d="
M0 0
L-4 0" id="mcb0005524f" style="stroke:#000000;stroke-width:0.5;"/>
      </defs>
      <g>
       <use style="stroke:#000000;stroke-width:0.5;" x="429.12" xlink:href="#mcb0005524f" y="388.8"/>
      </g>
     </g>
     <g id="text_11">
      <!-- 0 -->
      <g transform="translate(61.953125 392.11125)scale(0.12 -0.12)">
       <use xlink:href="#BitstreamVeraSans-Roman-30"/>
      </g>
     </g>
    </g>
    <g id="ytick_2">
     <g id="line2d_21">
      <g>
       <use style="stroke:#000000;stroke-width:0.5;" x="72.0" xlink:href="#m728421d6d4" y="335.630769231"/>
      </g>
     </g>
     <g id="line2d_22">
      <g>
       <use style="stroke:#000000;stroke-width:0.5;" x="429.12" xlink:href="#mcb0005524f" y="335.630769231"/>
      </g>
     </g>
     <g id="text_12">
      <!-- 1 -->
      <g transform="translate(62.79125 338.942019231)scale(0.12 -0.12)">
       <use xlink:href="#BitstreamVeraSans-Roman-31"/>
      </g>
     </g>
    </g>
    <g id="ytick_3">
     <g id="line2d_23">
      <g>
       <use style="stroke:#000000;stroke-width:0.5;" x="72.0" xlink:href="#m728421d6d4" y="282.461538462"/>
      </g>
     </g>
     <g id="line2d_24">
      <g>
       <use style="stroke:#000000;stroke-width:0.5;" x="429.12" xlink:href="#mcb0005524f" y="282.461538462"/>
      </g>
     </g>
     <g id="text_13">
      <!-- 2 -->
      <g transform="translate(62.44625 285.772788462)scale(0.12 -0.12)">
       <use xlink:href="#BitstreamVeraSans-Roman-32"/>
      </g>
     </g>
    </g>
    <g id="ytick_4">
     <g id="line2d_25">
      <g>
       <use style="stroke:#000000;stroke-width:0.5;" x="72.0" xlink:href="#m728421d6d4" y="229.292307692"/>
      </g>
     </g>
     <g id="line2d_26">
      <g>
       <use style="stroke:#000000;stroke-width:0.5;" x="429.12" xlink:href="#mcb0005524f" y="229.292307692"/>
      </g>
     </g>
     <g id="text_14">
      <!-- 3 -->
      <g transform="translate(62.241875 232.603557692)scale(0.12 -0.12)">
       <use xlink:href="#BitstreamVeraSans-Roman-33"/>
      </g>
     </g>
    </g>
    <g id="ytick_5">
     <g id="line2d_27">
      <g>
       <use style="stroke:#000000;stroke-width:0.5;" x="72.0" xlink:href="#m728421d6d4" y="176.123076923"/>
      </g>
     </g>
     <g id="line2d_28">
      <g>
       <use style="stroke:#000000;stroke-width:0.5;" x="429.12" xlink:href="#mcb0005524f" y="176.123076923"/>
      </g>
     </g>
     <g id="text_15">
      <!-- 4 -->
      <g transform="translate(61.625 179.434326923)scale(0.12 -0.12)">
       <use xlink:href="#BitstreamVeraSans-Roman-34"/>
      </g>
     </g>
    </g>
    <g id="ytick_6">
     <g id="line2d_29">
      <g>
       <use style="stroke:#000000;stroke-width:0.5;" x="72.0" xlink:href="#m728421d6d4" y="122.953846154"/>
      </g>
     </g>
     <g id="line2d_30">
      <g>
       <use style="stroke:#000000;stroke-width:0.5;" x="429.12" xlink:href="#mcb0005524f" y="122.953846154"/>
      </g>
     </g>
     <g id="text_16">
      <!-- 5 -->
      <g transform="translate(62.339375 126.265096154)scale(0.12 -0.12)">
       <use xlink:href="#BitstreamVeraSans-Roman-35"/>
      </g>
     </g>
    </g>
    <g id="ytick_7">
     <g id="line2d_31">
      <g>
       <use style="stroke:#000000;stroke-width:0.5;" x="72.0" xlink:href="#m728421d6d4" y="69.7846153846"/>
      </g>
     </g>
     <g id="line2d_32">
      <g>
       <use style="stroke:#000000;stroke-width:0.5;" x="429.12" xlink:href="#mcb0005524f" y="69.7846153846"/>
      </g>
     </g>
     <g id="text_17">
      <!-- 6 -->
      <g transform="translate(61.95875 73.0958653846)scale(0.12 -0.12)">
       <use xlink:href="#BitstreamVeraSans-Roman-36"/>
      </g>
     </g>
    </g>
    <g id="text_18">
     <!-- $y$ -->
     <defs>
      <path d="
M8.40625 -14.3125
Q10.5 -17.9219 15.7188 -17.9219
Q20.4531 -17.9219 23.9219 -14.5938
Q27.3906 -11.2812 29.5156 -6.5625
Q31.6406 -1.85938 32.8125 3.07812
Q28.375 -1.125 23.1875 -1.125
Q19.2344 -1.125 16.4531 0.234375
Q13.6719 1.60938 12.125 4.3125
Q10.5938 7.03125 10.5938 10.8906
Q10.5938 14.1562 11.4688 17.5938
Q12.3594 21.0469 13.9375 25.2656
Q15.5312 29.5 16.7031 32.625
Q18.0156 36.2812 18.0156 38.625
Q18.0156 41.6094 15.8281 41.6094
Q11.8594 41.6094 9.29688 37.5312
Q6.73438 33.4531 5.51562 28.4219
Q5.32812 27.7812 4.6875 27.7812
L3.51562 27.7812
Q2.6875 27.7812 2.6875 28.7188
L2.6875 29
Q4.29688 34.9688 7.60938 39.5781
Q10.9375 44.1875 16.0156 44.1875
Q19.5781 44.1875 22.0469 41.8438
Q24.5156 39.5 24.5156 35.8906
Q24.5156 34.0312 23.6875 31.9844
Q23.25 30.7656 21.6875 26.6562
Q20.125 22.5625 19.2812 19.875
Q18.4531 17.1875 17.9219 14.5938
Q17.3906 12.0156 17.3906 9.42188
Q17.3906 6.10938 18.7969 3.8125
Q20.2188 1.51562 23.2969 1.51562
Q29.5 1.51562 34.4219 9.07812
L42 39.8906
Q42.3281 41.2188 43.5469 42.1562
Q44.7812 43.1094 46.1875 43.1094
Q47.4062 43.1094 48.3125 42.3281
Q49.2188 41.5469 49.2188 40.2812
Q49.2188 39.7031 49.125 39.5
L39.2031 -0.296875
Q37.8906 -5.42188 34.375 -10.1094
Q30.8594 -14.7969 25.9062 -17.6562
Q20.9531 -20.5156 15.5781 -20.5156
Q12.9844 -20.5156 10.4375 -19.5
Q7.90625 -18.5 6.34375 -16.5
Q4.78125 -14.5 4.78125 -11.8125
Q4.78125 -9.07812 6.39062 -7.07812
Q8.01562 -5.07812 10.6875 -5.07812
Q12.3125 -5.07812 13.4062 -6.07812
Q14.5 -7.07812 14.5 -8.6875
Q14.5 -10.9844 12.7812 -12.6875
Q11.0781 -14.4062 8.79688 -14.4062
Q8.6875 -14.3594 8.59375 -14.3281
Q8.5 -14.3125 8.40625 -14.3125" id="Cmmi10-79"/>
     </defs>
     <g transform="translate(54.105 219.0)rotate(-90.0)scale(0.12 -0.12)">
      <use transform="translate(0.0 0.8125)" xlink:href="#Cmmi10-79"/>
     </g>
    </g>
   </g>
   <g id="patch_3">
    <path d="
M72 43.2
L429.12 43.2" style="fill:none;stroke:#000000;"/>
   </g>
   <g id="patch_4">
    <path d="
M429.12 388.8
L429.12 43.2" style="fill:none;stroke:#000000;"/>
   </g>
   <g id="patch_5">
    <path d="
M72 388.8
L429.12 388.8" style="fill:none;stroke:#000000;"/>
   </g>
   <g id="patch_6">
    <path d="
M72 388.8
L72 43.2" style="fill:none;stroke:#000000;"/>
   </g>
  </g>
  <g id="axes_2">
   <g id="patch_7">
    <path clip-path="url(#p8630e4bf2e)" d="
M451.44 388.8
L451.44 357.382
L451.44 74.6182
L451.44 43.2
L468.72 43.2
L468.72 74.6182
L468.72 357.382
L468.72 388.8
z
" style="fill:#ffffff;stroke:#ffffff;stroke-width:0.01;"/>
   </g>
   <g id="QuadMesh_1">
    <defs>
     <path d="
M451.44 -43.2
L468.72 -43.2
L468.72 -74.6182
L451.44 -74.6182
L451.44 -43.2" id="Cb_0_27d81ab78a"/>
     <path d="
M451.44 -74.6182
L468.72 -74.6182
L468.72 -106.036
L451.44 -106.036
L451.44 -74.6182" id="Cb_1_24ec498acc"/>
     <path d="
M451.44 -106.036
L468.72 -106.036
L468.72 -137.455
L451.44 -137.455
L451.44 -106.036" id="Cb_2_b5a96ea5dd"/>
     <path d="
M451.44 -137.455
L468.72 -137.455
L468.72 -168.873
L451.44 -168.873
L451.44 -137.455" id="Cb_3_87822aa7b9"/>
     <path d="
M451.44 -168.873
L468.72 -168.873
L468.72 -200.291
L451.44 -200.291
L451.44 -168.873" id="Cb_4_0004a9e86e"/>
     <path d="
M451.44 -200.291
L468.72 -200.291
L468.72 -231.709
L451.44 -231.709
L451.44 -200.291" id="Cb_5_26dcb8747a"/>
     <path d="
M451.44 -231.709
L468.72 -231.709
L468.72 -263.127
L451.44 -263.127
L451.44 -231.709" id="Cb_6_b08bdfc84a"/>
     <path d="
M451.44 -263.127
L468.72 -263.127
L468.72 -294.545
L451.44 -294.545
L451.44 -263.127" id="Cb_7_97b0daa719"/>
     <path d="
M451.44 -294.545
L468.72 -294.545
L468.72 -325.964
L451.44 -325.964
L451.44 -294.545" id="Cb_8_608fd3372c"/>
     <path d="
M451.44 -325.964
L468.72 -325.964
L468.72 -357.382
L451.44 -357.382
L451.44 -325.964" id="Cb_9_43f4abde3f"/>
     <path d="
M451.44 -357.382
L468.72 -357.382
L468.72 -388.8
L451.44 -388.8
L451.44 -357.382" id="Cb_a_ed72fc0bfd"/>
    </defs>
    <g clip-path="url(#p8630e4bf2e)">
     <use style="fill:#0b0b0b;" x="0.0" xlink:href="#Cb_0_27d81ab78a" y="432.0"/>
    </g>
    <g clip-path="url(#p8630e4bf2e)">
     <use style="fill:#222222;" x="0.0" xlink:href="#Cb_1_24ec498acc" y="432.0"/>
    </g>
    <g clip-path="url(#p8630e4bf2e)">
     <use style="fill:#3a3a3a;" x="0.0" xlink:href="#Cb_2_b5a96ea5dd" y="432.0"/>
    </g>
    <g clip-path="url(#p8630e4bf2e)">
     <use style="fill:#515151;" x="0.0" xlink:href="#Cb_3_87822aa7b9" y="432.0"/>
    </g>
    <g clip-path="url(#p8630e4bf2e)">
     <use style="fill:#686868;" x="0.0" xlink:href="#Cb_4_0004a9e86e" y="432.0"/>
    </g>
    <g clip-path="url(#p8630e4bf2e)">
     <use style="fill:#808080;" x="0.0" xlink:href="#Cb_5_26dcb8747a" y="432.0"/>
    </g>
    <g clip-path="url(#p8630e4bf2e)">
     <use style="fill:#979797;" x="0.0" xlink:href="#Cb_6_b08bdfc84a" y="432.0"/>
    </g>
    <g clip-path="url(#p8630e4bf2e)">
     <use style="fill:#aeaeae;" x="0.0" xlink:href="#Cb_7_97b0daa719" y="432.0"/>
    </g>
    <g clip-path="url(#p8630e4bf2e)">
     <use style="fill:#c5c5c5;" x="0.0" xlink:href="#Cb_8_608fd3372c" y="432.0"/>
    </g>
    <g clip-path="url(#p8630e4bf2e)">
     <use style="fill:#dddddd;" x="0.0" xlink:href="#Cb_9_43f4abde3f" y="432.0"/>
    </g>
    <g clip-path="url(#p8630e4bf2e)">
     <use style="fill:#f4f4f4;" x="0.0" xlink:href="#Cb_a_ed72fc0bfd" y="432.0"/>
    </g>
   </g>
   <g id="line2d_33">
    <path d="
M451.44 388.8
L451.44 357.382
L451.44 74.6182
L451.44 43.2
L468.72 43.2
L468.72 74.6182
L468.72 357.382
L468.72 388.8
L451.44 388.8" style="fill:none;stroke:#000000;stroke-linecap:square;"/>
   </g>
   <g id="matplotlib.axis_3"/>
   <g id="matplotlib.axis_4">
    <g id="ytick_8">
     <g id="line2d_34">
      <g>
       <use style="stroke:#000000;stroke-width:0.5;" x="468.72" xlink:href="#mcb0005524f" y="388.8"/>
      </g>
     </g>
     <g id="text_19">
      <!-- 0.0 -->
      <defs>
       <path d="
M10.6875 12.4062
L21 12.4062
L21 0
L10.6875 0
z
" id="BitstreamVeraSans-Roman-2e"/>
      </defs>
      <g transform="translate(472.72 392.11125)scale(0.12 -0.12)">
       <use xlink:href="#BitstreamVeraSans-Roman-30"/>
       <use x="63.623046875" xlink:href="#BitstreamVeraSans-Roman-2e"/>
       <use x="95.41015625" xlink:href="#BitstreamVeraSans-Roman-30"/>
      </g>
     </g>
    </g>
    <g id="ytick_9">
     <g id="line2d_35">
      <g>
       <use style="stroke:#000000;stroke-width:0.5;" x="468.72" xlink:href="#mcb0005524f" y="325.963636364"/>
      </g>
     </g>
     <g id="text_20">
      <!-- 0.3 -->
      <g transform="translate(472.72 329.274886364)scale(0.12 -0.12)">
       <use xlink:href="#BitstreamVeraSans-Roman-30"/>
       <use x="63.623046875" xlink:href="#BitstreamVeraSans-Roman-2e"/>
       <use x="95.41015625" xlink:href="#BitstreamVeraSans-Roman-33"/>
      </g>
     </g>
    </g>
    <g id="ytick_10">
     <g id="line2d_36">
      <g>
       <use style="stroke:#000000;stroke-width:0.5;" x="468.72" xlink:href="#mcb0005524f" y="263.127272727"/>
      </g>
     </g>
     <g id="text_21">
      <!-- 0.6 -->
      <g transform="translate(472.72 266.438522727)scale(0.12 -0.12)">
       <use xlink:href="#BitstreamVeraSans-Roman-30"/>
       <use x="63.623046875" xlink:href="#BitstreamVeraSans-Roman-2e"/>
       <use x="95.41015625" xlink:href="#BitstreamVeraSans-Roman-36"/>
      </g>
     </g>
    </g>
    <g id="ytick_11">
     <g id="line2d_37">
      <g>
       <use style="stroke:#000000;stroke-width:0.5;" x="468.72" xlink:href="#mcb0005524f" y="200.290909091"/>
      </g>
     </g>
     <g id="text_22">
      <!-- 0.9 -->
      <defs>
       <path d="
M10.9844 1.51562
L10.9844 10.5
Q14.7031 8.73438 18.5 7.8125
Q22.3125 6.89062 25.9844 6.89062
Q35.75 6.89062 40.8906 13.4531
Q46.0469 20.0156 46.7812 33.4062
Q43.9531 29.2031 39.5938 26.9531
Q35.25 24.7031 29.9844 24.7031
Q19.0469 24.7031 12.6719 31.3125
Q6.29688 37.9375 6.29688 49.4219
Q6.29688 60.6406 12.9375 67.4219
Q19.5781 74.2188 30.6094 74.2188
Q43.2656 74.2188 49.9219 64.5156
Q56.5938 54.8281 56.5938 36.375
Q56.5938 19.1406 48.4062 8.85938
Q40.2344 -1.42188 26.4219 -1.42188
Q22.7031 -1.42188 18.8906 -0.6875
Q15.0938 0.046875 10.9844 1.51562
M30.6094 32.4219
Q37.25 32.4219 41.125 36.9531
Q45.0156 41.5 45.0156 49.4219
Q45.0156 57.2812 41.125 61.8438
Q37.25 66.4062 30.6094 66.4062
Q23.9688 66.4062 20.0938 61.8438
Q16.2188 57.2812 16.2188 49.4219
Q16.2188 41.5 20.0938 36.9531
Q23.9688 32.4219 30.6094 32.4219" id="BitstreamVeraSans-Roman-39"/>
      </defs>
      <g transform="translate(472.72 203.602159091)scale(0.12 -0.12)">
       <use xlink:href="#BitstreamVeraSans-Roman-30"/>
       <use x="63.623046875" xlink:href="#BitstreamVeraSans-Roman-2e"/>
       <use x="95.41015625" xlink:href="#BitstreamVeraSans-Roman-39"/>
      </g>
     </g>
    </g>
    <g id="ytick_12">
     <g id="line2d_38">
      <g>
       <use style="stroke:#000000;stroke-width:0.5;" x="468.72" xlink:href="#mcb0005524f" y="137.454545455"/>
      </g>
     </g>
     <g id="text_23">
      <!-- 1.2 -->
      <g transform="translate(472.72 140.765795455)scale(0.12 -0.12)">
       <use xlink:href="#BitstreamVeraSans-Roman-31"/>
       <use x="63.623046875" xlink:href="#BitstreamVeraSans-Roman-2e"/>
       <use x="95.41015625" xlink:href="#BitstreamVeraSans-Roman-32"/>
      </g>
     </g>
    </g>
    <g id="ytick_13">
     <g id="line2d_39">
      <g>
       <use style="stroke:#000000;stroke-width:0.5;" x="468.72" xlink:href="#mcb0005524f" y="74.6181818182"/>
      </g>
     </g>
     <g id="text_24">
      <!-- 1.5 -->
      <g transform="translate(472.72 77.9294318182)scale(0.12 -0.12)">
       <use xlink:href="#BitstreamVeraSans-Roman-31"/>
       <use x="63.623046875" xlink:href="#BitstreamVeraSans-Roman-2e"/>
       <use x="95.41015625" xlink:href="#BitstreamVeraSans-Roman-35"/>
      </g>
     </g>
    </g>
   </g>
  </g>
 </g>
 <defs>
  <clipPath id="p8630e4bf2e">
   <rect height="345.6" width="17.28" x="451.44" y="43.2"/>
  </clipPath>
  <clipPath id="pbb64507b19">
   <rect height="345.6" width="357.12" x="72.0" y="43.2"/>
  </clipPath>
 </defs>
</svg>
