<?xml version="1.0" encoding="utf-8" standalone="no"?>
<!DOCTYPE svg PUBLIC "-//W3C//DTD SVG 1.1//EN"
  "http://www.w3.org/Graphics/SVG/1.1/DTD/svg11.dtd">
<!-- Created with matplotlib (http://matplotlib.org/) -->
<svg height="432pt" version="1.1" viewBox="0 0 576 432" width="576pt" xmlns="http://www.w3.org/2000/svg" xmlns:xlink="http://www.w3.org/1999/xlink">
 <defs>
  <style type="text/css">
*{stroke-linecap:butt;stroke-linejoin:round;}
  </style>
 </defs>
 <g id="figure_1">
  <g id="patch_1">
   <path d="
M0 432
L576 432
L576 0
L0 0
z
" style="fill:#ffffff;"/>
  </g>
  <g id="axes_1">
   <g id="patch_2">
    <path d="
M72 388.8
L518.4 388.8
L518.4 43.2
L72 43.2
z
" style="fill:#ffffff;"/>
   </g>
   <g id="LineCollection_1">
    <defs>
     <path d="
M218.916 -291.701
L216.818 -292.557
L213.266 -294.776
L210.911 -296.932
L208.885 -301.306
L209.555 -305.681
L212.985 -310.056
L213.266 -310.257
L218.916 -313.044
L224.35 -314.43
L224.567 -314.471
L230.218 -314.611
L231.513 -314.43
L235.868 -313.612
L241.519 -311.244
L243.344 -310.056
L247.064 -305.681
L247.17 -305.052
L247.663 -301.306
L247.17 -300.048
L245.594 -296.932
L241.519 -293.547
L239.671 -292.557
L235.868 -291.218
L230.218 -290.318
L224.567 -290.475
L218.916 -291.701" id="C0_0_20f4a5020b"/>
    </defs>
    <g clip-path="url(#p7ff5b81e1d)">
     <use style="fill:none;stroke:#000080;" x="0.0" xlink:href="#C0_0_20f4a5020b" y="432.0"/>
    </g>
   </g>
   <g id="LineCollection_2">
    <defs>
     <path d="
M224.567 -283.26
L220.408 -283.808
L218.916 -284.03
L213.266 -285.636
L207.615 -288.122
L207.51 -288.182
L201.965 -292.458
L201.861 -292.557
L198.882 -296.932
L197.655 -301.306
L198.061 -305.681
L200.138 -310.056
L201.965 -312.154
L204.36 -314.43
L207.615 -316.571
L212.21 -318.805
L213.266 -319.219
L218.916 -320.727
L224.567 -321.507
L230.218 -321.607
L235.868 -321.035
L241.519 -319.753
L244.184 -318.805
L247.17 -317.496
L252.178 -314.43
L252.82 -313.866
L256.33 -310.056
L258.469 -305.681
L258.471 -305.66
L258.856 -301.306
L258.471 -299.844
L257.624 -296.932
L254.558 -292.557
L252.82 -291.002
L248.867 -288.182
L247.17 -287.275
L241.519 -285.068
L236.315 -283.808
L235.868 -283.714
L230.218 -283.164
L224.567 -283.26" id="C1_0_58d84d1192"/>
    </defs>
    <g clip-path="url(#p7ff5b81e1d)">
     <use style="fill:none;stroke:#004cff;" x="0.0" xlink:href="#C1_0_58d84d1192" y="432.0"/>
    </g>
   </g>
   <g id="LineCollection_3">
    <defs>
     <path d="
M213.266 -278.857
L211.321 -279.433
L207.615 -280.636
L201.965 -283.188
L200.869 -283.808
L196.314 -286.987
L194.881 -288.182
L191.094 -292.557
L190.663 -293.36
L188.872 -296.932
L187.959 -301.306
L188.261 -305.681
L189.807 -310.056
L190.663 -311.394
L192.775 -314.43
L196.314 -317.811
L197.539 -318.805
L201.965 -321.582
L205.244 -323.18
L207.615 -324.176
L213.266 -325.932
L218.916 -327.067
L223.597 -327.554
L224.567 -327.654
L230.218 -327.73
L232.526 -327.554
L235.868 -327.298
L241.519 -326.334
L247.17 -324.774
L251.249 -323.18
L252.82 -322.472
L258.471 -319.156
L258.967 -318.805
L263.719 -314.43
L264.122 -313.882
L266.669 -310.056
L268.213 -305.681
L268.515 -301.306
L267.603 -296.932
L265.388 -292.557
L264.122 -290.988
L261.586 -288.182
L258.471 -285.703
L255.579 -283.808
L252.82 -282.333
L247.17 -280.025
L245.149 -279.433
L241.519 -278.457
L235.868 -277.497
L230.218 -277.068
L224.567 -277.143
L218.916 -277.727
L213.266 -278.857" id="C2_0_a29f4d119c"/>
    </defs>
    <g clip-path="url(#p7ff5b81e1d)">
     <use style="fill:none;stroke:#29ffce;" x="0.0" xlink:href="#C2_0_a29f4d119c" y="432.0"/>
    </g>
   </g>
   <g id="LineCollection_4">
    <defs>
     <path d="
M207.615 -273.671
L203.466 -275.058
L201.965 -275.586
L196.314 -278.136
L194.002 -279.433
L190.663 -281.618
L187.818 -283.808
L185.013 -286.584
L183.538 -288.182
L180.652 -292.557
L179.362 -295.812
L178.915 -296.932
L178.163 -301.306
L178.412 -305.681
L179.362 -308.982
L179.664 -310.056
L181.933 -314.43
L185.013 -318.25
L185.495 -318.805
L190.613 -323.18
L190.663 -323.215
L196.314 -326.656
L198.16 -327.554
L201.965 -329.229
L207.615 -331.114
L210.999 -331.929
L213.266 -332.474
L218.916 -333.387
L224.567 -333.859
L230.218 -333.92
L235.868 -333.573
L241.519 -332.797
L245.498 -331.929
L247.17 -331.566
L252.82 -329.86
L258.367 -327.554
L258.471 -327.507
L264.122 -324.354
L265.863 -323.18
L269.772 -319.946
L270.998 -318.805
L274.529 -314.43
L275.423 -312.76
L276.845 -310.056
L278.088 -305.681
L278.331 -301.306
L277.597 -296.932
L275.814 -292.557
L275.423 -291.943
L272.944 -288.182
L269.772 -284.863
L268.656 -283.808
L264.122 -280.454
L262.476 -279.433
L258.471 -277.289
L253.079 -275.058
L252.82 -274.958
L247.17 -273.208
L241.519 -272
L235.868 -271.254
L230.218 -270.92
L224.567 -270.979
L218.916 -271.433
L213.266 -272.311
L207.615 -273.671" id="C3_0_ace85499f9"/>
    </defs>
    <g clip-path="url(#p7ff5b81e1d)">
     <use style="fill:none;stroke:#ceff29;" x="0.0" xlink:href="#C3_0_ace85499f9" y="432.0"/>
    </g>
   </g>
   <g id="LineCollection_5">
    <defs>
     <path d="
M207.615 -266.116
L206.89 -266.309
L201.965 -267.552
L196.314 -269.481
L193.511 -270.684
L190.663 -271.953
L185.103 -275.058
L185.013 -275.114
L179.362 -279.194
L179.067 -279.433
L174.575 -283.808
L173.711 -284.926
L171.248 -288.182
L168.989 -292.557
L168.061 -295.536
L167.594 -296.932
L166.967 -301.306
L167.174 -305.681
L168.061 -309.36
L168.214 -310.056
L169.992 -314.43
L172.792 -318.805
L173.711 -319.886
L176.619 -323.18
L179.362 -325.594
L181.828 -327.554
L185.013 -329.705
L188.912 -331.929
L190.663 -332.847
L196.314 -335.309
L199.231 -336.304
L201.965 -337.243
L207.615 -338.746
L213.266 -339.803
L218.916 -340.486
L221.97 -340.678
L224.567 -340.866
L230.218 -340.92
L234.714 -340.678
L235.868 -340.625
L241.519 -340.045
L247.17 -339.106
L252.82 -337.746
L257.264 -336.304
L258.471 -335.917
L264.122 -333.662
L267.563 -331.929
L269.772 -330.726
L274.632 -327.554
L275.423 -326.951
L279.84 -323.18
L281.073 -321.833
L283.719 -318.805
L286.431 -314.43
L286.724 -313.727
L288.331 -310.056
L289.349 -305.681
L289.548 -301.306
L288.946 -296.932
L287.487 -292.557
L286.724 -291.12
L285.214 -288.182
L281.907 -283.808
L281.073 -282.947
L277.448 -279.433
L275.423 -277.842
L271.396 -275.058
L269.772 -274.07
L264.122 -271.169
L262.974 -270.684
L258.471 -268.84
L252.82 -267.079
L249.518 -266.309
L247.17 -265.728
L241.519 -264.716
L235.868 -264.091
L230.218 -263.812
L224.567 -263.861
L218.916 -264.241
L213.266 -264.977
L207.615 -266.116" id="C4_0_689ce02022"/>
    </defs>
    <g clip-path="url(#p7ff5b81e1d)">
     <use style="fill:none;stroke:#ff6800;" x="0.0" xlink:href="#C4_0_689ce02022" y="432.0"/>
    </g>
   </g>
   <g id="LineCollection_6">
    <defs>
     <path d="
M201.965 -257.056
L200.126 -257.559
L196.314 -258.487
L190.663 -260.274
L186.559 -261.934
L185.013 -262.539
L179.362 -265.196
L177.364 -266.309
L173.711 -268.452
L170.431 -270.684
L168.061 -272.504
L165.007 -275.058
L162.41 -277.7
L160.749 -279.433
L157.463 -283.808
L156.759 -285.056
L154.879 -288.182
L153.075 -292.557
L152.006 -296.932
L151.566 -301.306
L151.711 -305.681
L152.457 -310.056
L153.876 -314.43
L156.111 -318.805
L156.759 -319.764
L158.958 -323.18
L162.41 -327.094
L162.82 -327.554
L167.621 -331.929
L168.061 -332.274
L173.711 -336.286
L173.74 -336.304
L179.362 -339.599
L181.602 -340.678
L185.013 -342.307
L190.663 -344.473
L192.521 -345.053
L196.314 -346.331
L201.965 -347.811
L207.615 -348.894
L211.499 -349.428
L213.266 -349.719
L218.916 -350.347
L224.567 -350.672
L230.218 -350.714
L235.868 -350.475
L241.519 -349.941
L244.955 -349.428
L247.17 -349.153
L252.82 -348.174
L258.471 -346.823
L263.976 -345.053
L264.122 -345.01
L269.772 -343.024
L274.856 -340.678
L275.423 -340.416
L281.073 -337.385
L282.798 -336.304
L286.724 -333.611
L288.92 -331.929
L292.375 -328.818
L293.71 -327.554
L297.45 -323.18
L298.025 -322.311
L300.445 -318.805
L302.555 -314.43
L303.676 -310.809
L303.942 -310.056
L304.804 -305.681
L304.972 -301.306
L304.463 -296.932
L303.676 -294.088
L303.31 -292.557
L301.608 -288.182
L299.036 -283.808
L298.025 -282.488
L295.746 -279.433
L292.375 -275.992
L291.429 -275.058
L286.724 -271.217
L286.005 -270.684
L281.073 -267.419
L279.112 -266.309
L275.423 -264.316
L269.916 -261.934
L269.772 -261.871
L264.122 -259.682
L258.471 -258.046
L256.343 -257.559
L252.82 -256.648
L247.17 -255.547
L241.519 -254.786
L235.868 -254.316
L230.218 -254.106
L224.567 -254.143
L218.916 -254.429
L213.266 -254.982
L207.615 -255.838
L201.965 -257.056" id="C5_0_089619a822"/>
    </defs>
    <g clip-path="url(#p7ff5b81e1d)">
     <use style="fill:none;stroke:#800000;" x="0.0" xlink:href="#C5_0_089619a822" y="432.0"/>
    </g>
   </g>
   <g id="matplotlib.axis_1">
    <g id="xtick_1">
     <g id="line2d_1">
      <defs>
       <path d="
M0 0
L0 -4" id="m93b0483c22" style="stroke:#000000;stroke-width:0.5;"/>
      </defs>
      <g>
       <use style="stroke:#000000;stroke-width:0.5;" x="72.0" xlink:href="#m93b0483c22" y="388.8"/>
      </g>
     </g>
     <g id="line2d_2">
      <defs>
       <path d="
M0 0
L0 4" id="m741efc42ff" style="stroke:#000000;stroke-width:0.5;"/>
      </defs>
      <g>
       <use style="stroke:#000000;stroke-width:0.5;" x="72.0" xlink:href="#m741efc42ff" y="43.2"/>
      </g>
     </g>
     <g id="text_1">
      <!-- 0 -->
      <defs>
       <path d="
M31.7812 66.4062
Q24.1719 66.4062 20.3281 58.9062
Q16.5 51.4219 16.5 36.375
Q16.5 21.3906 20.3281 13.8906
Q24.1719 6.39062 31.7812 6.39062
Q39.4531 6.39062 43.2812 13.8906
Q47.125 21.3906 47.125 36.375
Q47.125 51.4219 43.2812 58.9062
Q39.4531 66.4062 31.7812 66.4062
M31.7812 74.2188
Q44.0469 74.2188 50.5156 64.5156
Q56.9844 54.8281 56.9844 36.375
Q56.9844 17.9688 50.5156 8.26562
Q44.0469 -1.42188 31.7812 -1.42188
Q19.5312 -1.42188 13.0625 8.26562
Q6.59375 17.9688 6.59375 36.375
Q6.59375 54.8281 13.0625 64.5156
Q19.5312 74.2188 31.7812 74.2188" id="BitstreamVeraSans-Roman-30"/>
      </defs>
      <g transform="translate(68.9765625 401.918125)scale(0.12 -0.12)">
       <use xlink:href="#BitstreamVeraSans-Roman-30"/>
      </g>
     </g>
    </g>
    <g id="xtick_2">
     <g id="line2d_3">
      <g>
       <use style="stroke:#000000;stroke-width:0.5;" x="128.506329114" xlink:href="#m93b0483c22" y="388.8"/>
      </g>
     </g>
     <g id="line2d_4">
      <g>
       <use style="stroke:#000000;stroke-width:0.5;" x="128.506329114" xlink:href="#m741efc42ff" y="43.2"/>
      </g>
     </g>
     <g id="text_2">
      <!-- 10 -->
      <defs>
       <path d="
M12.4062 8.29688
L28.5156 8.29688
L28.5156 63.9219
L10.9844 60.4062
L10.9844 69.3906
L28.4219 72.9062
L38.2812 72.9062
L38.2812 8.29688
L54.3906 8.29688
L54.3906 0
L12.4062 0
z
" id="BitstreamVeraSans-Roman-31"/>
      </defs>
      <g transform="translate(121.928829114 401.918125)scale(0.12 -0.12)">
       <use xlink:href="#BitstreamVeraSans-Roman-31"/>
       <use x="63.623046875" xlink:href="#BitstreamVeraSans-Roman-30"/>
      </g>
     </g>
    </g>
    <g id="xtick_3">
     <g id="line2d_5">
      <g>
       <use style="stroke:#000000;stroke-width:0.5;" x="185.012658228" xlink:href="#m93b0483c22" y="388.8"/>
      </g>
     </g>
     <g id="line2d_6">
      <g>
       <use style="stroke:#000000;stroke-width:0.5;" x="185.012658228" xlink:href="#m741efc42ff" y="43.2"/>
      </g>
     </g>
     <g id="text_3">
      <!-- 20 -->
      <defs>
       <path d="
M19.1875 8.29688
L53.6094 8.29688
L53.6094 0
L7.32812 0
L7.32812 8.29688
Q12.9375 14.1094 22.625 23.8906
Q32.3281 33.6875 34.8125 36.5312
Q39.5469 41.8438 41.4219 45.5312
Q43.3125 49.2188 43.3125 52.7812
Q43.3125 58.5938 39.2344 62.25
Q35.1562 65.9219 28.6094 65.9219
Q23.9688 65.9219 18.8125 64.3125
Q13.6719 62.7031 7.8125 59.4219
L7.8125 69.3906
Q13.7656 71.7812 18.9375 73
Q24.125 74.2188 28.4219 74.2188
Q39.75 74.2188 46.4844 68.5469
Q53.2188 62.8906 53.2188 53.4219
Q53.2188 48.9219 51.5312 44.8906
Q49.8594 40.875 45.4062 35.4062
Q44.1875 33.9844 37.6406 27.2188
Q31.1094 20.4531 19.1875 8.29688" id="BitstreamVeraSans-Roman-32"/>
      </defs>
      <g transform="translate(178.215783228 401.918125)scale(0.12 -0.12)">
       <use xlink:href="#BitstreamVeraSans-Roman-32"/>
       <use x="63.623046875" xlink:href="#BitstreamVeraSans-Roman-30"/>
      </g>
     </g>
    </g>
    <g id="xtick_4">
     <g id="line2d_7">
      <g>
       <use style="stroke:#000000;stroke-width:0.5;" x="241.518987342" xlink:href="#m93b0483c22" y="388.8"/>
      </g>
     </g>
     <g id="line2d_8">
      <g>
       <use style="stroke:#000000;stroke-width:0.5;" x="241.518987342" xlink:href="#m741efc42ff" y="43.2"/>
      </g>
     </g>
     <g id="text_4">
      <!-- 30 -->
      <defs>
       <path d="
M40.5781 39.3125
Q47.6562 37.7969 51.625 33
Q55.6094 28.2188 55.6094 21.1875
Q55.6094 10.4062 48.1875 4.48438
Q40.7656 -1.42188 27.0938 -1.42188
Q22.5156 -1.42188 17.6562 -0.515625
Q12.7969 0.390625 7.625 2.20312
L7.625 11.7188
Q11.7188 9.32812 16.5938 8.10938
Q21.4844 6.89062 26.8125 6.89062
Q36.0781 6.89062 40.9375 10.5469
Q45.7969 14.2031 45.7969 21.1875
Q45.7969 27.6406 41.2812 31.2656
Q36.7656 34.9062 28.7188 34.9062
L20.2188 34.9062
L20.2188 43.0156
L29.1094 43.0156
Q36.375 43.0156 40.2344 45.9219
Q44.0938 48.8281 44.0938 54.2969
Q44.0938 59.9062 40.1094 62.9062
Q36.1406 65.9219 28.7188 65.9219
Q24.6562 65.9219 20.0156 65.0312
Q15.375 64.1562 9.8125 62.3125
L9.8125 71.0938
Q15.4375 72.6562 20.3438 73.4375
Q25.25 74.2188 29.5938 74.2188
Q40.8281 74.2188 47.3594 69.1094
Q53.9062 64.0156 53.9062 55.3281
Q53.9062 49.2656 50.4375 45.0938
Q46.9688 40.9219 40.5781 39.3125" id="BitstreamVeraSans-Roman-33"/>
      </defs>
      <g transform="translate(234.739924842 401.918125)scale(0.12 -0.12)">
       <use xlink:href="#BitstreamVeraSans-Roman-33"/>
       <use x="63.623046875" xlink:href="#BitstreamVeraSans-Roman-30"/>
      </g>
     </g>
    </g>
    <g id="xtick_5">
     <g id="line2d_9">
      <g>
       <use style="stroke:#000000;stroke-width:0.5;" x="298.025316456" xlink:href="#m93b0483c22" y="388.8"/>
      </g>
     </g>
     <g id="line2d_10">
      <g>
       <use style="stroke:#000000;stroke-width:0.5;" x="298.025316456" xlink:href="#m741efc42ff" y="43.2"/>
      </g>
     </g>
     <g id="text_5">
      <!-- 40 -->
      <defs>
       <path d="
M37.7969 64.3125
L12.8906 25.3906
L37.7969 25.3906
z

M35.2031 72.9062
L47.6094 72.9062
L47.6094 25.3906
L58.0156 25.3906
L58.0156 17.1875
L47.6094 17.1875
L47.6094 0
L37.7969 0
L37.7969 17.1875
L4.89062 17.1875
L4.89062 26.7031
z
" id="BitstreamVeraSans-Roman-34"/>
      </defs>
      <g transform="translate(291.082191456 401.918125)scale(0.12 -0.12)">
       <use xlink:href="#BitstreamVeraSans-Roman-34"/>
       <use x="63.623046875" xlink:href="#BitstreamVeraSans-Roman-30"/>
      </g>
     </g>
    </g>
    <g id="xtick_6">
     <g id="line2d_11">
      <g>
       <use style="stroke:#000000;stroke-width:0.5;" x="354.53164557" xlink:href="#m93b0483c22" y="388.8"/>
      </g>
     </g>
     <g id="line2d_12">
      <g>
       <use style="stroke:#000000;stroke-width:0.5;" x="354.53164557" xlink:href="#m741efc42ff" y="43.2"/>
      </g>
     </g>
     <g id="text_6">
      <!-- 50 -->
      <defs>
       <path d="
M10.7969 72.9062
L49.5156 72.9062
L49.5156 64.5938
L19.8281 64.5938
L19.8281 46.7344
Q21.9688 47.4688 24.1094 47.8281
Q26.2656 48.1875 28.4219 48.1875
Q40.625 48.1875 47.75 41.5
Q54.8906 34.8125 54.8906 23.3906
Q54.8906 11.625 47.5625 5.09375
Q40.2344 -1.42188 26.9062 -1.42188
Q22.3125 -1.42188 17.5469 -0.640625
Q12.7969 0.140625 7.71875 1.70312
L7.71875 11.625
Q12.1094 9.23438 16.7969 8.0625
Q21.4844 6.89062 26.7031 6.89062
Q35.1562 6.89062 40.0781 11.3281
Q45.0156 15.7656 45.0156 23.3906
Q45.0156 31 40.0781 35.4375
Q35.1562 39.8906 26.7031 39.8906
Q22.75 39.8906 18.8125 39.0156
Q14.8906 38.1406 10.7969 36.2812
z
" id="BitstreamVeraSans-Roman-35"/>
      </defs>
      <g transform="translate(347.75820807 401.918125)scale(0.12 -0.12)">
       <use xlink:href="#BitstreamVeraSans-Roman-35"/>
       <use x="63.623046875" xlink:href="#BitstreamVeraSans-Roman-30"/>
      </g>
     </g>
    </g>
    <g id="xtick_7">
     <g id="line2d_13">
      <g>
       <use style="stroke:#000000;stroke-width:0.5;" x="411.037974684" xlink:href="#m93b0483c22" y="388.8"/>
      </g>
     </g>
     <g id="line2d_14">
      <g>
       <use style="stroke:#000000;stroke-width:0.5;" x="411.037974684" xlink:href="#m741efc42ff" y="43.2"/>
      </g>
     </g>
     <g id="text_7">
      <!-- 60 -->
      <defs>
       <path d="
M33.0156 40.375
Q26.375 40.375 22.4844 35.8281
Q18.6094 31.2969 18.6094 23.3906
Q18.6094 15.5312 22.4844 10.9531
Q26.375 6.39062 33.0156 6.39062
Q39.6562 6.39062 43.5312 10.9531
Q47.4062 15.5312 47.4062 23.3906
Q47.4062 31.2969 43.5312 35.8281
Q39.6562 40.375 33.0156 40.375
M52.5938 71.2969
L52.5938 62.3125
Q48.875 64.0625 45.0938 64.9844
Q41.3125 65.9219 37.5938 65.9219
Q27.8281 65.9219 22.6719 59.3281
Q17.5312 52.7344 16.7969 39.4062
Q19.6719 43.6562 24.0156 45.9219
Q28.375 48.1875 33.5938 48.1875
Q44.5781 48.1875 50.9531 41.5156
Q57.3281 34.8594 57.3281 23.3906
Q57.3281 12.1562 50.6875 5.35938
Q44.0469 -1.42188 33.0156 -1.42188
Q20.3594 -1.42188 13.6719 8.26562
Q6.98438 17.9688 6.98438 36.375
Q6.98438 53.6562 15.1875 63.9375
Q23.3906 74.2188 37.2031 74.2188
Q40.9219 74.2188 44.7031 73.4844
Q48.4844 72.75 52.5938 71.2969" id="BitstreamVeraSans-Roman-36"/>
      </defs>
      <g transform="translate(404.220474684 401.918125)scale(0.12 -0.12)">
       <use xlink:href="#BitstreamVeraSans-Roman-36"/>
       <use x="63.623046875" xlink:href="#BitstreamVeraSans-Roman-30"/>
      </g>
     </g>
    </g>
    <g id="xtick_8">
     <g id="line2d_15">
      <g>
       <use style="stroke:#000000;stroke-width:0.5;" x="467.544303797" xlink:href="#m93b0483c22" y="388.8"/>
      </g>
     </g>
     <g id="line2d_16">
      <g>
       <use style="stroke:#000000;stroke-width:0.5;" x="467.544303797" xlink:href="#m741efc42ff" y="43.2"/>
      </g>
     </g>
     <g id="text_8">
      <!-- 70 -->
      <defs>
       <path d="
M8.20312 72.9062
L55.0781 72.9062
L55.0781 68.7031
L28.6094 0
L18.3125 0
L43.2188 64.5938
L8.20312 64.5938
z
" id="BitstreamVeraSans-Roman-37"/>
      </defs>
      <g transform="translate(460.799928797 401.918125)scale(0.12 -0.12)">
       <use xlink:href="#BitstreamVeraSans-Roman-37"/>
       <use x="63.623046875" xlink:href="#BitstreamVeraSans-Roman-30"/>
      </g>
     </g>
    </g>
   </g>
   <g id="matplotlib.axis_2">
    <g id="ytick_1">
     <g id="line2d_17">
      <defs>
       <path d="
M0 0
L4 0" id="m728421d6d4" style="stroke:#000000;stroke-width:0.5;"/>
      </defs>
      <g>
       <use style="stroke:#000000;stroke-width:0.5;" x="72.0" xlink:href="#m728421d6d4" y="388.8"/>
      </g>
     </g>
     <g id="line2d_18">
      <defs>
       <path d="
M0 0
L-4 0" id="mcb0005524f" style="stroke:#000000;stroke-width:0.5;"/>
      </defs>
      <g>
       <use style="stroke:#000000;stroke-width:0.5;" x="518.4" xlink:href="#mcb0005524f" y="388.8"/>
      </g>
     </g>
     <g id="text_9">
      <!-- 0 -->
      <g transform="translate(61.953125 392.11125)scale(0.12 -0.12)">
       <use xlink:href="#BitstreamVeraSans-Roman-30"/>
      </g>
     </g>
    </g>
    <g id="ytick_2">
     <g id="line2d_19">
      <g>
       <use style="stroke:#000000;stroke-width:0.5;" x="72.0" xlink:href="#m728421d6d4" y="345.053164557"/>
      </g>
     </g>
     <g id="line2d_20">
      <g>
       <use style="stroke:#000000;stroke-width:0.5;" x="518.4" xlink:href="#mcb0005524f" y="345.053164557"/>
      </g>
     </g>
     <g id="text_10">
      <!-- 10 -->
      <g transform="translate(54.845 348.364414557)scale(0.12 -0.12)">
       <use xlink:href="#BitstreamVeraSans-Roman-31"/>
       <use x="63.623046875" xlink:href="#BitstreamVeraSans-Roman-30"/>
      </g>
     </g>
    </g>
    <g id="ytick_3">
     <g id="line2d_21">
      <g>
       <use style="stroke:#000000;stroke-width:0.5;" x="72.0" xlink:href="#m728421d6d4" y="301.306329114"/>
      </g>
     </g>
     <g id="line2d_22">
      <g>
       <use style="stroke:#000000;stroke-width:0.5;" x="518.4" xlink:href="#mcb0005524f" y="301.306329114"/>
      </g>
     </g>
     <g id="text_11">
      <!-- 20 -->
      <g transform="translate(54.40625 304.617579114)scale(0.12 -0.12)">
       <use xlink:href="#BitstreamVeraSans-Roman-32"/>
       <use x="63.623046875" xlink:href="#BitstreamVeraSans-Roman-30"/>
      </g>
     </g>
    </g>
    <g id="ytick_4">
     <g id="line2d_23">
      <g>
       <use style="stroke:#000000;stroke-width:0.5;" x="72.0" xlink:href="#m728421d6d4" y="257.559493671"/>
      </g>
     </g>
     <g id="line2d_24">
      <g>
       <use style="stroke:#000000;stroke-width:0.5;" x="518.4" xlink:href="#mcb0005524f" y="257.559493671"/>
      </g>
     </g>
     <g id="text_12">
      <!-- 30 -->
      <g transform="translate(54.441875 260.870743671)scale(0.12 -0.12)">
       <use xlink:href="#BitstreamVeraSans-Roman-33"/>
       <use x="63.623046875" xlink:href="#BitstreamVeraSans-Roman-30"/>
      </g>
     </g>
    </g>
    <g id="ytick_5">
     <g id="line2d_25">
      <g>
       <use style="stroke:#000000;stroke-width:0.5;" x="72.0" xlink:href="#m728421d6d4" y="213.812658228"/>
      </g>
     </g>
     <g id="line2d_26">
      <g>
       <use style="stroke:#000000;stroke-width:0.5;" x="518.4" xlink:href="#mcb0005524f" y="213.812658228"/>
      </g>
     </g>
     <g id="text_13">
      <!-- 40 -->
      <g transform="translate(54.11375 217.123908228)scale(0.12 -0.12)">
       <use xlink:href="#BitstreamVeraSans-Roman-34"/>
       <use x="63.623046875" xlink:href="#BitstreamVeraSans-Roman-30"/>
      </g>
     </g>
    </g>
    <g id="ytick_6">
     <g id="line2d_27">
      <g>
       <use style="stroke:#000000;stroke-width:0.5;" x="72.0" xlink:href="#m728421d6d4" y="170.065822785"/>
      </g>
     </g>
     <g id="line2d_28">
      <g>
       <use style="stroke:#000000;stroke-width:0.5;" x="518.4" xlink:href="#mcb0005524f" y="170.065822785"/>
      </g>
     </g>
     <g id="text_14">
      <!-- 50 -->
      <g transform="translate(54.453125 173.377072785)scale(0.12 -0.12)">
       <use xlink:href="#BitstreamVeraSans-Roman-35"/>
       <use x="63.623046875" xlink:href="#BitstreamVeraSans-Roman-30"/>
      </g>
     </g>
    </g>
    <g id="ytick_7">
     <g id="line2d_29">
      <g>
       <use style="stroke:#000000;stroke-width:0.5;" x="72.0" xlink:href="#m728421d6d4" y="126.318987342"/>
      </g>
     </g>
     <g id="line2d_30">
      <g>
       <use style="stroke:#000000;stroke-width:0.5;" x="518.4" xlink:href="#mcb0005524f" y="126.318987342"/>
      </g>
     </g>
     <g id="text_15">
      <!-- 60 -->
      <g transform="translate(54.365 129.630237342)scale(0.12 -0.12)">
       <use xlink:href="#BitstreamVeraSans-Roman-36"/>
       <use x="63.623046875" xlink:href="#BitstreamVeraSans-Roman-30"/>
      </g>
     </g>
    </g>
    <g id="ytick_8">
     <g id="line2d_31">
      <g>
       <use style="stroke:#000000;stroke-width:0.5;" x="72.0" xlink:href="#m728421d6d4" y="82.5721518987"/>
      </g>
     </g>
     <g id="line2d_32">
      <g>
       <use style="stroke:#000000;stroke-width:0.5;" x="518.4" xlink:href="#mcb0005524f" y="82.5721518987"/>
      </g>
     </g>
     <g id="text_16">
      <!-- 70 -->
      <g transform="translate(54.51125 85.8834018987)scale(0.12 -0.12)">
       <use xlink:href="#BitstreamVeraSans-Roman-37"/>
       <use x="63.623046875" xlink:href="#BitstreamVeraSans-Roman-30"/>
      </g>
     </g>
    </g>
   </g>
   <g id="patch_3">
    <path d="
M72 43.2
L518.4 43.2" style="fill:none;stroke:#000000;"/>
   </g>
   <g id="patch_4">
    <path d="
M518.4 388.8
L518.4 43.2" style="fill:none;stroke:#000000;"/>
   </g>
   <g id="patch_5">
    <path d="
M72 388.8
L518.4 388.8" style="fill:none;stroke:#000000;"/>
   </g>
   <g id="patch_6">
    <path d="
M72 388.8
L72 43.2" style="fill:none;stroke:#000000;"/>
   </g>
  </g>
 </g>
 <defs>
  <clipPath id="p7ff5b81e1d">
   <rect height="345.6" width="446.4" x="72.0" y="43.2"/>
  </clipPath>
 </defs>
</svg>
